<?xml version="1.0" encoding="utf-8" standalone="no"?>
<!DOCTYPE svg PUBLIC "-//W3C//DTD SVG 1.1//EN"
  "http://www.w3.org/Graphics/SVG/1.1/DTD/svg11.dtd">
<svg xmlns:xlink="http://www.w3.org/1999/xlink" width="460.8pt" height="345.6pt" viewBox="0 0 460.8 345.6" xmlns="http://www.w3.org/2000/svg" version="1.1">
 <metadata>
  <rdf:RDF xmlns:dc="http://purl.org/dc/elements/1.1/" xmlns:cc="http://creativecommons.org/ns#" xmlns:rdf="http://www.w3.org/1999/02/22-rdf-syntax-ns#">
   <cc:Work>
    <dc:type rdf:resource="http://purl.org/dc/dcmitype/StillImage"/>
    <dc:date>2024-12-02T11:24:28.227607</dc:date>
    <dc:format>image/svg+xml</dc:format>
    <dc:creator>
     <cc:Agent>
      <dc:title>Matplotlib v3.9.3, https://matplotlib.org/</dc:title>
     </cc:Agent>
    </dc:creator>
   </cc:Work>
  </rdf:RDF>
 </metadata>
 <defs>
  <style type="text/css">*{stroke-linejoin: round; stroke-linecap: butt}</style>
 </defs>
 <g id="figure_1">
  <g id="patch_1">
   <path d="M 0 345.6 
L 460.8 345.6 
L 460.8 0 
L 0 0 
z
" style="fill: #ffffff"/>
  </g>
  <g id="axes_1">
   <g id="patch_2">
    <path d="M 83.730732 196.30361 
C 89.505691 196.30361 95.0449 194.009194 99.128413 189.925681 
C 103.211926 185.842169 105.506341 180.302959 105.506341 174.528 
C 105.506341 168.753041 103.211926 163.213831 99.128413 159.130319 
C 95.0449 155.046806 89.505691 152.75239 83.730732 152.75239 
C 77.955772 152.75239 72.416563 155.046806 68.33305 159.130319 
C 64.249538 163.213831 61.955122 168.753041 61.955122 174.528 
C 61.955122 180.302959 64.249538 185.842169 68.33305 189.925681 
C 72.416563 194.009194 77.955772 196.30361 83.730732 196.30361 
z
" clip-path="url(#p942023e863)" style="fill: #313695; stroke: #ffffff; stroke-linejoin: miter"/>
   </g>
   <g id="patch_3">
    <path d="M 127.281951 196.30361 
C 133.05691 196.30361 138.59612 194.009194 142.679633 189.925681 
C 146.763145 185.842169 149.057561 180.302959 149.057561 174.528 
C 149.057561 168.753041 146.763145 163.213831 142.679633 159.130319 
C 138.59612 155.046806 133.05691 152.75239 127.281951 152.75239 
C 121.506992 152.75239 115.967783 155.046806 111.88427 159.130319 
C 107.800757 163.213831 105.506341 168.753041 105.506341 174.528 
C 105.506341 180.302959 107.800757 185.842169 111.88427 189.925681 
C 115.967783 194.009194 121.506992 196.30361 127.281951 196.30361 
z
" clip-path="url(#p942023e863)" style="fill: #6399c7; stroke: #ffffff; stroke-linejoin: miter"/>
   </g>
   <g id="patch_4">
    <path d="M 170.833171 196.30361 
C 176.60813 196.30361 182.147339 194.009194 186.230852 189.925681 
C 190.314365 185.842169 192.60878 180.302959 192.60878 174.528 
C 192.60878 168.753041 190.314365 163.213831 186.230852 159.130319 
C 182.147339 155.046806 176.60813 152.75239 170.833171 152.75239 
C 165.058212 152.75239 159.519002 155.046806 155.435489 159.130319 
C 151.351977 163.213831 149.057561 168.753041 149.057561 174.528 
C 149.057561 180.302959 151.351977 185.842169 155.435489 189.925681 
C 159.519002 194.009194 165.058212 196.30361 170.833171 196.30361 
z
" clip-path="url(#p942023e863)" style="fill: #bde2ee; stroke: #ffffff; stroke-linejoin: miter"/>
   </g>
   <g id="patch_5">
    <path d="M 214.38439 196.30361 
C 220.159349 196.30361 225.698559 194.009194 229.782072 189.925681 
C 233.865584 185.842169 236.16 180.302959 236.16 174.528 
C 236.16 168.753041 233.865584 163.213831 229.782072 159.130319 
C 225.698559 155.046806 220.159349 152.75239 214.38439 152.75239 
C 208.609431 152.75239 203.070222 155.046806 198.986709 159.130319 
C 194.903196 163.213831 192.60878 168.753041 192.60878 174.528 
C 192.60878 180.302959 194.903196 185.842169 198.986709 189.925681 
C 203.070222 194.009194 208.609431 196.30361 214.38439 196.30361 
z
" clip-path="url(#p942023e863)" style="fill: #fffebe; stroke: #ffffff; stroke-linejoin: miter"/>
   </g>
   <g id="patch_6">
    <path d="M 257.93561 196.30361 
C 263.710569 196.30361 269.249778 194.009194 273.333291 189.925681 
C 277.416804 185.842169 279.71122 180.302959 279.71122 174.528 
C 279.71122 168.753041 277.416804 163.213831 273.333291 159.130319 
C 269.249778 155.046806 263.710569 152.75239 257.93561 152.75239 
C 252.160651 152.75239 246.621441 155.046806 242.537928 159.130319 
C 238.454416 163.213831 236.16 168.753041 236.16 174.528 
C 236.16 180.302959 238.454416 185.842169 242.537928 189.925681 
C 246.621441 194.009194 252.160651 196.30361 257.93561 196.30361 
z
" clip-path="url(#p942023e863)" style="fill: #fdbf71; stroke: #ffffff; stroke-linejoin: miter"/>
   </g>
   <g id="patch_7">
    <path d="M 301.486829 196.30361 
C 307.261788 196.30361 312.800998 194.009194 316.884511 189.925681 
C 320.968023 185.842169 323.262439 180.302959 323.262439 174.528 
C 323.262439 168.753041 320.968023 163.213831 316.884511 159.130319 
C 312.800998 155.046806 307.261788 152.75239 301.486829 152.75239 
C 295.71187 152.75239 290.172661 155.046806 286.089148 159.130319 
C 282.005635 163.213831 279.71122 168.753041 279.71122 174.528 
C 279.71122 180.302959 282.005635 185.842169 286.089148 189.925681 
C 290.172661 194.009194 295.71187 196.30361 301.486829 196.30361 
z
" clip-path="url(#p942023e863)" style="fill: #ea5739; stroke: #ffffff; stroke-linejoin: miter"/>
   </g>
   <g id="patch_8">
    <path d="M 345.038049 196.30361 
C 350.813008 196.30361 356.352217 194.009194 360.43573 189.925681 
C 364.519243 185.842169 366.813659 180.302959 366.813659 174.528 
C 366.813659 168.753041 364.519243 163.213831 360.43573 159.130319 
C 356.352217 155.046806 350.813008 152.75239 345.038049 152.75239 
C 339.26309 152.75239 333.72388 155.046806 329.640367 159.130319 
C 325.556855 163.213831 323.262439 168.753041 323.262439 174.528 
C 323.262439 180.302959 325.556855 185.842169 329.640367 189.925681 
C 333.72388 194.009194 339.26309 196.30361 345.038049 196.30361 
z
" clip-path="url(#p942023e863)" style="fill: #a50026; stroke: #ffffff; stroke-linejoin: miter"/>
   </g>
   <g id="text_1">
    <!-- -3 -->
    <g style="fill: #262626" transform="translate(79.285419 177.113156) scale(0.1 -0.1)">
     <defs>
      <path id="ArialMT-2d" d="M 203 1375 
L 203 1941 
L 1931 1941 
L 1931 1375 
L 203 1375 
z
" transform="scale(0.015625)"/>
      <path id="ArialMT-33" d="M 269 1209 
L 831 1284 
Q 928 806 1161 595 
Q 1394 384 1728 384 
Q 2125 384 2398 659 
Q 2672 934 2672 1341 
Q 2672 1728 2419 1979 
Q 2166 2231 1775 2231 
Q 1616 2231 1378 2169 
L 1441 2663 
Q 1497 2656 1531 2656 
Q 1891 2656 2178 2843 
Q 2466 3031 2466 3422 
Q 2466 3731 2256 3934 
Q 2047 4138 1716 4138 
Q 1388 4138 1169 3931 
Q 950 3725 888 3313 
L 325 3413 
Q 428 3978 793 4289 
Q 1159 4600 1703 4600 
Q 2078 4600 2393 4439 
Q 2709 4278 2876 4000 
Q 3044 3722 3044 3409 
Q 3044 3113 2884 2869 
Q 2725 2625 2413 2481 
Q 2819 2388 3044 2092 
Q 3269 1797 3269 1353 
Q 3269 753 2831 336 
Q 2394 -81 1725 -81 
Q 1122 -81 723 278 
Q 325 638 269 1209 
z
" transform="scale(0.015625)"/>
     </defs>
     <use xlink:href="#ArialMT-2d"/>
     <use xlink:href="#ArialMT-33" x="33.300781"/>
    </g>
   </g>
   <g id="text_2">
    <!-- -2 -->
    <g style="fill: #262626" transform="translate(122.836639 177.113156) scale(0.1 -0.1)">
     <defs>
      <path id="ArialMT-32" d="M 3222 541 
L 3222 0 
L 194 0 
Q 188 203 259 391 
Q 375 700 629 1000 
Q 884 1300 1366 1694 
Q 2113 2306 2375 2664 
Q 2638 3022 2638 3341 
Q 2638 3675 2398 3904 
Q 2159 4134 1775 4134 
Q 1369 4134 1125 3890 
Q 881 3647 878 3216 
L 300 3275 
Q 359 3922 746 4261 
Q 1134 4600 1788 4600 
Q 2447 4600 2831 4234 
Q 3216 3869 3216 3328 
Q 3216 3053 3103 2787 
Q 2991 2522 2730 2228 
Q 2469 1934 1863 1422 
Q 1356 997 1212 845 
Q 1069 694 975 541 
L 3222 541 
z
" transform="scale(0.015625)"/>
     </defs>
     <use xlink:href="#ArialMT-2d"/>
     <use xlink:href="#ArialMT-32" x="33.300781"/>
    </g>
   </g>
   <g id="text_3">
    <!-- -1 -->
    <g style="fill: #262626" transform="translate(166.387858 177.113156) scale(0.1 -0.1)">
     <defs>
      <path id="ArialMT-31" d="M 2384 0 
L 1822 0 
L 1822 3584 
Q 1619 3391 1289 3197 
Q 959 3003 697 2906 
L 697 3450 
Q 1169 3672 1522 3987 
Q 1875 4303 2022 4600 
L 2384 4600 
L 2384 0 
z
" transform="scale(0.015625)"/>
     </defs>
     <use xlink:href="#ArialMT-2d"/>
     <use xlink:href="#ArialMT-31" x="33.300781"/>
    </g>
   </g>
   <g id="text_4">
    <!-- 0 -->
    <g style="fill: #262626" transform="translate(211.603921 177.113156) scale(0.1 -0.1)">
     <defs>
      <path id="ArialMT-30" d="M 266 2259 
Q 266 3072 433 3567 
Q 600 4063 929 4331 
Q 1259 4600 1759 4600 
Q 2128 4600 2406 4451 
Q 2684 4303 2865 4023 
Q 3047 3744 3150 3342 
Q 3253 2941 3253 2259 
Q 3253 1453 3087 958 
Q 2922 463 2592 192 
Q 2263 -78 1759 -78 
Q 1097 -78 719 397 
Q 266 969 266 2259 
z
M 844 2259 
Q 844 1131 1108 757 
Q 1372 384 1759 384 
Q 2147 384 2411 759 
Q 2675 1134 2675 2259 
Q 2675 3391 2411 3762 
Q 2147 4134 1753 4134 
Q 1366 4134 1134 3806 
Q 844 3388 844 2259 
z
" transform="scale(0.015625)"/>
     </defs>
     <use xlink:href="#ArialMT-30"/>
    </g>
   </g>
   <g id="text_5">
    <!-- 1 -->
    <g style="fill: #262626" transform="translate(255.155141 177.113156) scale(0.1 -0.1)">
     <use xlink:href="#ArialMT-31"/>
    </g>
   </g>
   <g id="text_6">
    <!-- 2 -->
    <g style="fill: #262626" transform="translate(298.706361 177.113156) scale(0.1 -0.1)">
     <use xlink:href="#ArialMT-32"/>
    </g>
   </g>
   <g id="text_7">
    <!-- 3 -->
    <g style="fill: #262626" transform="translate(342.25758 177.113156) scale(0.1 -0.1)">
     <use xlink:href="#ArialMT-33"/>
    </g>
   </g>
  </g>
 </g>
 <defs>
  <clipPath id="p942023e863">
   <rect x="57.6" y="148.397268" width="357.12" height="52.261463"/>
  </clipPath>
 </defs>
</svg>
