<?xml version="1.0" encoding="utf-8" standalone="no"?>
<!DOCTYPE svg PUBLIC "-//W3C//DTD SVG 1.1//EN"
  "http://www.w3.org/Graphics/SVG/1.1/DTD/svg11.dtd">
<svg xmlns:xlink="http://www.w3.org/1999/xlink" width="144pt" height="72pt" viewBox="0 0 144 72" xmlns="http://www.w3.org/2000/svg" version="1.1">
 <metadata>
  <rdf:RDF xmlns:dc="http://purl.org/dc/elements/1.1/" xmlns:cc="http://creativecommons.org/ns#" xmlns:rdf="http://www.w3.org/1999/02/22-rdf-syntax-ns#">
   <cc:Work>
    <dc:type rdf:resource="http://purl.org/dc/dcmitype/StillImage"/>
    <dc:date>2024-12-02T11:26:45.508360</dc:date>
    <dc:format>image/svg+xml</dc:format>
    <dc:creator>
     <cc:Agent>
      <dc:title>Matplotlib v3.9.3, https://matplotlib.org/</dc:title>
     </cc:Agent>
    </dc:creator>
   </cc:Work>
  </rdf:RDF>
 </metadata>
 <defs>
  <style type="text/css">*{stroke-linejoin: round; stroke-linecap: butt}</style>
 </defs>
 <g id="figure_1">
  <g id="patch_1">
   <path d="M 0 72 
L 144 72 
L 144 0 
L 0 0 
z
" style="fill: #ffffff"/>
  </g>
  <g id="axes_1">
   <g id="patch_2">
    <path d="M 32.22 64.08 
L 115.38 64.08 
L 115.38 8.64 
L 32.22 8.64 
z
" style="fill: #eaeaf2"/>
   </g>
   <g id="matplotlib.axis_1"/>
   <g id="matplotlib.axis_2"/>
   <g id="QuadMesh_1">
    <path d="M 32.22 8.64 
L 59.94 8.64 
L 59.94 36.36 
L 32.22 36.36 
L 32.22 8.64 
" clip-path="url(#p452f02bf1f)" style="fill: #313695; stroke: #ffffff; stroke-width: 0.5"/>
    <path d="M 59.94 8.64 
L 87.66 8.64 
L 87.66 36.36 
L 59.94 36.36 
L 59.94 8.64 
" clip-path="url(#p452f02bf1f)" style="fill: #6399c7; stroke: #ffffff; stroke-width: 0.5"/>
    <path d="M 87.66 8.64 
L 115.38 8.64 
L 115.38 36.36 
L 87.66 36.36 
L 87.66 8.64 
" clip-path="url(#p452f02bf1f)" style="fill: #bde2ee; stroke: #ffffff; stroke-width: 0.5"/>
    <path d="M 32.22 36.36 
L 59.94 36.36 
L 59.94 64.08 
L 32.22 64.08 
L 32.22 36.36 
" clip-path="url(#p452f02bf1f)" style="fill: #fffebe; stroke: #ffffff; stroke-width: 0.5"/>
    <path d="M 59.94 36.36 
L 87.66 36.36 
L 87.66 64.08 
L 59.94 64.08 
L 59.94 36.36 
" clip-path="url(#p452f02bf1f)" style="fill: #fdbf71; stroke: #ffffff; stroke-width: 0.5"/>
    <path d="M 87.66 36.36 
L 115.38 36.36 
L 115.38 64.08 
L 87.66 64.08 
L 87.66 36.36 
" clip-path="url(#p452f02bf1f)" style="fill: #ea5739; stroke: #ffffff; stroke-width: 0.5"/>
   </g>
   <g id="text_1">
    <!-- -3 -->
    <g style="fill: #ffffff" transform="translate(41.634687 25.085156) scale(0.1 -0.1)">
     <defs>
      <path id="ArialMT-2d" d="M 203 1375 
L 203 1941 
L 1931 1941 
L 1931 1375 
L 203 1375 
z
" transform="scale(0.015625)"/>
      <path id="ArialMT-33" d="M 269 1209 
L 831 1284 
Q 928 806 1161 595 
Q 1394 384 1728 384 
Q 2125 384 2398 659 
Q 2672 934 2672 1341 
Q 2672 1728 2419 1979 
Q 2166 2231 1775 2231 
Q 1616 2231 1378 2169 
L 1441 2663 
Q 1497 2656 1531 2656 
Q 1891 2656 2178 2843 
Q 2466 3031 2466 3422 
Q 2466 3731 2256 3934 
Q 2047 4138 1716 4138 
Q 1388 4138 1169 3931 
Q 950 3725 888 3313 
L 325 3413 
Q 428 3978 793 4289 
Q 1159 4600 1703 4600 
Q 2078 4600 2393 4439 
Q 2709 4278 2876 4000 
Q 3044 3722 3044 3409 
Q 3044 3113 2884 2869 
Q 2725 2625 2413 2481 
Q 2819 2388 3044 2092 
Q 3269 1797 3269 1353 
Q 3269 753 2831 336 
Q 2394 -81 1725 -81 
Q 1122 -81 723 278 
Q 325 638 269 1209 
z
" transform="scale(0.015625)"/>
     </defs>
     <use xlink:href="#ArialMT-2d"/>
     <use xlink:href="#ArialMT-33" x="33.300781"/>
    </g>
   </g>
   <g id="text_2">
    <!-- -2 -->
    <g style="fill: #ffffff" transform="translate(69.354687 25.085156) scale(0.1 -0.1)">
     <defs>
      <path id="ArialMT-32" d="M 3222 541 
L 3222 0 
L 194 0 
Q 188 203 259 391 
Q 375 700 629 1000 
Q 884 1300 1366 1694 
Q 2113 2306 2375 2664 
Q 2638 3022 2638 3341 
Q 2638 3675 2398 3904 
Q 2159 4134 1775 4134 
Q 1369 4134 1125 3890 
Q 881 3647 878 3216 
L 300 3275 
Q 359 3922 746 4261 
Q 1134 4600 1788 4600 
Q 2447 4600 2831 4234 
Q 3216 3869 3216 3328 
Q 3216 3053 3103 2787 
Q 2991 2522 2730 2228 
Q 2469 1934 1863 1422 
Q 1356 997 1212 845 
Q 1069 694 975 541 
L 3222 541 
z
" transform="scale(0.015625)"/>
     </defs>
     <use xlink:href="#ArialMT-2d"/>
     <use xlink:href="#ArialMT-32" x="33.300781"/>
    </g>
   </g>
   <g id="text_3">
    <!-- -1 -->
    <g style="fill: #262626" transform="translate(97.074687 25.085156) scale(0.1 -0.1)">
     <defs>
      <path id="ArialMT-31" d="M 2384 0 
L 1822 0 
L 1822 3584 
Q 1619 3391 1289 3197 
Q 959 3003 697 2906 
L 697 3450 
Q 1169 3672 1522 3987 
Q 1875 4303 2022 4600 
L 2384 4600 
L 2384 0 
z
" transform="scale(0.015625)"/>
     </defs>
     <use xlink:href="#ArialMT-2d"/>
     <use xlink:href="#ArialMT-31" x="33.300781"/>
    </g>
   </g>
   <g id="text_4">
    <!-- 0 -->
    <g style="fill: #262626" transform="translate(43.299531 52.805156) scale(0.1 -0.1)">
     <defs>
      <path id="ArialMT-30" d="M 266 2259 
Q 266 3072 433 3567 
Q 600 4063 929 4331 
Q 1259 4600 1759 4600 
Q 2128 4600 2406 4451 
Q 2684 4303 2865 4023 
Q 3047 3744 3150 3342 
Q 3253 2941 3253 2259 
Q 3253 1453 3087 958 
Q 2922 463 2592 192 
Q 2263 -78 1759 -78 
Q 1097 -78 719 397 
Q 266 969 266 2259 
z
M 844 2259 
Q 844 1131 1108 757 
Q 1372 384 1759 384 
Q 2147 384 2411 759 
Q 2675 1134 2675 2259 
Q 2675 3391 2411 3762 
Q 2147 4134 1753 4134 
Q 1366 4134 1134 3806 
Q 844 3388 844 2259 
z
" transform="scale(0.015625)"/>
     </defs>
     <use xlink:href="#ArialMT-30"/>
    </g>
   </g>
   <g id="text_5">
    <!-- 1 -->
    <g style="fill: #262626" transform="translate(71.019531 52.805156) scale(0.1 -0.1)">
     <use xlink:href="#ArialMT-31"/>
    </g>
   </g>
   <g id="text_6">
    <!-- 2 -->
    <g style="fill: #ffffff" transform="translate(98.739531 52.805156) scale(0.1 -0.1)">
     <use xlink:href="#ArialMT-32"/>
    </g>
   </g>
  </g>
 </g>
 <defs>
  <clipPath id="p452f02bf1f">
   <rect x="32.22" y="8.64" width="83.16" height="55.44"/>
  </clipPath>
 </defs>
</svg>
