<?xml version="1.0" encoding="utf-8" standalone="no"?>
<!DOCTYPE svg PUBLIC "-//W3C//DTD SVG 1.1//EN"
  "http://www.w3.org/Graphics/SVG/1.1/DTD/svg11.dtd">
<svg xmlns:xlink="http://www.w3.org/1999/xlink" width="460.8pt" height="345.6pt" viewBox="0 0 460.8 345.6" xmlns="http://www.w3.org/2000/svg" version="1.1">
 <metadata>
  <rdf:RDF xmlns:dc="http://purl.org/dc/elements/1.1/" xmlns:cc="http://creativecommons.org/ns#" xmlns:rdf="http://www.w3.org/1999/02/22-rdf-syntax-ns#">
   <cc:Work>
    <dc:type rdf:resource="http://purl.org/dc/dcmitype/StillImage"/>
    <dc:date>2024-12-06T00:09:53.881491</dc:date>
    <dc:format>image/svg+xml</dc:format>
    <dc:creator>
     <cc:Agent>
      <dc:title>Matplotlib v3.9.3, https://matplotlib.org/</dc:title>
     </cc:Agent>
    </dc:creator>
   </cc:Work>
  </rdf:RDF>
 </metadata>
 <defs>
  <style type="text/css">*{stroke-linejoin: round; stroke-linecap: butt}</style>
 </defs>
 <g id="figure_1">
  <g id="patch_1">
   <path d="M 0 345.6 
L 460.8 345.6 
L 460.8 0 
L 0 0 
z
" style="fill: #ffffff"/>
  </g>
  <g id="axes_1">
   <g id="patch_2">
    <path d="M 70.826667 185.550222 
C 73.749794 185.550222 76.553591 184.388851 78.620555 182.321888 
C 80.687518 180.254925 81.848889 177.451128 81.848889 174.528 
C 81.848889 171.604872 80.687518 168.801075 78.620555 166.734112 
C 76.553591 164.667149 73.749794 163.505778 70.826667 163.505778 
C 67.903539 163.505778 65.099742 164.667149 63.032779 166.734112 
C 60.965815 168.801075 59.804444 171.604872 59.804444 174.528 
C 59.804444 177.451128 60.965815 180.254925 63.032779 182.321888 
C 65.099742 184.388851 67.903539 185.550222 70.826667 185.550222 
z
" clip-path="url(#pa935f0ce34)" style="fill: #313695; stroke: #ffffff; stroke-linejoin: miter"/>
   </g>
   <g id="patch_3">
    <path d="M 92.871111 185.550222 
C 95.794239 185.550222 98.598036 184.388851 100.664999 182.321888 
C 102.731962 180.254925 103.893333 177.451128 103.893333 174.528 
C 103.893333 171.604872 102.731962 168.801075 100.664999 166.734112 
C 98.598036 164.667149 95.794239 163.505778 92.871111 163.505778 
C 89.947984 163.505778 87.144186 164.667149 85.077223 166.734112 
C 83.01026 168.801075 81.848889 171.604872 81.848889 174.528 
C 81.848889 177.451128 83.01026 180.254925 85.077223 182.321888 
C 87.144186 184.388851 89.947984 185.550222 92.871111 185.550222 
z
" clip-path="url(#pa935f0ce34)" style="fill: #3f62ab; stroke: #ffffff; stroke-linejoin: miter"/>
   </g>
   <g id="patch_4">
    <path d="M 114.915556 185.550222 
C 117.838683 185.550222 120.64248 184.388851 122.709444 182.321888 
C 124.776407 180.254925 125.937778 177.451128 125.937778 174.528 
C 125.937778 171.604872 124.776407 168.801075 122.709444 166.734112 
C 120.64248 164.667149 117.838683 163.505778 114.915556 163.505778 
C 111.992428 163.505778 109.188631 164.667149 107.121667 166.734112 
C 105.054704 168.801075 103.893333 171.604872 103.893333 174.528 
C 103.893333 177.451128 105.054704 180.254925 107.121667 182.321888 
C 109.188631 184.388851 111.992428 185.550222 114.915556 185.550222 
z
" clip-path="url(#pa935f0ce34)" style="fill: #588cc0; stroke: #ffffff; stroke-linejoin: miter"/>
   </g>
   <g id="patch_5">
    <path d="M 136.96 185.550222 
C 139.883128 185.550222 142.686925 184.388851 144.753888 182.321888 
C 146.820851 180.254925 147.982222 177.451128 147.982222 174.528 
C 147.982222 171.604872 146.820851 168.801075 144.753888 166.734112 
C 142.686925 164.667149 139.883128 163.505778 136.96 163.505778 
C 134.036872 163.505778 131.233075 164.667149 129.166112 166.734112 
C 127.099149 168.801075 125.937778 171.604872 125.937778 174.528 
C 125.937778 177.451128 127.099149 180.254925 129.166112 182.321888 
C 131.233075 184.388851 134.036872 185.550222 136.96 185.550222 
z
" clip-path="url(#pa935f0ce34)" style="fill: #7ab2d4; stroke: #ffffff; stroke-linejoin: miter"/>
   </g>
   <g id="patch_6">
    <path d="M 159.004444 185.550222 
C 161.927572 185.550222 164.731369 184.388851 166.798333 182.321888 
C 168.865296 180.254925 170.026667 177.451128 170.026667 174.528 
C 170.026667 171.604872 168.865296 168.801075 166.798333 166.734112 
C 164.731369 164.667149 161.927572 163.505778 159.004444 163.505778 
C 156.081317 163.505778 153.27752 164.667149 151.210556 166.734112 
C 149.143593 168.801075 147.982222 171.604872 147.982222 174.528 
C 147.982222 177.451128 149.143593 180.254925 151.210556 182.321888 
C 153.27752 184.388851 156.081317 185.550222 159.004444 185.550222 
z
" clip-path="url(#pa935f0ce34)" style="fill: #a3d3e6; stroke: #ffffff; stroke-linejoin: miter"/>
   </g>
   <g id="patch_7">
    <path d="M 181.048889 185.550222 
C 183.972016 185.550222 186.775814 184.388851 188.842777 182.321888 
C 190.90974 180.254925 192.071111 177.451128 192.071111 174.528 
C 192.071111 171.604872 190.90974 168.801075 188.842777 166.734112 
C 186.775814 164.667149 183.972016 163.505778 181.048889 163.505778 
C 178.125761 163.505778 175.321964 164.667149 173.255001 166.734112 
C 171.188038 168.801075 170.026667 171.604872 170.026667 174.528 
C 170.026667 177.451128 171.188038 180.254925 173.255001 182.321888 
C 175.321964 184.388851 178.125761 185.550222 181.048889 185.550222 
z
" clip-path="url(#pa935f0ce34)" style="fill: #c9e8f2; stroke: #ffffff; stroke-linejoin: miter"/>
   </g>
   <g id="patch_8">
    <path d="M 203.093333 185.550222 
C 206.016461 185.550222 208.820258 184.388851 210.887221 182.321888 
C 212.954185 180.254925 214.115556 177.451128 214.115556 174.528 
C 214.115556 171.604872 212.954185 168.801075 210.887221 166.734112 
C 208.820258 164.667149 206.016461 163.505778 203.093333 163.505778 
C 200.170206 163.505778 197.366409 164.667149 195.299445 166.734112 
C 193.232482 168.801075 192.071111 171.604872 192.071111 174.528 
C 192.071111 177.451128 193.232482 180.254925 195.299445 182.321888 
C 197.366409 184.388851 200.170206 185.550222 203.093333 185.550222 
z
" clip-path="url(#pa935f0ce34)" style="fill: #e9f6e8; stroke: #ffffff; stroke-linejoin: miter"/>
   </g>
   <g id="patch_9">
    <path d="M 225.137778 185.550222 
C 228.060905 185.550222 230.864703 184.388851 232.931666 182.321888 
C 234.998629 180.254925 236.16 177.451128 236.16 174.528 
C 236.16 171.604872 234.998629 168.801075 232.931666 166.734112 
C 230.864703 164.667149 228.060905 163.505778 225.137778 163.505778 
C 222.21465 163.505778 219.410853 164.667149 217.34389 166.734112 
C 215.276926 168.801075 214.115556 171.604872 214.115556 174.528 
C 214.115556 177.451128 215.276926 180.254925 217.34389 182.321888 
C 219.410853 184.388851 222.21465 185.550222 225.137778 185.550222 
z
" clip-path="url(#pa935f0ce34)" style="fill: #fffebe; stroke: #ffffff; stroke-linejoin: miter"/>
   </g>
   <g id="patch_10">
    <path d="M 247.182222 185.550222 
C 250.10535 185.550222 252.909147 184.388851 254.97611 182.321888 
C 257.043074 180.254925 258.204444 177.451128 258.204444 174.528 
C 258.204444 171.604872 257.043074 168.801075 254.97611 166.734112 
C 252.909147 164.667149 250.10535 163.505778 247.182222 163.505778 
C 244.259095 163.505778 241.455297 164.667149 239.388334 166.734112 
C 237.321371 168.801075 236.16 171.604872 236.16 174.528 
C 236.16 177.451128 237.321371 180.254925 239.388334 182.321888 
C 241.455297 184.388851 244.259095 185.550222 247.182222 185.550222 
z
" clip-path="url(#pa935f0ce34)" style="fill: #fee99d; stroke: #ffffff; stroke-linejoin: miter"/>
   </g>
   <g id="patch_11">
    <path d="M 269.226667 185.550222 
C 272.149794 185.550222 274.953591 184.388851 277.020555 182.321888 
C 279.087518 180.254925 280.248889 177.451128 280.248889 174.528 
C 280.248889 171.604872 279.087518 168.801075 277.020555 166.734112 
C 274.953591 164.667149 272.149794 163.505778 269.226667 163.505778 
C 266.303539 163.505778 263.499742 164.667149 261.432779 166.734112 
C 259.365815 168.801075 258.204444 171.604872 258.204444 174.528 
C 258.204444 177.451128 259.365815 180.254925 261.432779 182.321888 
C 263.499742 184.388851 266.303539 185.550222 269.226667 185.550222 
z
" clip-path="url(#pa935f0ce34)" style="fill: #feca7c; stroke: #ffffff; stroke-linejoin: miter"/>
   </g>
   <g id="patch_12">
    <path d="M 291.271111 185.550222 
C 294.194239 185.550222 296.998036 184.388851 299.064999 182.321888 
C 301.131962 180.254925 302.293333 177.451128 302.293333 174.528 
C 302.293333 171.604872 301.131962 168.801075 299.064999 166.734112 
C 296.998036 164.667149 294.194239 163.505778 291.271111 163.505778 
C 288.347984 163.505778 285.544186 164.667149 283.477223 166.734112 
C 281.41026 168.801075 280.248889 171.604872 280.248889 174.528 
C 280.248889 177.451128 281.41026 180.254925 283.477223 182.321888 
C 285.544186 184.388851 288.347984 185.550222 291.271111 185.550222 
z
" clip-path="url(#pa935f0ce34)" style="fill: #fca55d; stroke: #ffffff; stroke-linejoin: miter"/>
   </g>
   <g id="patch_13">
    <path d="M 313.315556 185.550222 
C 316.238683 185.550222 319.04248 184.388851 321.109444 182.321888 
C 323.176407 180.254925 324.337778 177.451128 324.337778 174.528 
C 324.337778 171.604872 323.176407 168.801075 321.109444 166.734112 
C 319.04248 164.667149 316.238683 163.505778 313.315556 163.505778 
C 310.392428 163.505778 307.588631 164.667149 305.521667 166.734112 
C 303.454704 168.801075 302.293333 171.604872 302.293333 174.528 
C 302.293333 177.451128 303.454704 180.254925 305.521667 182.321888 
C 307.588631 184.388851 310.392428 185.550222 313.315556 185.550222 
z
" clip-path="url(#pa935f0ce34)" style="fill: #f57547; stroke: #ffffff; stroke-linejoin: miter"/>
   </g>
   <g id="patch_14">
    <path d="M 335.36 185.550222 
C 338.283128 185.550222 341.086925 184.388851 343.153888 182.321888 
C 345.220851 180.254925 346.382222 177.451128 346.382222 174.528 
C 346.382222 171.604872 345.220851 168.801075 343.153888 166.734112 
C 341.086925 164.667149 338.283128 163.505778 335.36 163.505778 
C 332.436872 163.505778 329.633075 164.667149 327.566112 166.734112 
C 325.499149 168.801075 324.337778 171.604872 324.337778 174.528 
C 324.337778 177.451128 325.499149 180.254925 327.566112 182.321888 
C 329.633075 184.388851 332.436872 185.550222 335.36 185.550222 
z
" clip-path="url(#pa935f0ce34)" style="fill: #e34933; stroke: #ffffff; stroke-linejoin: miter"/>
   </g>
   <g id="patch_15">
    <path d="M 357.404444 185.550222 
C 360.327572 185.550222 363.131369 184.388851 365.198333 182.321888 
C 367.265296 180.254925 368.426667 177.451128 368.426667 174.528 
C 368.426667 171.604872 367.265296 168.801075 365.198333 166.734112 
C 363.131369 164.667149 360.327572 163.505778 357.404444 163.505778 
C 354.481317 163.505778 351.67752 164.667149 349.610556 166.734112 
C 347.543593 168.801075 346.382222 171.604872 346.382222 174.528 
C 346.382222 177.451128 347.543593 180.254925 349.610556 182.321888 
C 351.67752 184.388851 354.481317 185.550222 357.404444 185.550222 
z
" clip-path="url(#pa935f0ce34)" style="fill: #c82227; stroke: #ffffff; stroke-linejoin: miter"/>
   </g>
   <g id="patch_16">
    <path d="M 379.448889 185.550222 
C 382.372016 185.550222 385.175814 184.388851 387.242777 182.321888 
C 389.30974 180.254925 390.471111 177.451128 390.471111 174.528 
C 390.471111 171.604872 389.30974 168.801075 387.242777 166.734112 
C 385.175814 164.667149 382.372016 163.505778 379.448889 163.505778 
C 376.525761 163.505778 373.721964 164.667149 371.655001 166.734112 
C 369.588038 168.801075 368.426667 171.604872 368.426667 174.528 
C 368.426667 177.451128 369.588038 180.254925 371.655001 182.321888 
C 373.721964 184.388851 376.525761 185.550222 379.448889 185.550222 
z
" clip-path="url(#pa935f0ce34)" style="fill: #a50026; stroke: #ffffff; stroke-linejoin: miter"/>
   </g>
   <g id="text_1">
    <!-- -7 -->
    <g style="fill: #262626" transform="translate(66.381354 177.113156) scale(0.1 -0.1)">
     <defs>
      <path id="ArialMT-2d" d="M 203 1375 
L 203 1941 
L 1931 1941 
L 1931 1375 
L 203 1375 
z
" transform="scale(0.015625)"/>
      <path id="ArialMT-37" d="M 303 3981 
L 303 4522 
L 3269 4522 
L 3269 4084 
Q 2831 3619 2401 2847 
Q 1972 2075 1738 1259 
Q 1569 684 1522 0 
L 944 0 
Q 953 541 1156 1306 
Q 1359 2072 1739 2783 
Q 2119 3494 2547 3981 
L 303 3981 
z
" transform="scale(0.015625)"/>
     </defs>
     <use xlink:href="#ArialMT-2d"/>
     <use xlink:href="#ArialMT-37" x="33.300781"/>
    </g>
   </g>
   <g id="text_2">
    <!-- -6 -->
    <g style="fill: #262626" transform="translate(88.425799 177.113156) scale(0.1 -0.1)">
     <defs>
      <path id="ArialMT-36" d="M 3184 3459 
L 2625 3416 
Q 2550 3747 2413 3897 
Q 2184 4138 1850 4138 
Q 1581 4138 1378 3988 
Q 1113 3794 959 3422 
Q 806 3050 800 2363 
Q 1003 2672 1297 2822 
Q 1591 2972 1913 2972 
Q 2475 2972 2870 2558 
Q 3266 2144 3266 1488 
Q 3266 1056 3080 686 
Q 2894 316 2569 119 
Q 2244 -78 1831 -78 
Q 1128 -78 684 439 
Q 241 956 241 2144 
Q 241 3472 731 4075 
Q 1159 4600 1884 4600 
Q 2425 4600 2770 4297 
Q 3116 3994 3184 3459 
z
M 888 1484 
Q 888 1194 1011 928 
Q 1134 663 1356 523 
Q 1578 384 1822 384 
Q 2178 384 2434 671 
Q 2691 959 2691 1453 
Q 2691 1928 2437 2201 
Q 2184 2475 1800 2475 
Q 1419 2475 1153 2201 
Q 888 1928 888 1484 
z
" transform="scale(0.015625)"/>
     </defs>
     <use xlink:href="#ArialMT-2d"/>
     <use xlink:href="#ArialMT-36" x="33.300781"/>
    </g>
   </g>
   <g id="text_3">
    <!-- -5 -->
    <g style="fill: #262626" transform="translate(110.470243 177.113156) scale(0.1 -0.1)">
     <defs>
      <path id="ArialMT-35" d="M 266 1200 
L 856 1250 
Q 922 819 1161 601 
Q 1400 384 1738 384 
Q 2144 384 2425 690 
Q 2706 997 2706 1503 
Q 2706 1984 2436 2262 
Q 2166 2541 1728 2541 
Q 1456 2541 1237 2417 
Q 1019 2294 894 2097 
L 366 2166 
L 809 4519 
L 3088 4519 
L 3088 3981 
L 1259 3981 
L 1013 2750 
Q 1425 3038 1878 3038 
Q 2478 3038 2890 2622 
Q 3303 2206 3303 1553 
Q 3303 931 2941 478 
Q 2500 -78 1738 -78 
Q 1113 -78 717 272 
Q 322 622 266 1200 
z
" transform="scale(0.015625)"/>
     </defs>
     <use xlink:href="#ArialMT-2d"/>
     <use xlink:href="#ArialMT-35" x="33.300781"/>
    </g>
   </g>
   <g id="text_4">
    <!-- -4 -->
    <g style="fill: #262626" transform="translate(132.514687 177.113156) scale(0.1 -0.1)">
     <defs>
      <path id="ArialMT-34" d="M 2069 0 
L 2069 1097 
L 81 1097 
L 81 1613 
L 2172 4581 
L 2631 4581 
L 2631 1613 
L 3250 1613 
L 3250 1097 
L 2631 1097 
L 2631 0 
L 2069 0 
z
M 2069 1613 
L 2069 3678 
L 634 1613 
L 2069 1613 
z
" transform="scale(0.015625)"/>
     </defs>
     <use xlink:href="#ArialMT-2d"/>
     <use xlink:href="#ArialMT-34" x="33.300781"/>
    </g>
   </g>
   <g id="text_5">
    <!-- -3 -->
    <g style="fill: #262626" transform="translate(154.559132 177.113156) scale(0.1 -0.1)">
     <defs>
      <path id="ArialMT-33" d="M 269 1209 
L 831 1284 
Q 928 806 1161 595 
Q 1394 384 1728 384 
Q 2125 384 2398 659 
Q 2672 934 2672 1341 
Q 2672 1728 2419 1979 
Q 2166 2231 1775 2231 
Q 1616 2231 1378 2169 
L 1441 2663 
Q 1497 2656 1531 2656 
Q 1891 2656 2178 2843 
Q 2466 3031 2466 3422 
Q 2466 3731 2256 3934 
Q 2047 4138 1716 4138 
Q 1388 4138 1169 3931 
Q 950 3725 888 3313 
L 325 3413 
Q 428 3978 793 4289 
Q 1159 4600 1703 4600 
Q 2078 4600 2393 4439 
Q 2709 4278 2876 4000 
Q 3044 3722 3044 3409 
Q 3044 3113 2884 2869 
Q 2725 2625 2413 2481 
Q 2819 2388 3044 2092 
Q 3269 1797 3269 1353 
Q 3269 753 2831 336 
Q 2394 -81 1725 -81 
Q 1122 -81 723 278 
Q 325 638 269 1209 
z
" transform="scale(0.015625)"/>
     </defs>
     <use xlink:href="#ArialMT-2d"/>
     <use xlink:href="#ArialMT-33" x="33.300781"/>
    </g>
   </g>
   <g id="text_6">
    <!-- -2 -->
    <g style="fill: #262626" transform="translate(176.603576 177.113156) scale(0.1 -0.1)">
     <defs>
      <path id="ArialMT-32" d="M 3222 541 
L 3222 0 
L 194 0 
Q 188 203 259 391 
Q 375 700 629 1000 
Q 884 1300 1366 1694 
Q 2113 2306 2375 2664 
Q 2638 3022 2638 3341 
Q 2638 3675 2398 3904 
Q 2159 4134 1775 4134 
Q 1369 4134 1125 3890 
Q 881 3647 878 3216 
L 300 3275 
Q 359 3922 746 4261 
Q 1134 4600 1788 4600 
Q 2447 4600 2831 4234 
Q 3216 3869 3216 3328 
Q 3216 3053 3103 2787 
Q 2991 2522 2730 2228 
Q 2469 1934 1863 1422 
Q 1356 997 1212 845 
Q 1069 694 975 541 
L 3222 541 
z
" transform="scale(0.015625)"/>
     </defs>
     <use xlink:href="#ArialMT-2d"/>
     <use xlink:href="#ArialMT-32" x="33.300781"/>
    </g>
   </g>
   <g id="text_7">
    <!-- -1 -->
    <g style="fill: #262626" transform="translate(198.648021 177.113156) scale(0.1 -0.1)">
     <defs>
      <path id="ArialMT-31" d="M 2384 0 
L 1822 0 
L 1822 3584 
Q 1619 3391 1289 3197 
Q 959 3003 697 2906 
L 697 3450 
Q 1169 3672 1522 3987 
Q 1875 4303 2022 4600 
L 2384 4600 
L 2384 0 
z
" transform="scale(0.015625)"/>
     </defs>
     <use xlink:href="#ArialMT-2d"/>
     <use xlink:href="#ArialMT-31" x="33.300781"/>
    </g>
   </g>
   <g id="text_8">
    <!-- 0 -->
    <g style="fill: #262626" transform="translate(222.357309 177.113156) scale(0.1 -0.1)">
     <defs>
      <path id="ArialMT-30" d="M 266 2259 
Q 266 3072 433 3567 
Q 600 4063 929 4331 
Q 1259 4600 1759 4600 
Q 2128 4600 2406 4451 
Q 2684 4303 2865 4023 
Q 3047 3744 3150 3342 
Q 3253 2941 3253 2259 
Q 3253 1453 3087 958 
Q 2922 463 2592 192 
Q 2263 -78 1759 -78 
Q 1097 -78 719 397 
Q 266 969 266 2259 
z
M 844 2259 
Q 844 1131 1108 757 
Q 1372 384 1759 384 
Q 2147 384 2411 759 
Q 2675 1134 2675 2259 
Q 2675 3391 2411 3762 
Q 2147 4134 1753 4134 
Q 1366 4134 1134 3806 
Q 844 3388 844 2259 
z
" transform="scale(0.015625)"/>
     </defs>
     <use xlink:href="#ArialMT-30"/>
    </g>
   </g>
   <g id="text_9">
    <!-- 1 -->
    <g style="fill: #262626" transform="translate(244.401753 177.113156) scale(0.1 -0.1)">
     <use xlink:href="#ArialMT-31"/>
    </g>
   </g>
   <g id="text_10">
    <!-- 2 -->
    <g style="fill: #262626" transform="translate(266.446198 177.113156) scale(0.1 -0.1)">
     <use xlink:href="#ArialMT-32"/>
    </g>
   </g>
   <g id="text_11">
    <!-- 3 -->
    <g style="fill: #262626" transform="translate(288.490642 177.113156) scale(0.1 -0.1)">
     <use xlink:href="#ArialMT-33"/>
    </g>
   </g>
   <g id="text_12">
    <!-- 4 -->
    <g style="fill: #262626" transform="translate(310.535087 177.113156) scale(0.1 -0.1)">
     <use xlink:href="#ArialMT-34"/>
    </g>
   </g>
   <g id="text_13">
    <!-- 5 -->
    <g style="fill: #262626" transform="translate(332.579531 177.113156) scale(0.1 -0.1)">
     <use xlink:href="#ArialMT-35"/>
    </g>
   </g>
   <g id="text_14">
    <!-- 6 -->
    <g style="fill: #262626" transform="translate(354.623976 177.113156) scale(0.1 -0.1)">
     <use xlink:href="#ArialMT-36"/>
    </g>
   </g>
   <g id="text_15">
    <!-- 7 -->
    <g style="fill: #262626" transform="translate(376.66842 177.113156) scale(0.1 -0.1)">
     <use xlink:href="#ArialMT-37"/>
    </g>
   </g>
  </g>
 </g>
 <defs>
  <clipPath id="pa935f0ce34">
   <rect x="57.6" y="161.301333" width="357.12" height="26.453333"/>
  </clipPath>
 </defs>
</svg>
