<?xml version="1.0" encoding="utf-8" standalone="no"?>
<!DOCTYPE svg PUBLIC "-//W3C//DTD SVG 1.1//EN"
  "http://www.w3.org/Graphics/SVG/1.1/DTD/svg11.dtd">
<svg xmlns:xlink="http://www.w3.org/1999/xlink" width="460.8pt" height="345.6pt" viewBox="0 0 460.8 345.6" xmlns="http://www.w3.org/2000/svg" version="1.1">
 <metadata>
  <rdf:RDF xmlns:dc="http://purl.org/dc/elements/1.1/" xmlns:cc="http://creativecommons.org/ns#" xmlns:rdf="http://www.w3.org/1999/02/22-rdf-syntax-ns#">
   <cc:Work>
    <dc:type rdf:resource="http://purl.org/dc/dcmitype/StillImage"/>
    <dc:date>2024-12-06T00:14:58.076327</dc:date>
    <dc:format>image/svg+xml</dc:format>
    <dc:creator>
     <cc:Agent>
      <dc:title>Matplotlib v3.9.3, https://matplotlib.org/</dc:title>
     </cc:Agent>
    </dc:creator>
   </cc:Work>
  </rdf:RDF>
 </metadata>
 <defs>
  <style type="text/css">*{stroke-linejoin: round; stroke-linecap: butt}</style>
 </defs>
 <g id="figure_1">
  <g id="patch_1">
   <path d="M 0 345.6 
L 460.8 345.6 
L 460.8 0 
L 0 0 
z
" style="fill: #ffffff"/>
  </g>
  <g id="axes_1">
   <g id="patch_2">
    <path d="M 65.198298 180.859915 
C 66.877541 180.859915 68.488233 180.192744 69.675638 179.00534 
C 70.863042 177.817936 71.530213 176.207243 71.530213 174.528 
C 71.530213 172.848757 70.863042 171.238064 69.675638 170.05066 
C 68.488233 168.863256 66.877541 168.196085 65.198298 168.196085 
C 63.519054 168.196085 61.908362 168.863256 60.720958 170.05066 
C 59.533553 171.238064 58.866383 172.848757 58.866383 174.528 
C 58.866383 176.207243 59.533553 177.817936 60.720958 179.00534 
C 61.908362 180.192744 63.519054 180.859915 65.198298 180.859915 
z
" clip-path="url(#p2a60554c4d)" style="fill: #313695; stroke: #ffffff; stroke-linejoin: miter"/>
   </g>
   <g id="patch_3">
    <path d="M 77.862128 180.859915 
C 79.541371 180.859915 81.152063 180.192744 82.339468 179.00534 
C 83.526872 177.817936 84.194043 176.207243 84.194043 174.528 
C 84.194043 172.848757 83.526872 171.238064 82.339468 170.05066 
C 81.152063 168.863256 79.541371 168.196085 77.862128 168.196085 
C 76.182884 168.196085 74.572192 168.863256 73.384788 170.05066 
C 72.197383 171.238064 71.530213 172.848757 71.530213 174.528 
C 71.530213 176.207243 72.197383 177.817936 73.384788 179.00534 
C 74.572192 180.192744 76.182884 180.859915 77.862128 180.859915 
z
" clip-path="url(#p2a60554c4d)" style="fill: #384ca0; stroke: #ffffff; stroke-linejoin: miter"/>
   </g>
   <g id="patch_4">
    <path d="M 90.525957 180.859915 
C 92.205201 180.859915 93.815893 180.192744 95.003297 179.00534 
C 96.190702 177.817936 96.857872 176.207243 96.857872 174.528 
C 96.857872 172.848757 96.190702 171.238064 95.003297 170.05066 
C 93.815893 168.863256 92.205201 168.196085 90.525957 168.196085 
C 88.846714 168.196085 87.236022 168.863256 86.048617 170.05066 
C 84.861213 171.238064 84.194043 172.848757 84.194043 174.528 
C 84.194043 176.207243 84.861213 177.817936 86.048617 179.00534 
C 87.236022 180.192744 88.846714 180.859915 90.525957 180.859915 
z
" clip-path="url(#p2a60554c4d)" style="fill: #4065ac; stroke: #ffffff; stroke-linejoin: miter"/>
   </g>
   <g id="patch_5">
    <path d="M 103.189787 180.859915 
C 104.869031 180.859915 106.479723 180.192744 107.667127 179.00534 
C 108.854532 177.817936 109.521702 176.207243 109.521702 174.528 
C 109.521702 172.848757 108.854532 171.238064 107.667127 170.05066 
C 106.479723 168.863256 104.869031 168.196085 103.189787 168.196085 
C 101.510544 168.196085 99.899852 168.863256 98.712447 170.05066 
C 97.525043 171.238064 96.857872 172.848757 96.857872 174.528 
C 96.857872 176.207243 97.525043 177.817936 98.712447 179.00534 
C 99.899852 180.192744 101.510544 180.859915 103.189787 180.859915 
z
" clip-path="url(#p2a60554c4d)" style="fill: #4b7db8; stroke: #ffffff; stroke-linejoin: miter"/>
   </g>
   <g id="patch_6">
    <path d="M 115.853617 180.859915 
C 117.53286 180.859915 119.143553 180.192744 120.330957 179.00534 
C 121.518361 177.817936 122.185532 176.207243 122.185532 174.528 
C 122.185532 172.848757 121.518361 171.238064 120.330957 170.05066 
C 119.143553 168.863256 117.53286 168.196085 115.853617 168.196085 
C 114.174374 168.196085 112.563681 168.863256 111.376277 170.05066 
C 110.188873 171.238064 109.521702 172.848757 109.521702 174.528 
C 109.521702 176.207243 110.188873 177.817936 111.376277 179.00534 
C 112.563681 180.192744 114.174374 180.859915 115.853617 180.859915 
z
" clip-path="url(#p2a60554c4d)" style="fill: #5e93c3; stroke: #ffffff; stroke-linejoin: miter"/>
   </g>
   <g id="patch_7">
    <path d="M 128.517447 180.859915 
C 130.19669 180.859915 131.807382 180.192744 132.994787 179.00534 
C 134.182191 177.817936 134.849362 176.207243 134.849362 174.528 
C 134.849362 172.848757 134.182191 171.238064 132.994787 170.05066 
C 131.807382 168.863256 130.19669 168.196085 128.517447 168.196085 
C 126.838203 168.196085 125.227511 168.863256 124.040107 170.05066 
C 122.852702 171.238064 122.185532 172.848757 122.185532 174.528 
C 122.185532 176.207243 122.852702 177.817936 124.040107 179.00534 
C 125.227511 180.192744 126.838203 180.859915 128.517447 180.859915 
z
" clip-path="url(#p2a60554c4d)" style="fill: #70a9cf; stroke: #ffffff; stroke-linejoin: miter"/>
   </g>
   <g id="patch_8">
    <path d="M 141.181277 180.859915 
C 142.86052 180.859915 144.471212 180.192744 145.658617 179.00534 
C 146.846021 177.817936 147.513191 176.207243 147.513191 174.528 
C 147.513191 172.848757 146.846021 171.238064 145.658617 170.05066 
C 144.471212 168.863256 142.86052 168.196085 141.181277 168.196085 
C 139.502033 168.196085 137.891341 168.863256 136.703937 170.05066 
C 135.516532 171.238064 134.849362 172.848757 134.849362 174.528 
C 134.849362 176.207243 135.516532 177.817936 136.703937 179.00534 
C 137.891341 180.192744 139.502033 180.859915 141.181277 180.859915 
z
" clip-path="url(#p2a60554c4d)" style="fill: #85bbd9; stroke: #ffffff; stroke-linejoin: miter"/>
   </g>
   <g id="patch_9">
    <path d="M 153.845106 180.859915 
C 155.52435 180.859915 157.135042 180.192744 158.322446 179.00534 
C 159.509851 177.817936 160.177021 176.207243 160.177021 174.528 
C 160.177021 172.848757 159.509851 171.238064 158.322446 170.05066 
C 157.135042 168.863256 155.52435 168.196085 153.845106 168.196085 
C 152.165863 168.196085 150.555171 168.863256 149.367766 170.05066 
C 148.180362 171.238064 147.513191 172.848757 147.513191 174.528 
C 147.513191 176.207243 148.180362 177.817936 149.367766 179.00534 
C 150.555171 180.192744 152.165863 180.859915 153.845106 180.859915 
z
" clip-path="url(#p2a60554c4d)" style="fill: #99cae1; stroke: #ffffff; stroke-linejoin: miter"/>
   </g>
   <g id="patch_10">
    <path d="M 166.508936 180.859915 
C 168.18818 180.859915 169.798872 180.192744 170.986276 179.00534 
C 172.173681 177.817936 172.840851 176.207243 172.840851 174.528 
C 172.840851 172.848757 172.173681 171.238064 170.986276 170.05066 
C 169.798872 168.863256 168.18818 168.196085 166.508936 168.196085 
C 164.829693 168.196085 163.219001 168.863256 162.031596 170.05066 
C 160.844192 171.238064 160.177021 172.848757 160.177021 174.528 
C 160.177021 176.207243 160.844192 177.817936 162.031596 179.00534 
C 163.219001 180.192744 164.829693 180.859915 166.508936 180.859915 
z
" clip-path="url(#p2a60554c4d)" style="fill: #aedbea; stroke: #ffffff; stroke-linejoin: miter"/>
   </g>
   <g id="patch_11">
    <path d="M 179.172766 180.859915 
C 180.852009 180.859915 182.462701 180.192744 183.650106 179.00534 
C 184.83751 177.817936 185.504681 176.207243 185.504681 174.528 
C 185.504681 172.848757 184.83751 171.238064 183.650106 170.05066 
C 182.462701 168.863256 180.852009 168.196085 179.172766 168.196085 
C 177.493522 168.196085 175.88283 168.863256 174.695426 170.05066 
C 173.508022 171.238064 172.840851 172.848757 172.840851 174.528 
C 172.840851 176.207243 173.508022 177.817936 174.695426 179.00534 
C 175.88283 180.192744 177.493522 180.859915 179.172766 180.859915 
z
" clip-path="url(#p2a60554c4d)" style="fill: #c3e5f0; stroke: #ffffff; stroke-linejoin: miter"/>
   </g>
   <g id="patch_12">
    <path d="M 191.836596 180.859915 
C 193.515839 180.859915 195.126531 180.192744 196.313936 179.00534 
C 197.50134 177.817936 198.168511 176.207243 198.168511 174.528 
C 198.168511 172.848757 197.50134 171.238064 196.313936 170.05066 
C 195.126531 168.863256 193.515839 168.196085 191.836596 168.196085 
C 190.157352 168.196085 188.54666 168.863256 187.359256 170.05066 
C 186.171851 171.238064 185.504681 172.848757 185.504681 174.528 
C 185.504681 176.207243 186.171851 177.817936 187.359256 179.00534 
C 188.54666 180.192744 190.157352 180.859915 191.836596 180.859915 
z
" clip-path="url(#p2a60554c4d)" style="fill: #d8eff6; stroke: #ffffff; stroke-linejoin: miter"/>
   </g>
   <g id="patch_13">
    <path d="M 204.500426 180.859915 
C 206.179669 180.859915 207.790361 180.192744 208.977765 179.00534 
C 210.16517 177.817936 210.83234 176.207243 210.83234 174.528 
C 210.83234 172.848757 210.16517 171.238064 208.977765 170.05066 
C 207.790361 168.863256 206.179669 168.196085 204.500426 168.196085 
C 202.821182 168.196085 201.21049 168.863256 200.023086 170.05066 
C 198.835681 171.238064 198.168511 172.848757 198.168511 174.528 
C 198.168511 176.207243 198.835681 177.817936 200.023086 179.00534 
C 201.21049 180.192744 202.821182 180.859915 204.500426 180.859915 
z
" clip-path="url(#p2a60554c4d)" style="fill: #e7f6eb; stroke: #ffffff; stroke-linejoin: miter"/>
   </g>
   <g id="patch_14">
    <path d="M 217.164255 180.859915 
C 218.843499 180.859915 220.454191 180.192744 221.641595 179.00534 
C 222.829 177.817936 223.49617 176.207243 223.49617 174.528 
C 223.49617 172.848757 222.829 171.238064 221.641595 170.05066 
C 220.454191 168.863256 218.843499 168.196085 217.164255 168.196085 
C 215.485012 168.196085 213.87432 168.863256 212.686915 170.05066 
C 211.499511 171.238064 210.83234 172.848757 210.83234 174.528 
C 210.83234 176.207243 211.499511 177.817936 212.686915 179.00534 
C 213.87432 180.192744 215.485012 180.859915 217.164255 180.859915 
z
" clip-path="url(#p2a60554c4d)" style="fill: #f3fbd4; stroke: #ffffff; stroke-linejoin: miter"/>
   </g>
   <g id="patch_15">
    <path d="M 229.828085 180.859915 
C 231.507329 180.859915 233.118021 180.192744 234.305425 179.00534 
C 235.49283 177.817936 236.16 176.207243 236.16 174.528 
C 236.16 172.848757 235.49283 171.238064 234.305425 170.05066 
C 233.118021 168.863256 231.507329 168.196085 229.828085 168.196085 
C 228.148842 168.196085 226.53815 168.863256 225.350745 170.05066 
C 224.163341 171.238064 223.49617 172.848757 223.49617 174.528 
C 223.49617 176.207243 224.163341 177.817936 225.350745 179.00534 
C 226.53815 180.192744 228.148842 180.859915 229.828085 180.859915 
z
" clip-path="url(#p2a60554c4d)" style="fill: #fffebe; stroke: #ffffff; stroke-linejoin: miter"/>
   </g>
   <g id="patch_16">
    <path d="M 242.491915 180.859915 
C 244.171158 180.859915 245.78185 180.192744 246.969255 179.00534 
C 248.156659 177.817936 248.82383 176.207243 248.82383 174.528 
C 248.82383 172.848757 248.156659 171.238064 246.969255 170.05066 
C 245.78185 168.863256 244.171158 168.196085 242.491915 168.196085 
C 240.812671 168.196085 239.201979 168.863256 238.014575 170.05066 
C 236.82717 171.238064 236.16 172.848757 236.16 174.528 
C 236.16 176.207243 236.82717 177.817936 238.014575 179.00534 
C 239.201979 180.192744 240.812671 180.859915 242.491915 180.859915 
z
" clip-path="url(#p2a60554c4d)" style="fill: #fff3ad; stroke: #ffffff; stroke-linejoin: miter"/>
   </g>
   <g id="patch_17">
    <path d="M 255.155745 180.859915 
C 256.834988 180.859915 258.44568 180.192744 259.633085 179.00534 
C 260.820489 177.817936 261.48766 176.207243 261.48766 174.528 
C 261.48766 172.848757 260.820489 171.238064 259.633085 170.05066 
C 258.44568 168.863256 256.834988 168.196085 255.155745 168.196085 
C 253.476501 168.196085 251.865809 168.863256 250.678405 170.05066 
C 249.491 171.238064 248.82383 172.848757 248.82383 174.528 
C 248.82383 176.207243 249.491 177.817936 250.678405 179.00534 
C 251.865809 180.192744 253.476501 180.859915 255.155745 180.859915 
z
" clip-path="url(#p2a60554c4d)" style="fill: #fee79b; stroke: #ffffff; stroke-linejoin: miter"/>
   </g>
   <g id="patch_18">
    <path d="M 267.819574 180.859915 
C 269.498818 180.859915 271.10951 180.192744 272.296914 179.00534 
C 273.484319 177.817936 274.151489 176.207243 274.151489 174.528 
C 274.151489 172.848757 273.484319 171.238064 272.296914 170.05066 
C 271.10951 168.863256 269.498818 168.196085 267.819574 168.196085 
C 266.140331 168.196085 264.529639 168.863256 263.342235 170.05066 
C 262.15483 171.238064 261.48766 172.848757 261.48766 174.528 
C 261.48766 176.207243 262.15483 177.817936 263.342235 179.00534 
C 264.529639 180.192744 266.140331 180.859915 267.819574 180.859915 
z
" clip-path="url(#p2a60554c4d)" style="fill: #fed889; stroke: #ffffff; stroke-linejoin: miter"/>
   </g>
   <g id="patch_19">
    <path d="M 280.483404 180.859915 
C 282.162648 180.859915 283.77334 180.192744 284.960744 179.00534 
C 286.148149 177.817936 286.815319 176.207243 286.815319 174.528 
C 286.815319 172.848757 286.148149 171.238064 284.960744 170.05066 
C 283.77334 168.863256 282.162648 168.196085 280.483404 168.196085 
C 278.804161 168.196085 277.193469 168.863256 276.006064 170.05066 
C 274.81866 171.238064 274.151489 172.848757 274.151489 174.528 
C 274.151489 176.207243 274.81866 177.817936 276.006064 179.00534 
C 277.193469 180.192744 278.804161 180.859915 280.483404 180.859915 
z
" clip-path="url(#p2a60554c4d)" style="fill: #fdc576; stroke: #ffffff; stroke-linejoin: miter"/>
   </g>
   <g id="patch_20">
    <path d="M 293.147234 180.859915 
C 294.826478 180.859915 296.43717 180.192744 297.624574 179.00534 
C 298.811978 177.817936 299.479149 176.207243 299.479149 174.528 
C 299.479149 172.848757 298.811978 171.238064 297.624574 170.05066 
C 296.43717 168.863256 294.826478 168.196085 293.147234 168.196085 
C 291.467991 168.196085 289.857299 168.863256 288.669894 170.05066 
C 287.48249 171.238064 286.815319 172.848757 286.815319 174.528 
C 286.815319 176.207243 287.48249 177.817936 288.669894 179.00534 
C 289.857299 180.192744 291.467991 180.859915 293.147234 180.859915 
z
" clip-path="url(#p2a60554c4d)" style="fill: #fdb164; stroke: #ffffff; stroke-linejoin: miter"/>
   </g>
   <g id="patch_21">
    <path d="M 305.811064 180.859915 
C 307.490307 180.859915 309.100999 180.192744 310.288404 179.00534 
C 311.475808 177.817936 312.142979 176.207243 312.142979 174.528 
C 312.142979 172.848757 311.475808 171.238064 310.288404 170.05066 
C 309.100999 168.863256 307.490307 168.196085 305.811064 168.196085 
C 304.13182 168.196085 302.521128 168.863256 301.333724 170.05066 
C 300.146319 171.238064 299.479149 172.848757 299.479149 174.528 
C 299.479149 176.207243 300.146319 177.817936 301.333724 179.00534 
C 302.521128 180.192744 304.13182 180.859915 305.811064 180.859915 
z
" clip-path="url(#p2a60554c4d)" style="fill: #fa9857; stroke: #ffffff; stroke-linejoin: miter"/>
   </g>
   <g id="patch_22">
    <path d="M 318.474894 180.859915 
C 320.154137 180.859915 321.764829 180.192744 322.952234 179.00534 
C 324.139638 177.817936 324.806809 176.207243 324.806809 174.528 
C 324.806809 172.848757 324.139638 171.238064 322.952234 170.05066 
C 321.764829 168.863256 320.154137 168.196085 318.474894 168.196085 
C 316.79565 168.196085 315.184958 168.863256 313.997554 170.05066 
C 312.810149 171.238064 312.142979 172.848757 312.142979 174.528 
C 312.142979 176.207243 312.810149 177.817936 313.997554 179.00534 
C 315.184958 180.192744 316.79565 180.859915 318.474894 180.859915 
z
" clip-path="url(#p2a60554c4d)" style="fill: #f7814c; stroke: #ffffff; stroke-linejoin: miter"/>
   </g>
   <g id="patch_23">
    <path d="M 331.138723 180.859915 
C 332.817967 180.859915 334.428659 180.192744 335.616063 179.00534 
C 336.803468 177.817936 337.470638 176.207243 337.470638 174.528 
C 337.470638 172.848757 336.803468 171.238064 335.616063 170.05066 
C 334.428659 168.863256 332.817967 168.196085 331.138723 168.196085 
C 329.45948 168.196085 327.848788 168.863256 326.661383 170.05066 
C 325.473979 171.238064 324.806809 172.848757 324.806809 174.528 
C 324.806809 176.207243 325.473979 177.817936 326.661383 179.00534 
C 327.848788 180.192744 329.45948 180.859915 331.138723 180.859915 
z
" clip-path="url(#p2a60554c4d)" style="fill: #f26841; stroke: #ffffff; stroke-linejoin: miter"/>
   </g>
   <g id="patch_24">
    <path d="M 343.802553 180.859915 
C 345.481797 180.859915 347.092489 180.192744 348.279893 179.00534 
C 349.467298 177.817936 350.134468 176.207243 350.134468 174.528 
C 350.134468 172.848757 349.467298 171.238064 348.279893 170.05066 
C 347.092489 168.863256 345.481797 168.196085 343.802553 168.196085 
C 342.12331 168.196085 340.512618 168.863256 339.325213 170.05066 
C 338.137809 171.238064 337.470638 172.848757 337.470638 174.528 
C 337.470638 176.207243 338.137809 177.817936 339.325213 179.00534 
C 340.512618 180.192744 342.12331 180.859915 343.802553 180.859915 
z
" clip-path="url(#p2a60554c4d)" style="fill: #e65036; stroke: #ffffff; stroke-linejoin: miter"/>
   </g>
   <g id="patch_25">
    <path d="M 356.466383 180.859915 
C 358.145626 180.859915 359.756319 180.192744 360.943723 179.00534 
C 362.131127 177.817936 362.798298 176.207243 362.798298 174.528 
C 362.798298 172.848757 362.131127 171.238064 360.943723 170.05066 
C 359.756319 168.863256 358.145626 168.196085 356.466383 168.196085 
C 354.78714 168.196085 353.176447 168.863256 351.989043 170.05066 
C 350.801639 171.238064 350.134468 172.848757 350.134468 174.528 
C 350.134468 176.207243 350.801639 177.817936 351.989043 179.00534 
C 353.176447 180.192744 354.78714 180.859915 356.466383 180.859915 
z
" clip-path="url(#p2a60554c4d)" style="fill: #db382b; stroke: #ffffff; stroke-linejoin: miter"/>
   </g>
   <g id="patch_26">
    <path d="M 369.130213 180.859915 
C 370.809456 180.859915 372.420148 180.192744 373.607553 179.00534 
C 374.794957 177.817936 375.462128 176.207243 375.462128 174.528 
C 375.462128 172.848757 374.794957 171.238064 373.607553 170.05066 
C 372.420148 168.863256 370.809456 168.196085 369.130213 168.196085 
C 367.450969 168.196085 365.840277 168.863256 364.652873 170.05066 
C 363.465468 171.238064 362.798298 172.848757 362.798298 174.528 
C 362.798298 176.207243 363.465468 177.817936 364.652873 179.00534 
C 365.840277 180.192744 367.450969 180.859915 369.130213 180.859915 
z
" clip-path="url(#p2a60554c4d)" style="fill: #ca2427; stroke: #ffffff; stroke-linejoin: miter"/>
   </g>
   <g id="patch_27">
    <path d="M 381.794043 180.859915 
C 383.473286 180.859915 385.083978 180.192744 386.271383 179.00534 
C 387.458787 177.817936 388.125957 176.207243 388.125957 174.528 
C 388.125957 172.848757 387.458787 171.238064 386.271383 170.05066 
C 385.083978 168.863256 383.473286 168.196085 381.794043 168.196085 
C 380.114799 168.196085 378.504107 168.863256 377.316703 170.05066 
C 376.129298 171.238064 375.462128 172.848757 375.462128 174.528 
C 375.462128 176.207243 376.129298 177.817936 377.316703 179.00534 
C 378.504107 180.192744 380.114799 180.859915 381.794043 180.859915 
z
" clip-path="url(#p2a60554c4d)" style="fill: #b71126; stroke: #ffffff; stroke-linejoin: miter"/>
   </g>
   <g id="patch_28">
    <path d="M 394.457872 180.859915 
C 396.137116 180.859915 397.747808 180.192744 398.935212 179.00534 
C 400.122617 177.817936 400.789787 176.207243 400.789787 174.528 
C 400.789787 172.848757 400.122617 171.238064 398.935212 170.05066 
C 397.747808 168.863256 396.137116 168.196085 394.457872 168.196085 
C 392.778629 168.196085 391.167937 168.863256 389.980532 170.05066 
C 388.793128 171.238064 388.125957 172.848757 388.125957 174.528 
C 388.125957 176.207243 388.793128 177.817936 389.980532 179.00534 
C 391.167937 180.192744 392.778629 180.859915 394.457872 180.859915 
z
" clip-path="url(#p2a60554c4d)" style="fill: #a50026; stroke: #ffffff; stroke-linejoin: miter"/>
   </g>
   <g id="text_1">
    <!-- -13 -->
    <g style="fill: #262626" transform="translate(57.972517 177.113156) scale(0.1 -0.1)">
     <defs>
      <path id="ArialMT-2d" d="M 203 1375 
L 203 1941 
L 1931 1941 
L 1931 1375 
L 203 1375 
z
" transform="scale(0.015625)"/>
      <path id="ArialMT-31" d="M 2384 0 
L 1822 0 
L 1822 3584 
Q 1619 3391 1289 3197 
Q 959 3003 697 2906 
L 697 3450 
Q 1169 3672 1522 3987 
Q 1875 4303 2022 4600 
L 2384 4600 
L 2384 0 
z
" transform="scale(0.015625)"/>
      <path id="ArialMT-33" d="M 269 1209 
L 831 1284 
Q 928 806 1161 595 
Q 1394 384 1728 384 
Q 2125 384 2398 659 
Q 2672 934 2672 1341 
Q 2672 1728 2419 1979 
Q 2166 2231 1775 2231 
Q 1616 2231 1378 2169 
L 1441 2663 
Q 1497 2656 1531 2656 
Q 1891 2656 2178 2843 
Q 2466 3031 2466 3422 
Q 2466 3731 2256 3934 
Q 2047 4138 1716 4138 
Q 1388 4138 1169 3931 
Q 950 3725 888 3313 
L 325 3413 
Q 428 3978 793 4289 
Q 1159 4600 1703 4600 
Q 2078 4600 2393 4439 
Q 2709 4278 2876 4000 
Q 3044 3722 3044 3409 
Q 3044 3113 2884 2869 
Q 2725 2625 2413 2481 
Q 2819 2388 3044 2092 
Q 3269 1797 3269 1353 
Q 3269 753 2831 336 
Q 2394 -81 1725 -81 
Q 1122 -81 723 278 
Q 325 638 269 1209 
z
" transform="scale(0.015625)"/>
     </defs>
     <use xlink:href="#ArialMT-2d"/>
     <use xlink:href="#ArialMT-31" x="33.300781"/>
     <use xlink:href="#ArialMT-33" x="88.916016"/>
    </g>
   </g>
   <g id="text_2">
    <!-- -12 -->
    <g style="fill: #262626" transform="translate(70.636346 177.113156) scale(0.1 -0.1)">
     <defs>
      <path id="ArialMT-32" d="M 3222 541 
L 3222 0 
L 194 0 
Q 188 203 259 391 
Q 375 700 629 1000 
Q 884 1300 1366 1694 
Q 2113 2306 2375 2664 
Q 2638 3022 2638 3341 
Q 2638 3675 2398 3904 
Q 2159 4134 1775 4134 
Q 1369 4134 1125 3890 
Q 881 3647 878 3216 
L 300 3275 
Q 359 3922 746 4261 
Q 1134 4600 1788 4600 
Q 2447 4600 2831 4234 
Q 3216 3869 3216 3328 
Q 3216 3053 3103 2787 
Q 2991 2522 2730 2228 
Q 2469 1934 1863 1422 
Q 1356 997 1212 845 
Q 1069 694 975 541 
L 3222 541 
z
" transform="scale(0.015625)"/>
     </defs>
     <use xlink:href="#ArialMT-2d"/>
     <use xlink:href="#ArialMT-31" x="33.300781"/>
     <use xlink:href="#ArialMT-32" x="88.916016"/>
    </g>
   </g>
   <g id="text_3">
    <!-- -11 -->
    <g style="fill: #262626" transform="translate(83.668926 177.113156) scale(0.1 -0.1)">
     <use xlink:href="#ArialMT-2d"/>
     <use xlink:href="#ArialMT-31" x="33.300781"/>
     <use xlink:href="#ArialMT-31" x="81.541016"/>
    </g>
   </g>
   <g id="text_4">
    <!-- -10 -->
    <g style="fill: #262626" transform="translate(95.964006 177.113156) scale(0.1 -0.1)">
     <defs>
      <path id="ArialMT-30" d="M 266 2259 
Q 266 3072 433 3567 
Q 600 4063 929 4331 
Q 1259 4600 1759 4600 
Q 2128 4600 2406 4451 
Q 2684 4303 2865 4023 
Q 3047 3744 3150 3342 
Q 3253 2941 3253 2259 
Q 3253 1453 3087 958 
Q 2922 463 2592 192 
Q 2263 -78 1759 -78 
Q 1097 -78 719 397 
Q 266 969 266 2259 
z
M 844 2259 
Q 844 1131 1108 757 
Q 1372 384 1759 384 
Q 2147 384 2411 759 
Q 2675 1134 2675 2259 
Q 2675 3391 2411 3762 
Q 2147 4134 1753 4134 
Q 1366 4134 1134 3806 
Q 844 3388 844 2259 
z
" transform="scale(0.015625)"/>
     </defs>
     <use xlink:href="#ArialMT-2d"/>
     <use xlink:href="#ArialMT-31" x="33.300781"/>
     <use xlink:href="#ArialMT-30" x="88.916016"/>
    </g>
   </g>
   <g id="text_5">
    <!-- -9 -->
    <g style="fill: #262626" transform="translate(111.408305 177.113156) scale(0.1 -0.1)">
     <defs>
      <path id="ArialMT-39" d="M 350 1059 
L 891 1109 
Q 959 728 1153 556 
Q 1347 384 1650 384 
Q 1909 384 2104 503 
Q 2300 622 2425 820 
Q 2550 1019 2634 1356 
Q 2719 1694 2719 2044 
Q 2719 2081 2716 2156 
Q 2547 1888 2255 1720 
Q 1963 1553 1622 1553 
Q 1053 1553 659 1965 
Q 266 2378 266 3053 
Q 266 3750 677 4175 
Q 1088 4600 1706 4600 
Q 2153 4600 2523 4359 
Q 2894 4119 3086 3673 
Q 3278 3228 3278 2384 
Q 3278 1506 3087 986 
Q 2897 466 2520 194 
Q 2144 -78 1638 -78 
Q 1100 -78 759 220 
Q 419 519 350 1059 
z
M 2653 3081 
Q 2653 3566 2395 3850 
Q 2138 4134 1775 4134 
Q 1400 4134 1122 3828 
Q 844 3522 844 3034 
Q 844 2597 1108 2323 
Q 1372 2050 1759 2050 
Q 2150 2050 2401 2323 
Q 2653 2597 2653 3081 
z
" transform="scale(0.015625)"/>
     </defs>
     <use xlink:href="#ArialMT-2d"/>
     <use xlink:href="#ArialMT-39" x="33.300781"/>
    </g>
   </g>
   <g id="text_6">
    <!-- -8 -->
    <g style="fill: #262626" transform="translate(124.072134 177.113156) scale(0.1 -0.1)">
     <defs>
      <path id="ArialMT-38" d="M 1131 2484 
Q 781 2613 612 2850 
Q 444 3088 444 3419 
Q 444 3919 803 4259 
Q 1163 4600 1759 4600 
Q 2359 4600 2725 4251 
Q 3091 3903 3091 3403 
Q 3091 3084 2923 2848 
Q 2756 2613 2416 2484 
Q 2838 2347 3058 2040 
Q 3278 1734 3278 1309 
Q 3278 722 2862 322 
Q 2447 -78 1769 -78 
Q 1091 -78 675 323 
Q 259 725 259 1325 
Q 259 1772 486 2073 
Q 713 2375 1131 2484 
z
M 1019 3438 
Q 1019 3113 1228 2906 
Q 1438 2700 1772 2700 
Q 2097 2700 2305 2904 
Q 2513 3109 2513 3406 
Q 2513 3716 2298 3927 
Q 2084 4138 1766 4138 
Q 1444 4138 1231 3931 
Q 1019 3725 1019 3438 
z
M 838 1322 
Q 838 1081 952 856 
Q 1066 631 1291 507 
Q 1516 384 1775 384 
Q 2178 384 2440 643 
Q 2703 903 2703 1303 
Q 2703 1709 2433 1975 
Q 2163 2241 1756 2241 
Q 1359 2241 1098 1978 
Q 838 1716 838 1322 
z
" transform="scale(0.015625)"/>
     </defs>
     <use xlink:href="#ArialMT-2d"/>
     <use xlink:href="#ArialMT-38" x="33.300781"/>
    </g>
   </g>
   <g id="text_7">
    <!-- -7 -->
    <g style="fill: #262626" transform="translate(136.735964 177.113156) scale(0.1 -0.1)">
     <defs>
      <path id="ArialMT-37" d="M 303 3981 
L 303 4522 
L 3269 4522 
L 3269 4084 
Q 2831 3619 2401 2847 
Q 1972 2075 1738 1259 
Q 1569 684 1522 0 
L 944 0 
Q 953 541 1156 1306 
Q 1359 2072 1739 2783 
Q 2119 3494 2547 3981 
L 303 3981 
z
" transform="scale(0.015625)"/>
     </defs>
     <use xlink:href="#ArialMT-2d"/>
     <use xlink:href="#ArialMT-37" x="33.300781"/>
    </g>
   </g>
   <g id="text_8">
    <!-- -6 -->
    <g style="fill: #262626" transform="translate(149.399794 177.113156) scale(0.1 -0.1)">
     <defs>
      <path id="ArialMT-36" d="M 3184 3459 
L 2625 3416 
Q 2550 3747 2413 3897 
Q 2184 4138 1850 4138 
Q 1581 4138 1378 3988 
Q 1113 3794 959 3422 
Q 806 3050 800 2363 
Q 1003 2672 1297 2822 
Q 1591 2972 1913 2972 
Q 2475 2972 2870 2558 
Q 3266 2144 3266 1488 
Q 3266 1056 3080 686 
Q 2894 316 2569 119 
Q 2244 -78 1831 -78 
Q 1128 -78 684 439 
Q 241 956 241 2144 
Q 241 3472 731 4075 
Q 1159 4600 1884 4600 
Q 2425 4600 2770 4297 
Q 3116 3994 3184 3459 
z
M 888 1484 
Q 888 1194 1011 928 
Q 1134 663 1356 523 
Q 1578 384 1822 384 
Q 2178 384 2434 671 
Q 2691 959 2691 1453 
Q 2691 1928 2437 2201 
Q 2184 2475 1800 2475 
Q 1419 2475 1153 2201 
Q 888 1928 888 1484 
z
" transform="scale(0.015625)"/>
     </defs>
     <use xlink:href="#ArialMT-2d"/>
     <use xlink:href="#ArialMT-36" x="33.300781"/>
    </g>
   </g>
   <g id="text_9">
    <!-- -5 -->
    <g style="fill: #262626" transform="translate(162.063624 177.113156) scale(0.1 -0.1)">
     <defs>
      <path id="ArialMT-35" d="M 266 1200 
L 856 1250 
Q 922 819 1161 601 
Q 1400 384 1738 384 
Q 2144 384 2425 690 
Q 2706 997 2706 1503 
Q 2706 1984 2436 2262 
Q 2166 2541 1728 2541 
Q 1456 2541 1237 2417 
Q 1019 2294 894 2097 
L 366 2166 
L 809 4519 
L 3088 4519 
L 3088 3981 
L 1259 3981 
L 1013 2750 
Q 1425 3038 1878 3038 
Q 2478 3038 2890 2622 
Q 3303 2206 3303 1553 
Q 3303 931 2941 478 
Q 2500 -78 1738 -78 
Q 1113 -78 717 272 
Q 322 622 266 1200 
z
" transform="scale(0.015625)"/>
     </defs>
     <use xlink:href="#ArialMT-2d"/>
     <use xlink:href="#ArialMT-35" x="33.300781"/>
    </g>
   </g>
   <g id="text_10">
    <!-- -4 -->
    <g style="fill: #262626" transform="translate(174.727453 177.113156) scale(0.1 -0.1)">
     <defs>
      <path id="ArialMT-34" d="M 2069 0 
L 2069 1097 
L 81 1097 
L 81 1613 
L 2172 4581 
L 2631 4581 
L 2631 1613 
L 3250 1613 
L 3250 1097 
L 2631 1097 
L 2631 0 
L 2069 0 
z
M 2069 1613 
L 2069 3678 
L 634 1613 
L 2069 1613 
z
" transform="scale(0.015625)"/>
     </defs>
     <use xlink:href="#ArialMT-2d"/>
     <use xlink:href="#ArialMT-34" x="33.300781"/>
    </g>
   </g>
   <g id="text_11">
    <!-- -3 -->
    <g style="fill: #262626" transform="translate(187.391283 177.113156) scale(0.1 -0.1)">
     <use xlink:href="#ArialMT-2d"/>
     <use xlink:href="#ArialMT-33" x="33.300781"/>
    </g>
   </g>
   <g id="text_12">
    <!-- -2 -->
    <g style="fill: #262626" transform="translate(200.055113 177.113156) scale(0.1 -0.1)">
     <use xlink:href="#ArialMT-2d"/>
     <use xlink:href="#ArialMT-32" x="33.300781"/>
    </g>
   </g>
   <g id="text_13">
    <!-- -1 -->
    <g style="fill: #262626" transform="translate(212.718943 177.113156) scale(0.1 -0.1)">
     <use xlink:href="#ArialMT-2d"/>
     <use xlink:href="#ArialMT-31" x="33.300781"/>
    </g>
   </g>
   <g id="text_14">
    <!-- 0 -->
    <g style="fill: #262626" transform="translate(227.047616 177.113156) scale(0.1 -0.1)">
     <use xlink:href="#ArialMT-30"/>
    </g>
   </g>
   <g id="text_15">
    <!-- 1 -->
    <g style="fill: #262626" transform="translate(239.711446 177.113156) scale(0.1 -0.1)">
     <use xlink:href="#ArialMT-31"/>
    </g>
   </g>
   <g id="text_16">
    <!-- 2 -->
    <g style="fill: #262626" transform="translate(252.375276 177.113156) scale(0.1 -0.1)">
     <use xlink:href="#ArialMT-32"/>
    </g>
   </g>
   <g id="text_17">
    <!-- 3 -->
    <g style="fill: #262626" transform="translate(265.039106 177.113156) scale(0.1 -0.1)">
     <use xlink:href="#ArialMT-33"/>
    </g>
   </g>
   <g id="text_18">
    <!-- 4 -->
    <g style="fill: #262626" transform="translate(277.702936 177.113156) scale(0.1 -0.1)">
     <use xlink:href="#ArialMT-34"/>
    </g>
   </g>
   <g id="text_19">
    <!-- 5 -->
    <g style="fill: #262626" transform="translate(290.366765 177.113156) scale(0.1 -0.1)">
     <use xlink:href="#ArialMT-35"/>
    </g>
   </g>
   <g id="text_20">
    <!-- 6 -->
    <g style="fill: #262626" transform="translate(303.030595 177.113156) scale(0.1 -0.1)">
     <use xlink:href="#ArialMT-36"/>
    </g>
   </g>
   <g id="text_21">
    <!-- 7 -->
    <g style="fill: #262626" transform="translate(315.694425 177.113156) scale(0.1 -0.1)">
     <use xlink:href="#ArialMT-37"/>
    </g>
   </g>
   <g id="text_22">
    <!-- 8 -->
    <g style="fill: #262626" transform="translate(328.358255 177.113156) scale(0.1 -0.1)">
     <use xlink:href="#ArialMT-38"/>
    </g>
   </g>
   <g id="text_23">
    <!-- 9 -->
    <g style="fill: #262626" transform="translate(341.022084 177.113156) scale(0.1 -0.1)">
     <use xlink:href="#ArialMT-39"/>
    </g>
   </g>
   <g id="text_24">
    <!-- 10 -->
    <g style="fill: #262626" transform="translate(350.905445 177.113156) scale(0.1 -0.1)">
     <use xlink:href="#ArialMT-31"/>
     <use xlink:href="#ArialMT-30" x="55.615234"/>
    </g>
   </g>
   <g id="text_25">
    <!-- 11 -->
    <g style="fill: #262626" transform="translate(363.938025 177.113156) scale(0.1 -0.1)">
     <use xlink:href="#ArialMT-31"/>
     <use xlink:href="#ArialMT-31" x="48.240234"/>
    </g>
   </g>
   <g id="text_26">
    <!-- 12 -->
    <g style="fill: #262626" transform="translate(376.233105 177.113156) scale(0.1 -0.1)">
     <use xlink:href="#ArialMT-31"/>
     <use xlink:href="#ArialMT-32" x="55.615234"/>
    </g>
   </g>
   <g id="text_27">
    <!-- 13 -->
    <g style="fill: #262626" transform="translate(388.896935 177.113156) scale(0.1 -0.1)">
     <use xlink:href="#ArialMT-31"/>
     <use xlink:href="#ArialMT-33" x="55.615234"/>
    </g>
   </g>
  </g>
 </g>
 <defs>
  <clipPath id="p2a60554c4d">
   <rect x="57.6" y="166.929702" width="357.12" height="15.196596"/>
  </clipPath>
 </defs>
</svg>
