<?xml version="1.0" encoding="utf-8" standalone="no"?>
<!DOCTYPE svg PUBLIC "-//W3C//DTD SVG 1.1//EN"
  "http://www.w3.org/Graphics/SVG/1.1/DTD/svg11.dtd">
<svg xmlns:xlink="http://www.w3.org/1999/xlink" width="460.8pt" height="345.6pt" viewBox="0 0 460.8 345.6" xmlns="http://www.w3.org/2000/svg" version="1.1">
 <metadata>
  <rdf:RDF xmlns:dc="http://purl.org/dc/elements/1.1/" xmlns:cc="http://creativecommons.org/ns#" xmlns:rdf="http://www.w3.org/1999/02/22-rdf-syntax-ns#">
   <cc:Work>
    <dc:type rdf:resource="http://purl.org/dc/dcmitype/StillImage"/>
    <dc:date>2024-12-06T00:31:59.670324</dc:date>
    <dc:format>image/svg+xml</dc:format>
    <dc:creator>
     <cc:Agent>
      <dc:title>Matplotlib v3.9.3, https://matplotlib.org/</dc:title>
     </cc:Agent>
    </dc:creator>
   </cc:Work>
  </rdf:RDF>
 </metadata>
 <defs>
  <style type="text/css">*{stroke-linejoin: round; stroke-linecap: butt}</style>
 </defs>
 <g id="figure_1">
  <g id="patch_1">
   <path d="M 0 345.6 
L 460.8 345.6 
L 460.8 0 
L 0 0 
z
" style="fill: #ffffff"/>
  </g>
  <g id="axes_1">
   <g id="patch_2">
    <path d="M 76.731429 190.470857 
C 80.959524 190.470857 85.015016 188.791017 88.004731 185.801302 
C 90.994446 182.811588 92.674286 178.756095 92.674286 174.528 
C 92.674286 170.299905 90.994446 166.244412 88.004731 163.254698 
C 85.015016 160.264983 80.959524 158.585143 76.731429 158.585143 
C 72.503333 158.585143 68.447841 160.264983 65.458126 163.254698 
C 62.468411 166.244412 60.788571 170.299905 60.788571 174.528 
C 60.788571 178.756095 62.468411 182.811588 65.458126 185.801302 
C 68.447841 188.791017 72.503333 190.470857 76.731429 190.470857 
z
" clip-path="url(#p21d8fca4ff)" style="fill: #fee090; stroke: #ffffff; stroke-linejoin: miter"/>
   </g>
   <g id="patch_3">
    <path d="M 108.617143 190.470857 
C 112.845238 190.470857 116.900731 188.791017 119.890445 185.801302 
C 122.88016 182.811588 124.56 178.756095 124.56 174.528 
C 124.56 170.299905 122.88016 166.244412 119.890445 163.254698 
C 116.900731 160.264983 112.845238 158.585143 108.617143 158.585143 
C 104.389048 158.585143 100.333555 160.264983 97.34384 163.254698 
C 94.354126 166.244412 92.674286 170.299905 92.674286 174.528 
C 92.674286 178.756095 94.354126 182.811588 97.34384 185.801302 
C 100.333555 188.791017 104.389048 190.470857 108.617143 190.470857 
z
" clip-path="url(#p21d8fca4ff)" style="fill: #fdad60; stroke: #ffffff; stroke-linejoin: miter"/>
   </g>
   <g id="patch_4">
    <path d="M 140.502857 190.470857 
C 144.730952 190.470857 148.786445 188.791017 151.77616 185.801302 
C 154.765874 182.811588 156.445714 178.756095 156.445714 174.528 
C 156.445714 170.299905 154.765874 166.244412 151.77616 163.254698 
C 148.786445 160.264983 144.730952 158.585143 140.502857 158.585143 
C 136.274762 158.585143 132.219269 160.264983 129.229555 163.254698 
C 126.23984 166.244412 124.56 170.299905 124.56 174.528 
C 124.56 178.756095 126.23984 182.811588 129.229555 185.801302 
C 132.219269 188.791017 136.274762 190.470857 140.502857 190.470857 
z
" clip-path="url(#p21d8fca4ff)" style="fill: #f46d43; stroke: #ffffff; stroke-linejoin: miter"/>
   </g>
   <g id="patch_5">
    <path d="M 172.388571 190.470857 
C 176.616667 190.470857 180.672159 188.791017 183.661874 185.801302 
C 186.651589 182.811588 188.331429 178.756095 188.331429 174.528 
C 188.331429 170.299905 186.651589 166.244412 183.661874 163.254698 
C 180.672159 160.264983 176.616667 158.585143 172.388571 158.585143 
C 168.160476 158.585143 164.104984 160.264983 161.115269 163.254698 
C 158.125554 166.244412 156.445714 170.299905 156.445714 174.528 
C 156.445714 178.756095 158.125554 182.811588 161.115269 185.801302 
C 164.104984 188.791017 168.160476 190.470857 172.388571 190.470857 
z
" clip-path="url(#p21d8fca4ff)" style="fill: #d62f27; stroke: #ffffff; stroke-linejoin: miter"/>
   </g>
   <g id="patch_6">
    <path d="M 204.274286 190.470857 
C 208.502381 190.470857 212.557873 188.791017 215.547588 185.801302 
C 218.537303 182.811588 220.217143 178.756095 220.217143 174.528 
C 220.217143 170.299905 218.537303 166.244412 215.547588 163.254698 
C 212.557873 160.264983 208.502381 158.585143 204.274286 158.585143 
C 200.046191 158.585143 195.990698 160.264983 193.000983 163.254698 
C 190.011269 166.244412 188.331429 170.299905 188.331429 174.528 
C 188.331429 178.756095 190.011269 182.811588 193.000983 185.801302 
C 195.990698 188.791017 200.046191 190.470857 204.274286 190.470857 
z
" clip-path="url(#p21d8fca4ff)" style="fill: #a50026; stroke: #ffffff; stroke-linejoin: miter"/>
   </g>
   <g id="patch_7">
    <path d="M 236.16 190.470857 
C 240.388095 190.470857 244.443588 188.791017 247.433302 185.801302 
C 250.423017 182.811588 252.102857 178.756095 252.102857 174.528 
C 252.102857 170.299905 250.423017 166.244412 247.433302 163.254698 
C 244.443588 160.264983 240.388095 158.585143 236.16 158.585143 
C 231.931905 158.585143 227.876412 160.264983 224.886698 163.254698 
C 221.896983 166.244412 220.217143 170.299905 220.217143 174.528 
C 220.217143 178.756095 221.896983 182.811588 224.886698 185.801302 
C 227.876412 188.791017 231.931905 190.470857 236.16 190.470857 
z
" clip-path="url(#p21d8fca4ff)" style="fill: #313695; stroke: #ffffff; stroke-linejoin: miter"/>
   </g>
   <g id="patch_8">
    <path d="M 268.045714 190.470857 
C 272.273809 190.470857 276.329302 188.791017 279.319017 185.801302 
C 282.308731 182.811588 283.988571 178.756095 283.988571 174.528 
C 283.988571 170.299905 282.308731 166.244412 279.319017 163.254698 
C 276.329302 160.264983 272.273809 158.585143 268.045714 158.585143 
C 263.817619 158.585143 259.762127 160.264983 256.772412 163.254698 
C 253.782697 166.244412 252.102857 170.299905 252.102857 174.528 
C 252.102857 178.756095 253.782697 182.811588 256.772412 185.801302 
C 259.762127 188.791017 263.817619 190.470857 268.045714 190.470857 
z
" clip-path="url(#p21d8fca4ff)" style="fill: #4574b3; stroke: #ffffff; stroke-linejoin: miter"/>
   </g>
   <g id="patch_9">
    <path d="M 299.931429 190.470857 
C 304.159524 190.470857 308.215016 188.791017 311.204731 185.801302 
C 314.194446 182.811588 315.874286 178.756095 315.874286 174.528 
C 315.874286 170.299905 314.194446 166.244412 311.204731 163.254698 
C 308.215016 160.264983 304.159524 158.585143 299.931429 158.585143 
C 295.703333 158.585143 291.647841 160.264983 288.658126 163.254698 
C 285.668411 166.244412 283.988571 170.299905 283.988571 174.528 
C 283.988571 178.756095 285.668411 182.811588 288.658126 185.801302 
C 291.647841 188.791017 295.703333 190.470857 299.931429 190.470857 
z
" clip-path="url(#p21d8fca4ff)" style="fill: #74add1; stroke: #ffffff; stroke-linejoin: miter"/>
   </g>
   <g id="patch_10">
    <path d="M 331.817143 190.470857 
C 336.045238 190.470857 340.100731 188.791017 343.090445 185.801302 
C 346.08016 182.811588 347.76 178.756095 347.76 174.528 
C 347.76 170.299905 346.08016 166.244412 343.090445 163.254698 
C 340.100731 160.264983 336.045238 158.585143 331.817143 158.585143 
C 327.589048 158.585143 323.533555 160.264983 320.54384 163.254698 
C 317.554126 166.244412 315.874286 170.299905 315.874286 174.528 
C 315.874286 178.756095 317.554126 182.811588 320.54384 185.801302 
C 323.533555 188.791017 327.589048 190.470857 331.817143 190.470857 
z
" clip-path="url(#p21d8fca4ff)" style="fill: #aad8e9; stroke: #ffffff; stroke-linejoin: miter"/>
   </g>
   <g id="patch_11">
    <path d="M 363.702857 190.470857 
C 367.930952 190.470857 371.986445 188.791017 374.97616 185.801302 
C 377.965874 182.811588 379.645714 178.756095 379.645714 174.528 
C 379.645714 170.299905 377.965874 166.244412 374.97616 163.254698 
C 371.986445 160.264983 367.930952 158.585143 363.702857 158.585143 
C 359.474762 158.585143 355.419269 160.264983 352.429555 163.254698 
C 349.43984 166.244412 347.76 170.299905 347.76 174.528 
C 347.76 178.756095 349.43984 182.811588 352.429555 185.801302 
C 355.419269 188.791017 359.474762 190.470857 363.702857 190.470857 
z
" clip-path="url(#p21d8fca4ff)" style="fill: #e0f3f8; stroke: #ffffff; stroke-linejoin: miter"/>
   </g>
   <g id="text_1">
    <!-- 1.0 -->
    <g style="fill: #262626" transform="translate(69.781429 177.113156) scale(0.1 -0.1)">
     <defs>
      <path id="ArialMT-31" d="M 2384 0 
L 1822 0 
L 1822 3584 
Q 1619 3391 1289 3197 
Q 959 3003 697 2906 
L 697 3450 
Q 1169 3672 1522 3987 
Q 1875 4303 2022 4600 
L 2384 4600 
L 2384 0 
z
" transform="scale(0.015625)"/>
      <path id="ArialMT-2e" d="M 581 0 
L 581 641 
L 1222 641 
L 1222 0 
L 581 0 
z
" transform="scale(0.015625)"/>
      <path id="ArialMT-30" d="M 266 2259 
Q 266 3072 433 3567 
Q 600 4063 929 4331 
Q 1259 4600 1759 4600 
Q 2128 4600 2406 4451 
Q 2684 4303 2865 4023 
Q 3047 3744 3150 3342 
Q 3253 2941 3253 2259 
Q 3253 1453 3087 958 
Q 2922 463 2592 192 
Q 2263 -78 1759 -78 
Q 1097 -78 719 397 
Q 266 969 266 2259 
z
M 844 2259 
Q 844 1131 1108 757 
Q 1372 384 1759 384 
Q 2147 384 2411 759 
Q 2675 1134 2675 2259 
Q 2675 3391 2411 3762 
Q 2147 4134 1753 4134 
Q 1366 4134 1134 3806 
Q 844 3388 844 2259 
z
" transform="scale(0.015625)"/>
     </defs>
     <use xlink:href="#ArialMT-31"/>
     <use xlink:href="#ArialMT-2e" x="55.615234"/>
     <use xlink:href="#ArialMT-30" x="83.398438"/>
    </g>
   </g>
   <g id="text_2">
    <!-- 2.0 -->
    <g style="fill: #262626" transform="translate(101.667143 177.113156) scale(0.1 -0.1)">
     <defs>
      <path id="ArialMT-32" d="M 3222 541 
L 3222 0 
L 194 0 
Q 188 203 259 391 
Q 375 700 629 1000 
Q 884 1300 1366 1694 
Q 2113 2306 2375 2664 
Q 2638 3022 2638 3341 
Q 2638 3675 2398 3904 
Q 2159 4134 1775 4134 
Q 1369 4134 1125 3890 
Q 881 3647 878 3216 
L 300 3275 
Q 359 3922 746 4261 
Q 1134 4600 1788 4600 
Q 2447 4600 2831 4234 
Q 3216 3869 3216 3328 
Q 3216 3053 3103 2787 
Q 2991 2522 2730 2228 
Q 2469 1934 1863 1422 
Q 1356 997 1212 845 
Q 1069 694 975 541 
L 3222 541 
z
" transform="scale(0.015625)"/>
     </defs>
     <use xlink:href="#ArialMT-32"/>
     <use xlink:href="#ArialMT-2e" x="55.615234"/>
     <use xlink:href="#ArialMT-30" x="83.398438"/>
    </g>
   </g>
   <g id="text_3">
    <!-- 3.0 -->
    <g style="fill: #262626" transform="translate(133.552857 177.113156) scale(0.1 -0.1)">
     <defs>
      <path id="ArialMT-33" d="M 269 1209 
L 831 1284 
Q 928 806 1161 595 
Q 1394 384 1728 384 
Q 2125 384 2398 659 
Q 2672 934 2672 1341 
Q 2672 1728 2419 1979 
Q 2166 2231 1775 2231 
Q 1616 2231 1378 2169 
L 1441 2663 
Q 1497 2656 1531 2656 
Q 1891 2656 2178 2843 
Q 2466 3031 2466 3422 
Q 2466 3731 2256 3934 
Q 2047 4138 1716 4138 
Q 1388 4138 1169 3931 
Q 950 3725 888 3313 
L 325 3413 
Q 428 3978 793 4289 
Q 1159 4600 1703 4600 
Q 2078 4600 2393 4439 
Q 2709 4278 2876 4000 
Q 3044 3722 3044 3409 
Q 3044 3113 2884 2869 
Q 2725 2625 2413 2481 
Q 2819 2388 3044 2092 
Q 3269 1797 3269 1353 
Q 3269 753 2831 336 
Q 2394 -81 1725 -81 
Q 1122 -81 723 278 
Q 325 638 269 1209 
z
" transform="scale(0.015625)"/>
     </defs>
     <use xlink:href="#ArialMT-33"/>
     <use xlink:href="#ArialMT-2e" x="55.615234"/>
     <use xlink:href="#ArialMT-30" x="83.398438"/>
    </g>
   </g>
   <g id="text_4">
    <!-- 4.0 -->
    <g style="fill: #262626" transform="translate(165.438571 177.113156) scale(0.1 -0.1)">
     <defs>
      <path id="ArialMT-34" d="M 2069 0 
L 2069 1097 
L 81 1097 
L 81 1613 
L 2172 4581 
L 2631 4581 
L 2631 1613 
L 3250 1613 
L 3250 1097 
L 2631 1097 
L 2631 0 
L 2069 0 
z
M 2069 1613 
L 2069 3678 
L 634 1613 
L 2069 1613 
z
" transform="scale(0.015625)"/>
     </defs>
     <use xlink:href="#ArialMT-34"/>
     <use xlink:href="#ArialMT-2e" x="55.615234"/>
     <use xlink:href="#ArialMT-30" x="83.398438"/>
    </g>
   </g>
   <g id="text_5">
    <!-- 5.0 -->
    <g style="fill: #262626" transform="translate(197.324286 177.113156) scale(0.1 -0.1)">
     <defs>
      <path id="ArialMT-35" d="M 266 1200 
L 856 1250 
Q 922 819 1161 601 
Q 1400 384 1738 384 
Q 2144 384 2425 690 
Q 2706 997 2706 1503 
Q 2706 1984 2436 2262 
Q 2166 2541 1728 2541 
Q 1456 2541 1237 2417 
Q 1019 2294 894 2097 
L 366 2166 
L 809 4519 
L 3088 4519 
L 3088 3981 
L 1259 3981 
L 1013 2750 
Q 1425 3038 1878 3038 
Q 2478 3038 2890 2622 
Q 3303 2206 3303 1553 
Q 3303 931 2941 478 
Q 2500 -78 1738 -78 
Q 1113 -78 717 272 
Q 322 622 266 1200 
z
" transform="scale(0.015625)"/>
     </defs>
     <use xlink:href="#ArialMT-35"/>
     <use xlink:href="#ArialMT-2e" x="55.615234"/>
     <use xlink:href="#ArialMT-30" x="83.398438"/>
    </g>
   </g>
   <g id="text_6">
    <!-- -5.0 -->
    <g style="fill: #262626" transform="translate(227.545156 177.113156) scale(0.1 -0.1)">
     <defs>
      <path id="ArialMT-2d" d="M 203 1375 
L 203 1941 
L 1931 1941 
L 1931 1375 
L 203 1375 
z
" transform="scale(0.015625)"/>
     </defs>
     <use xlink:href="#ArialMT-2d"/>
     <use xlink:href="#ArialMT-35" x="33.300781"/>
     <use xlink:href="#ArialMT-2e" x="88.916016"/>
     <use xlink:href="#ArialMT-30" x="116.699219"/>
    </g>
   </g>
   <g id="text_7">
    <!-- -4.0 -->
    <g style="fill: #262626" transform="translate(259.430871 177.113156) scale(0.1 -0.1)">
     <use xlink:href="#ArialMT-2d"/>
     <use xlink:href="#ArialMT-34" x="33.300781"/>
     <use xlink:href="#ArialMT-2e" x="88.916016"/>
     <use xlink:href="#ArialMT-30" x="116.699219"/>
    </g>
   </g>
   <g id="text_8">
    <!-- -3.0 -->
    <g style="fill: #262626" transform="translate(291.316585 177.113156) scale(0.1 -0.1)">
     <use xlink:href="#ArialMT-2d"/>
     <use xlink:href="#ArialMT-33" x="33.300781"/>
     <use xlink:href="#ArialMT-2e" x="88.916016"/>
     <use xlink:href="#ArialMT-30" x="116.699219"/>
    </g>
   </g>
   <g id="text_9">
    <!-- -2.0 -->
    <g style="fill: #262626" transform="translate(323.202299 177.113156) scale(0.1 -0.1)">
     <use xlink:href="#ArialMT-2d"/>
     <use xlink:href="#ArialMT-32" x="33.300781"/>
     <use xlink:href="#ArialMT-2e" x="88.916016"/>
     <use xlink:href="#ArialMT-30" x="116.699219"/>
    </g>
   </g>
   <g id="text_10">
    <!-- -1.0 -->
    <g style="fill: #262626" transform="translate(355.088013 177.113156) scale(0.1 -0.1)">
     <use xlink:href="#ArialMT-2d"/>
     <use xlink:href="#ArialMT-31" x="33.300781"/>
     <use xlink:href="#ArialMT-2e" x="88.916016"/>
     <use xlink:href="#ArialMT-30" x="116.699219"/>
    </g>
   </g>
  </g>
 </g>
 <defs>
  <clipPath id="p21d8fca4ff">
   <rect x="57.6" y="155.396571" width="357.12" height="38.262857"/>
  </clipPath>
 </defs>
</svg>
