<?xml version="1.0" encoding="utf-8" standalone="no"?>
<!DOCTYPE svg PUBLIC "-//W3C//DTD SVG 1.1//EN"
  "http://www.w3.org/Graphics/SVG/1.1/DTD/svg11.dtd">
<svg xmlns:xlink="http://www.w3.org/1999/xlink" width="460.8pt" height="345.6pt" viewBox="0 0 460.8 345.6" xmlns="http://www.w3.org/2000/svg" version="1.1">
 <metadata>
  <rdf:RDF xmlns:dc="http://purl.org/dc/elements/1.1/" xmlns:cc="http://creativecommons.org/ns#" xmlns:rdf="http://www.w3.org/1999/02/22-rdf-syntax-ns#">
   <cc:Work>
    <dc:type rdf:resource="http://purl.org/dc/dcmitype/StillImage"/>
    <dc:date>2024-12-06T00:49:33.306018</dc:date>
    <dc:format>image/svg+xml</dc:format>
    <dc:creator>
     <cc:Agent>
      <dc:title>Matplotlib v3.9.3, https://matplotlib.org/</dc:title>
     </cc:Agent>
    </dc:creator>
   </cc:Work>
  </rdf:RDF>
 </metadata>
 <defs>
  <style type="text/css">*{stroke-linejoin: round; stroke-linecap: butt}</style>
 </defs>
 <g id="figure_1">
  <g id="patch_1">
   <path d="M 0 345.6 
L 460.8 345.6 
L 460.8 0 
L 0 0 
z
" style="fill: #ffffff"/>
  </g>
  <g id="axes_1">
   <g id="patch_2">
    <path d="M 68.76 183.828 
C 71.226389 183.828 73.592093 182.848093 75.336093 181.104093 
C 77.080093 179.360093 78.06 176.994389 78.06 174.528 
C 78.06 172.061611 77.080093 169.695907 75.336093 167.951907 
C 73.592093 166.207907 71.226389 165.228 68.76 165.228 
C 66.293611 165.228 63.927907 166.207907 62.183907 167.951907 
C 60.439907 169.695907 59.46 172.061611 59.46 174.528 
C 59.46 176.994389 60.439907 179.360093 62.183907 181.104093 
C 63.927907 182.848093 66.293611 183.828 68.76 183.828 
z
" clip-path="url(#pc4afc5b1f0)" style="fill: #3a54a4; stroke: #ffffff; stroke-linejoin: miter"/>
   </g>
   <g id="patch_3">
    <path d="M 87.36 183.828 
C 89.826389 183.828 92.192093 182.848093 93.936093 181.104093 
C 95.680093 179.360093 96.66 176.994389 96.66 174.528 
C 96.66 172.061611 95.680093 169.695907 93.936093 167.951907 
C 92.192093 166.207907 89.826389 165.228 87.36 165.228 
C 84.893611 165.228 82.527907 166.207907 80.783907 167.951907 
C 79.039907 169.695907 78.06 172.061611 78.06 174.528 
C 78.06 176.994389 79.039907 179.360093 80.783907 181.104093 
C 82.527907 182.848093 84.893611 183.828 87.36 183.828 
z
" clip-path="url(#pc4afc5b1f0)" style="fill: #4574b3; stroke: #ffffff; stroke-linejoin: miter"/>
   </g>
   <g id="patch_4">
    <path d="M 105.96 183.828 
C 108.426389 183.828 110.792093 182.848093 112.536093 181.104093 
C 114.280093 179.360093 115.26 176.994389 115.26 174.528 
C 115.26 172.061611 114.280093 169.695907 112.536093 167.951907 
C 110.792093 166.207907 108.426389 165.228 105.96 165.228 
C 103.493611 165.228 101.127907 166.207907 99.383907 167.951907 
C 97.639907 169.695907 96.66 172.061611 96.66 174.528 
C 96.66 176.994389 97.639907 179.360093 99.383907 181.104093 
C 101.127907 182.848093 103.493611 183.828 105.96 183.828 
z
" clip-path="url(#pc4afc5b1f0)" style="fill: #5c90c2; stroke: #ffffff; stroke-linejoin: miter"/>
   </g>
   <g id="patch_5">
    <path d="M 124.56 183.828 
C 127.026389 183.828 129.392093 182.848093 131.136093 181.104093 
C 132.880093 179.360093 133.86 176.994389 133.86 174.528 
C 133.86 172.061611 132.880093 169.695907 131.136093 167.951907 
C 129.392093 166.207907 127.026389 165.228 124.56 165.228 
C 122.093611 165.228 119.727907 166.207907 117.983907 167.951907 
C 116.239907 169.695907 115.26 172.061611 115.26 174.528 
C 115.26 176.994389 116.239907 179.360093 117.983907 181.104093 
C 119.727907 182.848093 122.093611 183.828 124.56 183.828 
z
" clip-path="url(#pc4afc5b1f0)" style="fill: #74add1; stroke: #ffffff; stroke-linejoin: miter"/>
   </g>
   <g id="patch_6">
    <path d="M 143.16 183.828 
C 145.626389 183.828 147.992093 182.848093 149.736093 181.104093 
C 151.480093 179.360093 152.46 176.994389 152.46 174.528 
C 152.46 172.061611 151.480093 169.695907 149.736093 167.951907 
C 147.992093 166.207907 145.626389 165.228 143.16 165.228 
C 140.693611 165.228 138.327907 166.207907 136.583907 167.951907 
C 134.839907 169.695907 133.86 172.061611 133.86 174.528 
C 133.86 176.994389 134.839907 179.360093 136.583907 181.104093 
C 138.327907 182.848093 140.693611 183.828 143.16 183.828 
z
" clip-path="url(#pc4afc5b1f0)" style="fill: #90c3dd; stroke: #ffffff; stroke-linejoin: miter"/>
   </g>
   <g id="patch_7">
    <path d="M 161.76 183.828 
C 164.226389 183.828 166.592093 182.848093 168.336093 181.104093 
C 170.080093 179.360093 171.06 176.994389 171.06 174.528 
C 171.06 172.061611 170.080093 169.695907 168.336093 167.951907 
C 166.592093 166.207907 164.226389 165.228 161.76 165.228 
C 159.293611 165.228 156.927907 166.207907 155.183907 167.951907 
C 153.439907 169.695907 152.46 172.061611 152.46 174.528 
C 152.46 176.994389 153.439907 179.360093 155.183907 181.104093 
C 156.927907 182.848093 159.293611 183.828 161.76 183.828 
z
" clip-path="url(#pc4afc5b1f0)" style="fill: #aad8e9; stroke: #ffffff; stroke-linejoin: miter"/>
   </g>
   <g id="patch_8">
    <path d="M 180.36 183.828 
C 182.826389 183.828 185.192093 182.848093 186.936093 181.104093 
C 188.680093 179.360093 189.66 176.994389 189.66 174.528 
C 189.66 172.061611 188.680093 169.695907 186.936093 167.951907 
C 185.192093 166.207907 182.826389 165.228 180.36 165.228 
C 177.893611 165.228 175.527907 166.207907 173.783907 167.951907 
C 172.039907 169.695907 171.06 172.061611 171.06 174.528 
C 171.06 176.994389 172.039907 179.360093 173.783907 181.104093 
C 175.527907 182.848093 177.893611 183.828 180.36 183.828 
z
" clip-path="url(#pc4afc5b1f0)" style="fill: #c5e6f0; stroke: #ffffff; stroke-linejoin: miter"/>
   </g>
   <g id="patch_9">
    <path d="M 198.96 183.828 
C 201.426389 183.828 203.792093 182.848093 205.536093 181.104093 
C 207.280093 179.360093 208.26 176.994389 208.26 174.528 
C 208.26 172.061611 207.280093 169.695907 205.536093 167.951907 
C 203.792093 166.207907 201.426389 165.228 198.96 165.228 
C 196.493611 165.228 194.127907 166.207907 192.383907 167.951907 
C 190.639907 169.695907 189.66 172.061611 189.66 174.528 
C 189.66 176.994389 190.639907 179.360093 192.383907 181.104093 
C 194.127907 182.848093 196.493611 183.828 198.96 183.828 
z
" clip-path="url(#pc4afc5b1f0)" style="fill: #e0f3f8; stroke: #ffffff; stroke-linejoin: miter"/>
   </g>
   <g id="patch_10">
    <path d="M 217.56 183.828 
C 220.026389 183.828 222.392093 182.848093 224.136093 181.104093 
C 225.880093 179.360093 226.86 176.994389 226.86 174.528 
C 226.86 172.061611 225.880093 169.695907 224.136093 167.951907 
C 222.392093 166.207907 220.026389 165.228 217.56 165.228 
C 215.093611 165.228 212.727907 166.207907 210.983907 167.951907 
C 209.239907 169.695907 208.26 172.061611 208.26 174.528 
C 208.26 176.994389 209.239907 179.360093 210.983907 181.104093 
C 212.727907 182.848093 215.093611 183.828 217.56 183.828 
z
" clip-path="url(#pc4afc5b1f0)" style="fill: #f0f9db; stroke: #ffffff; stroke-linejoin: miter"/>
   </g>
   <g id="patch_11">
    <path d="M 236.16 183.828 
C 238.626389 183.828 240.992093 182.848093 242.736093 181.104093 
C 244.480093 179.360093 245.46 176.994389 245.46 174.528 
C 245.46 172.061611 244.480093 169.695907 242.736093 167.951907 
C 240.992093 166.207907 238.626389 165.228 236.16 165.228 
C 233.693611 165.228 231.327907 166.207907 229.583907 167.951907 
C 227.839907 169.695907 226.86 172.061611 226.86 174.528 
C 226.86 176.994389 227.839907 179.360093 229.583907 181.104093 
C 231.327907 182.848093 233.693611 183.828 236.16 183.828 
z
" clip-path="url(#pc4afc5b1f0)" style="fill: #fffebe; stroke: #ffffff; stroke-linejoin: miter"/>
   </g>
   <g id="patch_12">
    <path d="M 254.76 183.828 
C 257.226389 183.828 259.592093 182.848093 261.336093 181.104093 
C 263.080093 179.360093 264.06 176.994389 264.06 174.528 
C 264.06 172.061611 263.080093 169.695907 261.336093 167.951907 
C 259.592093 166.207907 257.226389 165.228 254.76 165.228 
C 252.293611 165.228 249.927907 166.207907 248.183907 167.951907 
C 246.439907 169.695907 245.46 172.061611 245.46 174.528 
C 245.46 176.994389 246.439907 179.360093 248.183907 181.104093 
C 249.927907 182.848093 252.293611 183.828 254.76 183.828 
z
" clip-path="url(#pc4afc5b1f0)" style="fill: #fff0a8; stroke: #ffffff; stroke-linejoin: miter"/>
   </g>
   <g id="patch_13">
    <path d="M 273.36 183.828 
C 275.826389 183.828 278.192093 182.848093 279.936093 181.104093 
C 281.680093 179.360093 282.66 176.994389 282.66 174.528 
C 282.66 172.061611 281.680093 169.695907 279.936093 167.951907 
C 278.192093 166.207907 275.826389 165.228 273.36 165.228 
C 270.893611 165.228 268.527907 166.207907 266.783907 167.951907 
C 265.039907 169.695907 264.06 172.061611 264.06 174.528 
C 264.06 176.994389 265.039907 179.360093 266.783907 181.104093 
C 268.527907 182.848093 270.893611 183.828 273.36 183.828 
z
" clip-path="url(#pc4afc5b1f0)" style="fill: #fee090; stroke: #ffffff; stroke-linejoin: miter"/>
   </g>
   <g id="patch_14">
    <path d="M 291.96 183.828 
C 294.426389 183.828 296.792093 182.848093 298.536093 181.104093 
C 300.280093 179.360093 301.26 176.994389 301.26 174.528 
C 301.26 172.061611 300.280093 169.695907 298.536093 167.951907 
C 296.792093 166.207907 294.426389 165.228 291.96 165.228 
C 289.493611 165.228 287.127907 166.207907 285.383907 167.951907 
C 283.639907 169.695907 282.66 172.061611 282.66 174.528 
C 282.66 176.994389 283.639907 179.360093 285.383907 181.104093 
C 287.127907 182.848093 289.493611 183.828 291.96 183.828 
z
" clip-path="url(#pc4afc5b1f0)" style="fill: #fdc778; stroke: #ffffff; stroke-linejoin: miter"/>
   </g>
   <g id="patch_15">
    <path d="M 310.56 183.828 
C 313.026389 183.828 315.392093 182.848093 317.136093 181.104093 
C 318.880093 179.360093 319.86 176.994389 319.86 174.528 
C 319.86 172.061611 318.880093 169.695907 317.136093 167.951907 
C 315.392093 166.207907 313.026389 165.228 310.56 165.228 
C 308.093611 165.228 305.727907 166.207907 303.983907 167.951907 
C 302.239907 169.695907 301.26 172.061611 301.26 174.528 
C 301.26 176.994389 302.239907 179.360093 303.983907 181.104093 
C 305.727907 182.848093 308.093611 183.828 310.56 183.828 
z
" clip-path="url(#pc4afc5b1f0)" style="fill: #fdad60; stroke: #ffffff; stroke-linejoin: miter"/>
   </g>
   <g id="patch_16">
    <path d="M 329.16 183.828 
C 331.626389 183.828 333.992093 182.848093 335.736093 181.104093 
C 337.480093 179.360093 338.46 176.994389 338.46 174.528 
C 338.46 172.061611 337.480093 169.695907 335.736093 167.951907 
C 333.992093 166.207907 331.626389 165.228 329.16 165.228 
C 326.693611 165.228 324.327907 166.207907 322.583907 167.951907 
C 320.839907 169.695907 319.86 172.061611 319.86 174.528 
C 319.86 176.994389 320.839907 179.360093 322.583907 181.104093 
C 324.327907 182.848093 326.693611 183.828 329.16 183.828 
z
" clip-path="url(#pc4afc5b1f0)" style="fill: #f88c51; stroke: #ffffff; stroke-linejoin: miter"/>
   </g>
   <g id="patch_17">
    <path d="M 347.76 183.828 
C 350.226389 183.828 352.592093 182.848093 354.336093 181.104093 
C 356.080093 179.360093 357.06 176.994389 357.06 174.528 
C 357.06 172.061611 356.080093 169.695907 354.336093 167.951907 
C 352.592093 166.207907 350.226389 165.228 347.76 165.228 
C 345.293611 165.228 342.927907 166.207907 341.183907 167.951907 
C 339.439907 169.695907 338.46 172.061611 338.46 174.528 
C 338.46 176.994389 339.439907 179.360093 341.183907 181.104093 
C 342.927907 182.848093 345.293611 183.828 347.76 183.828 
z
" clip-path="url(#pc4afc5b1f0)" style="fill: #f46d43; stroke: #ffffff; stroke-linejoin: miter"/>
   </g>
   <g id="patch_18">
    <path d="M 366.36 183.828 
C 368.826389 183.828 371.192093 182.848093 372.936093 181.104093 
C 374.680093 179.360093 375.66 176.994389 375.66 174.528 
C 375.66 172.061611 374.680093 169.695907 372.936093 167.951907 
C 371.192093 166.207907 368.826389 165.228 366.36 165.228 
C 363.893611 165.228 361.527907 166.207907 359.783907 167.951907 
C 358.039907 169.695907 357.06 172.061611 357.06 174.528 
C 357.06 176.994389 358.039907 179.360093 359.783907 181.104093 
C 361.527907 182.848093 363.893611 183.828 366.36 183.828 
z
" clip-path="url(#pc4afc5b1f0)" style="fill: #e54e35; stroke: #ffffff; stroke-linejoin: miter"/>
   </g>
   <g id="patch_19">
    <path d="M 384.96 183.828 
C 387.426389 183.828 389.792093 182.848093 391.536093 181.104093 
C 393.280093 179.360093 394.26 176.994389 394.26 174.528 
C 394.26 172.061611 393.280093 169.695907 391.536093 167.951907 
C 389.792093 166.207907 387.426389 165.228 384.96 165.228 
C 382.493611 165.228 380.127907 166.207907 378.383907 167.951907 
C 376.639907 169.695907 375.66 172.061611 375.66 174.528 
C 375.66 176.994389 376.639907 179.360093 378.383907 181.104093 
C 380.127907 182.848093 382.493611 183.828 384.96 183.828 
z
" clip-path="url(#pc4afc5b1f0)" style="fill: #d62f27; stroke: #ffffff; stroke-linejoin: miter"/>
   </g>
   <g id="text_1">
    <!-- -9.0 -->
    <g style="fill: #262626" transform="translate(60.145156 177.113156) scale(0.1 -0.1)">
     <defs>
      <path id="ArialMT-2d" d="M 203 1375 
L 203 1941 
L 1931 1941 
L 1931 1375 
L 203 1375 
z
" transform="scale(0.015625)"/>
      <path id="ArialMT-39" d="M 350 1059 
L 891 1109 
Q 959 728 1153 556 
Q 1347 384 1650 384 
Q 1909 384 2104 503 
Q 2300 622 2425 820 
Q 2550 1019 2634 1356 
Q 2719 1694 2719 2044 
Q 2719 2081 2716 2156 
Q 2547 1888 2255 1720 
Q 1963 1553 1622 1553 
Q 1053 1553 659 1965 
Q 266 2378 266 3053 
Q 266 3750 677 4175 
Q 1088 4600 1706 4600 
Q 2153 4600 2523 4359 
Q 2894 4119 3086 3673 
Q 3278 3228 3278 2384 
Q 3278 1506 3087 986 
Q 2897 466 2520 194 
Q 2144 -78 1638 -78 
Q 1100 -78 759 220 
Q 419 519 350 1059 
z
M 2653 3081 
Q 2653 3566 2395 3850 
Q 2138 4134 1775 4134 
Q 1400 4134 1122 3828 
Q 844 3522 844 3034 
Q 844 2597 1108 2323 
Q 1372 2050 1759 2050 
Q 2150 2050 2401 2323 
Q 2653 2597 2653 3081 
z
" transform="scale(0.015625)"/>
      <path id="ArialMT-2e" d="M 581 0 
L 581 641 
L 1222 641 
L 1222 0 
L 581 0 
z
" transform="scale(0.015625)"/>
      <path id="ArialMT-30" d="M 266 2259 
Q 266 3072 433 3567 
Q 600 4063 929 4331 
Q 1259 4600 1759 4600 
Q 2128 4600 2406 4451 
Q 2684 4303 2865 4023 
Q 3047 3744 3150 3342 
Q 3253 2941 3253 2259 
Q 3253 1453 3087 958 
Q 2922 463 2592 192 
Q 2263 -78 1759 -78 
Q 1097 -78 719 397 
Q 266 969 266 2259 
z
M 844 2259 
Q 844 1131 1108 757 
Q 1372 384 1759 384 
Q 2147 384 2411 759 
Q 2675 1134 2675 2259 
Q 2675 3391 2411 3762 
Q 2147 4134 1753 4134 
Q 1366 4134 1134 3806 
Q 844 3388 844 2259 
z
" transform="scale(0.015625)"/>
     </defs>
     <use xlink:href="#ArialMT-2d"/>
     <use xlink:href="#ArialMT-39" x="33.300781"/>
     <use xlink:href="#ArialMT-2e" x="88.916016"/>
     <use xlink:href="#ArialMT-30" x="116.699219"/>
    </g>
   </g>
   <g id="text_2">
    <!-- -8.0 -->
    <g style="fill: #262626" transform="translate(78.745156 177.113156) scale(0.1 -0.1)">
     <defs>
      <path id="ArialMT-38" d="M 1131 2484 
Q 781 2613 612 2850 
Q 444 3088 444 3419 
Q 444 3919 803 4259 
Q 1163 4600 1759 4600 
Q 2359 4600 2725 4251 
Q 3091 3903 3091 3403 
Q 3091 3084 2923 2848 
Q 2756 2613 2416 2484 
Q 2838 2347 3058 2040 
Q 3278 1734 3278 1309 
Q 3278 722 2862 322 
Q 2447 -78 1769 -78 
Q 1091 -78 675 323 
Q 259 725 259 1325 
Q 259 1772 486 2073 
Q 713 2375 1131 2484 
z
M 1019 3438 
Q 1019 3113 1228 2906 
Q 1438 2700 1772 2700 
Q 2097 2700 2305 2904 
Q 2513 3109 2513 3406 
Q 2513 3716 2298 3927 
Q 2084 4138 1766 4138 
Q 1444 4138 1231 3931 
Q 1019 3725 1019 3438 
z
M 838 1322 
Q 838 1081 952 856 
Q 1066 631 1291 507 
Q 1516 384 1775 384 
Q 2178 384 2440 643 
Q 2703 903 2703 1303 
Q 2703 1709 2433 1975 
Q 2163 2241 1756 2241 
Q 1359 2241 1098 1978 
Q 838 1716 838 1322 
z
" transform="scale(0.015625)"/>
     </defs>
     <use xlink:href="#ArialMT-2d"/>
     <use xlink:href="#ArialMT-38" x="33.300781"/>
     <use xlink:href="#ArialMT-2e" x="88.916016"/>
     <use xlink:href="#ArialMT-30" x="116.699219"/>
    </g>
   </g>
   <g id="text_3">
    <!-- -7.0 -->
    <g style="fill: #262626" transform="translate(97.345156 177.113156) scale(0.1 -0.1)">
     <defs>
      <path id="ArialMT-37" d="M 303 3981 
L 303 4522 
L 3269 4522 
L 3269 4084 
Q 2831 3619 2401 2847 
Q 1972 2075 1738 1259 
Q 1569 684 1522 0 
L 944 0 
Q 953 541 1156 1306 
Q 1359 2072 1739 2783 
Q 2119 3494 2547 3981 
L 303 3981 
z
" transform="scale(0.015625)"/>
     </defs>
     <use xlink:href="#ArialMT-2d"/>
     <use xlink:href="#ArialMT-37" x="33.300781"/>
     <use xlink:href="#ArialMT-2e" x="88.916016"/>
     <use xlink:href="#ArialMT-30" x="116.699219"/>
    </g>
   </g>
   <g id="text_4">
    <!-- -6.0 -->
    <g style="fill: #262626" transform="translate(115.945156 177.113156) scale(0.1 -0.1)">
     <defs>
      <path id="ArialMT-36" d="M 3184 3459 
L 2625 3416 
Q 2550 3747 2413 3897 
Q 2184 4138 1850 4138 
Q 1581 4138 1378 3988 
Q 1113 3794 959 3422 
Q 806 3050 800 2363 
Q 1003 2672 1297 2822 
Q 1591 2972 1913 2972 
Q 2475 2972 2870 2558 
Q 3266 2144 3266 1488 
Q 3266 1056 3080 686 
Q 2894 316 2569 119 
Q 2244 -78 1831 -78 
Q 1128 -78 684 439 
Q 241 956 241 2144 
Q 241 3472 731 4075 
Q 1159 4600 1884 4600 
Q 2425 4600 2770 4297 
Q 3116 3994 3184 3459 
z
M 888 1484 
Q 888 1194 1011 928 
Q 1134 663 1356 523 
Q 1578 384 1822 384 
Q 2178 384 2434 671 
Q 2691 959 2691 1453 
Q 2691 1928 2437 2201 
Q 2184 2475 1800 2475 
Q 1419 2475 1153 2201 
Q 888 1928 888 1484 
z
" transform="scale(0.015625)"/>
     </defs>
     <use xlink:href="#ArialMT-2d"/>
     <use xlink:href="#ArialMT-36" x="33.300781"/>
     <use xlink:href="#ArialMT-2e" x="88.916016"/>
     <use xlink:href="#ArialMT-30" x="116.699219"/>
    </g>
   </g>
   <g id="text_5">
    <!-- -5.0 -->
    <g style="fill: #262626" transform="translate(134.545156 177.113156) scale(0.1 -0.1)">
     <defs>
      <path id="ArialMT-35" d="M 266 1200 
L 856 1250 
Q 922 819 1161 601 
Q 1400 384 1738 384 
Q 2144 384 2425 690 
Q 2706 997 2706 1503 
Q 2706 1984 2436 2262 
Q 2166 2541 1728 2541 
Q 1456 2541 1237 2417 
Q 1019 2294 894 2097 
L 366 2166 
L 809 4519 
L 3088 4519 
L 3088 3981 
L 1259 3981 
L 1013 2750 
Q 1425 3038 1878 3038 
Q 2478 3038 2890 2622 
Q 3303 2206 3303 1553 
Q 3303 931 2941 478 
Q 2500 -78 1738 -78 
Q 1113 -78 717 272 
Q 322 622 266 1200 
z
" transform="scale(0.015625)"/>
     </defs>
     <use xlink:href="#ArialMT-2d"/>
     <use xlink:href="#ArialMT-35" x="33.300781"/>
     <use xlink:href="#ArialMT-2e" x="88.916016"/>
     <use xlink:href="#ArialMT-30" x="116.699219"/>
    </g>
   </g>
   <g id="text_6">
    <!-- -4.0 -->
    <g style="fill: #262626" transform="translate(153.145156 177.113156) scale(0.1 -0.1)">
     <defs>
      <path id="ArialMT-34" d="M 2069 0 
L 2069 1097 
L 81 1097 
L 81 1613 
L 2172 4581 
L 2631 4581 
L 2631 1613 
L 3250 1613 
L 3250 1097 
L 2631 1097 
L 2631 0 
L 2069 0 
z
M 2069 1613 
L 2069 3678 
L 634 1613 
L 2069 1613 
z
" transform="scale(0.015625)"/>
     </defs>
     <use xlink:href="#ArialMT-2d"/>
     <use xlink:href="#ArialMT-34" x="33.300781"/>
     <use xlink:href="#ArialMT-2e" x="88.916016"/>
     <use xlink:href="#ArialMT-30" x="116.699219"/>
    </g>
   </g>
   <g id="text_7">
    <!-- -3.0 -->
    <g style="fill: #262626" transform="translate(171.745156 177.113156) scale(0.1 -0.1)">
     <defs>
      <path id="ArialMT-33" d="M 269 1209 
L 831 1284 
Q 928 806 1161 595 
Q 1394 384 1728 384 
Q 2125 384 2398 659 
Q 2672 934 2672 1341 
Q 2672 1728 2419 1979 
Q 2166 2231 1775 2231 
Q 1616 2231 1378 2169 
L 1441 2663 
Q 1497 2656 1531 2656 
Q 1891 2656 2178 2843 
Q 2466 3031 2466 3422 
Q 2466 3731 2256 3934 
Q 2047 4138 1716 4138 
Q 1388 4138 1169 3931 
Q 950 3725 888 3313 
L 325 3413 
Q 428 3978 793 4289 
Q 1159 4600 1703 4600 
Q 2078 4600 2393 4439 
Q 2709 4278 2876 4000 
Q 3044 3722 3044 3409 
Q 3044 3113 2884 2869 
Q 2725 2625 2413 2481 
Q 2819 2388 3044 2092 
Q 3269 1797 3269 1353 
Q 3269 753 2831 336 
Q 2394 -81 1725 -81 
Q 1122 -81 723 278 
Q 325 638 269 1209 
z
" transform="scale(0.015625)"/>
     </defs>
     <use xlink:href="#ArialMT-2d"/>
     <use xlink:href="#ArialMT-33" x="33.300781"/>
     <use xlink:href="#ArialMT-2e" x="88.916016"/>
     <use xlink:href="#ArialMT-30" x="116.699219"/>
    </g>
   </g>
   <g id="text_8">
    <!-- -2.0 -->
    <g style="fill: #262626" transform="translate(190.345156 177.113156) scale(0.1 -0.1)">
     <defs>
      <path id="ArialMT-32" d="M 3222 541 
L 3222 0 
L 194 0 
Q 188 203 259 391 
Q 375 700 629 1000 
Q 884 1300 1366 1694 
Q 2113 2306 2375 2664 
Q 2638 3022 2638 3341 
Q 2638 3675 2398 3904 
Q 2159 4134 1775 4134 
Q 1369 4134 1125 3890 
Q 881 3647 878 3216 
L 300 3275 
Q 359 3922 746 4261 
Q 1134 4600 1788 4600 
Q 2447 4600 2831 4234 
Q 3216 3869 3216 3328 
Q 3216 3053 3103 2787 
Q 2991 2522 2730 2228 
Q 2469 1934 1863 1422 
Q 1356 997 1212 845 
Q 1069 694 975 541 
L 3222 541 
z
" transform="scale(0.015625)"/>
     </defs>
     <use xlink:href="#ArialMT-2d"/>
     <use xlink:href="#ArialMT-32" x="33.300781"/>
     <use xlink:href="#ArialMT-2e" x="88.916016"/>
     <use xlink:href="#ArialMT-30" x="116.699219"/>
    </g>
   </g>
   <g id="text_9">
    <!-- -1.0 -->
    <g style="fill: #262626" transform="translate(208.945156 177.113156) scale(0.1 -0.1)">
     <defs>
      <path id="ArialMT-31" d="M 2384 0 
L 1822 0 
L 1822 3584 
Q 1619 3391 1289 3197 
Q 959 3003 697 2906 
L 697 3450 
Q 1169 3672 1522 3987 
Q 1875 4303 2022 4600 
L 2384 4600 
L 2384 0 
z
" transform="scale(0.015625)"/>
     </defs>
     <use xlink:href="#ArialMT-2d"/>
     <use xlink:href="#ArialMT-31" x="33.300781"/>
     <use xlink:href="#ArialMT-2e" x="88.916016"/>
     <use xlink:href="#ArialMT-30" x="116.699219"/>
    </g>
   </g>
   <g id="text_10">
    <!-- 0.0 -->
    <g style="fill: #262626" transform="translate(229.21 177.113156) scale(0.1 -0.1)">
     <use xlink:href="#ArialMT-30"/>
     <use xlink:href="#ArialMT-2e" x="55.615234"/>
     <use xlink:href="#ArialMT-30" x="83.398438"/>
    </g>
   </g>
   <g id="text_11">
    <!-- 1.0 -->
    <g style="fill: #262626" transform="translate(247.81 177.113156) scale(0.1 -0.1)">
     <use xlink:href="#ArialMT-31"/>
     <use xlink:href="#ArialMT-2e" x="55.615234"/>
     <use xlink:href="#ArialMT-30" x="83.398438"/>
    </g>
   </g>
   <g id="text_12">
    <!-- 2.0 -->
    <g style="fill: #262626" transform="translate(266.41 177.113156) scale(0.1 -0.1)">
     <use xlink:href="#ArialMT-32"/>
     <use xlink:href="#ArialMT-2e" x="55.615234"/>
     <use xlink:href="#ArialMT-30" x="83.398438"/>
    </g>
   </g>
   <g id="text_13">
    <!-- 3.0 -->
    <g style="fill: #262626" transform="translate(285.01 177.113156) scale(0.1 -0.1)">
     <use xlink:href="#ArialMT-33"/>
     <use xlink:href="#ArialMT-2e" x="55.615234"/>
     <use xlink:href="#ArialMT-30" x="83.398438"/>
    </g>
   </g>
   <g id="text_14">
    <!-- 4.0 -->
    <g style="fill: #262626" transform="translate(303.61 177.113156) scale(0.1 -0.1)">
     <use xlink:href="#ArialMT-34"/>
     <use xlink:href="#ArialMT-2e" x="55.615234"/>
     <use xlink:href="#ArialMT-30" x="83.398438"/>
    </g>
   </g>
   <g id="text_15">
    <!-- 5.0 -->
    <g style="fill: #262626" transform="translate(322.21 177.113156) scale(0.1 -0.1)">
     <use xlink:href="#ArialMT-35"/>
     <use xlink:href="#ArialMT-2e" x="55.615234"/>
     <use xlink:href="#ArialMT-30" x="83.398438"/>
    </g>
   </g>
   <g id="text_16">
    <!-- 6.0 -->
    <g style="fill: #262626" transform="translate(340.81 177.113156) scale(0.1 -0.1)">
     <use xlink:href="#ArialMT-36"/>
     <use xlink:href="#ArialMT-2e" x="55.615234"/>
     <use xlink:href="#ArialMT-30" x="83.398438"/>
    </g>
   </g>
   <g id="text_17">
    <!-- 7.0 -->
    <g style="fill: #262626" transform="translate(359.41 177.113156) scale(0.1 -0.1)">
     <use xlink:href="#ArialMT-37"/>
     <use xlink:href="#ArialMT-2e" x="55.615234"/>
     <use xlink:href="#ArialMT-30" x="83.398438"/>
    </g>
   </g>
   <g id="text_18">
    <!-- 8.0 -->
    <g style="fill: #262626" transform="translate(378.01 177.113156) scale(0.1 -0.1)">
     <use xlink:href="#ArialMT-38"/>
     <use xlink:href="#ArialMT-2e" x="55.615234"/>
     <use xlink:href="#ArialMT-30" x="83.398438"/>
    </g>
   </g>
  </g>
 </g>
 <defs>
  <clipPath id="pc4afc5b1f0">
   <rect x="57.6" y="163.368" width="357.12" height="22.32"/>
  </clipPath>
 </defs>
</svg>
