<?xml version="1.0" encoding="utf-8" standalone="no"?>
<!DOCTYPE svg PUBLIC "-//W3C//DTD SVG 1.1//EN"
  "http://www.w3.org/Graphics/SVG/1.1/DTD/svg11.dtd">
<svg xmlns:xlink="http://www.w3.org/1999/xlink" width="360pt" height="360pt" viewBox="0 0 360 360" xmlns="http://www.w3.org/2000/svg" version="1.1">
 <metadata>
  <rdf:RDF xmlns:dc="http://purl.org/dc/elements/1.1/" xmlns:cc="http://creativecommons.org/ns#" xmlns:rdf="http://www.w3.org/1999/02/22-rdf-syntax-ns#">
   <cc:Work>
    <dc:type rdf:resource="http://purl.org/dc/dcmitype/StillImage"/>
    <dc:date>2024-12-06T00:50:04.759332</dc:date>
    <dc:format>image/svg+xml</dc:format>
    <dc:creator>
     <cc:Agent>
      <dc:title>Matplotlib v3.9.3, https://matplotlib.org/</dc:title>
     </cc:Agent>
    </dc:creator>
   </cc:Work>
  </rdf:RDF>
 </metadata>
 <defs>
  <style type="text/css">*{stroke-linejoin: round; stroke-linecap: butt}</style>
 </defs>
 <g id="figure_1">
  <g id="patch_1">
   <path d="M 0 360 
L 360 360 
L 360 0 
L 0 0 
z
" style="fill: #ffffff"/>
  </g>
  <g id="axes_1">
   <g id="patch_2">
    <path d="M 45.9 320.4 
L 323.1 320.4 
L 323.1 43.2 
L 45.9 43.2 
z
" style="fill: #eaeaf2"/>
   </g>
   <g id="matplotlib.axis_1"/>
   <g id="matplotlib.axis_2"/>
   <g id="QuadMesh_1">
    <path d="M 45.9 43.2 
L 76.7 43.2 
L 76.7 74 
L 45.9 74 
L 45.9 43.2 
" clip-path="url(#pae1826c008)" style="fill: #313695; stroke: #ffffff; stroke-width: 0.5"/>
    <path d="M 76.7 43.2 
L 107.5 43.2 
L 107.5 74 
L 76.7 74 
L 76.7 43.2 
" clip-path="url(#pae1826c008)" style="fill: #333d99; stroke: #ffffff; stroke-width: 0.5"/>
    <path d="M 107.5 43.2 
L 138.3 43.2 
L 138.3 74 
L 107.5 74 
L 107.5 43.2 
" clip-path="url(#pae1826c008)" style="fill: #36459c; stroke: #ffffff; stroke-width: 0.5"/>
    <path d="M 138.3 43.2 
L 169.1 43.2 
L 169.1 74 
L 138.3 74 
L 138.3 43.2 
" clip-path="url(#pae1826c008)" style="fill: #384ca0; stroke: #ffffff; stroke-width: 0.5"/>
    <path d="M 169.1 43.2 
L 199.9 43.2 
L 199.9 74 
L 169.1 74 
L 169.1 43.2 
" clip-path="url(#pae1826c008)" style="fill: #3a54a4; stroke: #ffffff; stroke-width: 0.5"/>
    <path d="M 199.9 43.2 
L 230.7 43.2 
L 230.7 74 
L 199.9 74 
L 199.9 43.2 
" clip-path="url(#pae1826c008)" style="fill: #3e5ea8; stroke: #ffffff; stroke-width: 0.5"/>
    <path d="M 230.7 43.2 
L 261.5 43.2 
L 261.5 74 
L 230.7 74 
L 230.7 43.2 
" clip-path="url(#pae1826c008)" style="fill: #4065ac; stroke: #ffffff; stroke-width: 0.5"/>
    <path d="M 261.5 43.2 
L 292.3 43.2 
L 292.3 74 
L 261.5 74 
L 261.5 43.2 
" clip-path="url(#pae1826c008)" style="fill: #426cb0; stroke: #ffffff; stroke-width: 0.5"/>
    <path d="M 292.3 43.2 
L 323.1 43.2 
L 323.1 74 
L 292.3 74 
L 292.3 43.2 
" clip-path="url(#pae1826c008)" style="fill: #4574b3; stroke: #ffffff; stroke-width: 0.5"/>
    <path d="M 45.9 74 
L 76.7 74 
L 76.7 104.8 
L 45.9 104.8 
L 45.9 74 
" clip-path="url(#pae1826c008)" style="fill: #4a7ab7; stroke: #ffffff; stroke-width: 0.5"/>
    <path d="M 76.7 74 
L 107.5 74 
L 107.5 104.8 
L 76.7 104.8 
L 76.7 74 
" clip-path="url(#pae1826c008)" style="fill: #5183bb; stroke: #ffffff; stroke-width: 0.5"/>
    <path d="M 107.5 74 
L 138.3 74 
L 138.3 104.8 
L 107.5 104.8 
L 107.5 74 
" clip-path="url(#pae1826c008)" style="fill: #578abf; stroke: #ffffff; stroke-width: 0.5"/>
    <path d="M 138.3 74 
L 169.1 74 
L 169.1 104.8 
L 138.3 104.8 
L 138.3 74 
" clip-path="url(#pae1826c008)" style="fill: #5c90c2; stroke: #ffffff; stroke-width: 0.5"/>
    <path d="M 169.1 74 
L 199.9 74 
L 199.9 104.8 
L 169.1 104.8 
L 169.1 74 
" clip-path="url(#pae1826c008)" style="fill: #6297c6; stroke: #ffffff; stroke-width: 0.5"/>
    <path d="M 199.9 74 
L 230.7 74 
L 230.7 104.8 
L 199.9 104.8 
L 199.9 74 
" clip-path="url(#pae1826c008)" style="fill: #679ec9; stroke: #ffffff; stroke-width: 0.5"/>
    <path d="M 230.7 74 
L 261.5 74 
L 261.5 104.8 
L 230.7 104.8 
L 230.7 74 
" clip-path="url(#pae1826c008)" style="fill: #6ea6ce; stroke: #ffffff; stroke-width: 0.5"/>
    <path d="M 261.5 74 
L 292.3 74 
L 292.3 104.8 
L 261.5 104.8 
L 261.5 74 
" clip-path="url(#pae1826c008)" style="fill: #74add1; stroke: #ffffff; stroke-width: 0.5"/>
    <path d="M 292.3 74 
L 323.1 74 
L 323.1 104.8 
L 292.3 104.8 
L 292.3 74 
" clip-path="url(#pae1826c008)" style="fill: #7ab2d4; stroke: #ffffff; stroke-width: 0.5"/>
    <path d="M 45.9 104.8 
L 76.7 104.8 
L 76.7 135.6 
L 45.9 135.6 
L 45.9 104.8 
" clip-path="url(#pae1826c008)" style="fill: #81b7d7; stroke: #ffffff; stroke-width: 0.5"/>
    <path d="M 76.7 104.8 
L 107.5 104.8 
L 107.5 135.6 
L 76.7 135.6 
L 76.7 104.8 
" clip-path="url(#pae1826c008)" style="fill: #87bdd9; stroke: #ffffff; stroke-width: 0.5"/>
    <path d="M 107.5 104.8 
L 138.3 104.8 
L 138.3 135.6 
L 107.5 135.6 
L 107.5 104.8 
" clip-path="url(#pae1826c008)" style="fill: #90c3dd; stroke: #ffffff; stroke-width: 0.5"/>
    <path d="M 138.3 104.8 
L 169.1 104.8 
L 169.1 135.6 
L 138.3 135.6 
L 138.3 104.8 
" clip-path="url(#pae1826c008)" style="fill: #97c9e0; stroke: #ffffff; stroke-width: 0.5"/>
    <path d="M 169.1 104.8 
L 199.9 104.8 
L 199.9 135.6 
L 169.1 135.6 
L 169.1 104.8 
" clip-path="url(#pae1826c008)" style="fill: #9dcee3; stroke: #ffffff; stroke-width: 0.5"/>
    <path d="M 199.9 104.8 
L 230.7 104.8 
L 230.7 135.6 
L 199.9 135.6 
L 199.9 104.8 
" clip-path="url(#pae1826c008)" style="fill: #a3d3e6; stroke: #ffffff; stroke-width: 0.5"/>
    <path d="M 230.7 104.8 
L 261.5 104.8 
L 261.5 135.6 
L 230.7 135.6 
L 230.7 104.8 
" clip-path="url(#pae1826c008)" style="fill: #aad8e9; stroke: #ffffff; stroke-width: 0.5"/>
    <path d="M 261.5 104.8 
L 292.3 104.8 
L 292.3 135.6 
L 261.5 135.6 
L 261.5 104.8 
" clip-path="url(#pae1826c008)" style="fill: #b2ddeb; stroke: #ffffff; stroke-width: 0.5"/>
    <path d="M 292.3 104.8 
L 323.1 104.8 
L 323.1 135.6 
L 292.3 135.6 
L 292.3 104.8 
" clip-path="url(#pae1826c008)" style="fill: #b9e0ed; stroke: #ffffff; stroke-width: 0.5"/>
    <path d="M 45.9 135.6 
L 76.7 135.6 
L 76.7 166.4 
L 45.9 166.4 
L 45.9 135.6 
" clip-path="url(#pae1826c008)" style="fill: #bfe3ef; stroke: #ffffff; stroke-width: 0.5"/>
    <path d="M 76.7 135.6 
L 107.5 135.6 
L 107.5 166.4 
L 76.7 166.4 
L 76.7 135.6 
" clip-path="url(#pae1826c008)" style="fill: #c5e6f0; stroke: #ffffff; stroke-width: 0.5"/>
    <path d="M 107.5 135.6 
L 138.3 135.6 
L 138.3 166.4 
L 107.5 166.4 
L 107.5 135.6 
" clip-path="url(#pae1826c008)" style="fill: #cbe9f2; stroke: #ffffff; stroke-width: 0.5"/>
    <path d="M 138.3 135.6 
L 169.1 135.6 
L 169.1 166.4 
L 138.3 166.4 
L 138.3 135.6 
" clip-path="url(#pae1826c008)" style="fill: #d4edf4; stroke: #ffffff; stroke-width: 0.5"/>
    <path d="M 169.1 135.6 
L 199.9 135.6 
L 199.9 166.4 
L 169.1 166.4 
L 169.1 135.6 
" clip-path="url(#pae1826c008)" style="fill: #daf0f6; stroke: #ffffff; stroke-width: 0.5"/>
    <path d="M 199.9 135.6 
L 230.7 135.6 
L 230.7 166.4 
L 199.9 166.4 
L 199.9 135.6 
" clip-path="url(#pae1826c008)" style="fill: #e0f3f8; stroke: #ffffff; stroke-width: 0.5"/>
    <path d="M 230.7 135.6 
L 261.5 135.6 
L 261.5 166.4 
L 230.7 166.4 
L 230.7 135.6 
" clip-path="url(#pae1826c008)" style="fill: #e4f4f1; stroke: #ffffff; stroke-width: 0.5"/>
    <path d="M 261.5 135.6 
L 292.3 135.6 
L 292.3 166.4 
L 261.5 166.4 
L 261.5 135.6 
" clip-path="url(#pae1826c008)" style="fill: #e7f6eb; stroke: #ffffff; stroke-width: 0.5"/>
    <path d="M 292.3 135.6 
L 323.1 135.6 
L 323.1 166.4 
L 292.3 166.4 
L 292.3 135.6 
" clip-path="url(#pae1826c008)" style="fill: #ecf8e2; stroke: #ffffff; stroke-width: 0.5"/>
    <path d="M 45.9 166.4 
L 76.7 166.4 
L 76.7 197.2 
L 45.9 197.2 
L 45.9 166.4 
" clip-path="url(#pae1826c008)" style="fill: #f0f9db; stroke: #ffffff; stroke-width: 0.5"/>
    <path d="M 76.7 166.4 
L 107.5 166.4 
L 107.5 197.2 
L 76.7 197.2 
L 76.7 166.4 
" clip-path="url(#pae1826c008)" style="fill: #f3fbd4; stroke: #ffffff; stroke-width: 0.5"/>
    <path d="M 107.5 166.4 
L 138.3 166.4 
L 138.3 197.2 
L 107.5 197.2 
L 107.5 166.4 
" clip-path="url(#pae1826c008)" style="fill: #f7fcce; stroke: #ffffff; stroke-width: 0.5"/>
    <path d="M 138.3 166.4 
L 169.1 166.4 
L 169.1 197.2 
L 138.3 197.2 
L 138.3 166.4 
" clip-path="url(#pae1826c008)" style="fill: #fbfdc7; stroke: #ffffff; stroke-width: 0.5"/>
    <path d="M 169.1 166.4 
L 199.9 166.4 
L 199.9 197.2 
L 169.1 197.2 
L 169.1 166.4 
" clip-path="url(#pae1826c008)" style="fill: #fffebe; stroke: #ffffff; stroke-width: 0.5"/>
    <path d="M 199.9 166.4 
L 230.7 166.4 
L 230.7 197.2 
L 199.9 197.2 
L 199.9 166.4 
" clip-path="url(#pae1826c008)" style="fill: #fffbb9; stroke: #ffffff; stroke-width: 0.5"/>
    <path d="M 230.7 166.4 
L 261.5 166.4 
L 261.5 197.2 
L 230.7 197.2 
L 230.7 166.4 
" clip-path="url(#pae1826c008)" style="fill: #fff7b3; stroke: #ffffff; stroke-width: 0.5"/>
    <path d="M 261.5 166.4 
L 292.3 166.4 
L 292.3 197.2 
L 261.5 197.2 
L 261.5 166.4 
" clip-path="url(#pae1826c008)" style="fill: #fff3ad; stroke: #ffffff; stroke-width: 0.5"/>
    <path d="M 292.3 166.4 
L 323.1 166.4 
L 323.1 197.2 
L 292.3 197.2 
L 292.3 166.4 
" clip-path="url(#pae1826c008)" style="fill: #fff0a8; stroke: #ffffff; stroke-width: 0.5"/>
    <path d="M 45.9 197.2 
L 76.7 197.2 
L 76.7 228 
L 45.9 228 
L 45.9 197.2 
" clip-path="url(#pae1826c008)" style="fill: #feeba1; stroke: #ffffff; stroke-width: 0.5"/>
    <path d="M 76.7 197.2 
L 107.5 197.2 
L 107.5 228 
L 76.7 228 
L 76.7 197.2 
" clip-path="url(#pae1826c008)" style="fill: #fee79b; stroke: #ffffff; stroke-width: 0.5"/>
    <path d="M 107.5 197.2 
L 138.3 197.2 
L 138.3 228 
L 107.5 228 
L 107.5 197.2 
" clip-path="url(#pae1826c008)" style="fill: #fee496; stroke: #ffffff; stroke-width: 0.5"/>
    <path d="M 138.3 197.2 
L 169.1 197.2 
L 169.1 228 
L 138.3 228 
L 138.3 197.2 
" clip-path="url(#pae1826c008)" style="fill: #fee090; stroke: #ffffff; stroke-width: 0.5"/>
    <path d="M 169.1 197.2 
L 199.9 197.2 
L 199.9 228 
L 169.1 228 
L 169.1 197.2 
" clip-path="url(#pae1826c008)" style="fill: #feda8a; stroke: #ffffff; stroke-width: 0.5"/>
    <path d="M 199.9 197.2 
L 230.7 197.2 
L 230.7 228 
L 199.9 228 
L 199.9 197.2 
" clip-path="url(#pae1826c008)" style="fill: #fed283; stroke: #ffffff; stroke-width: 0.5"/>
    <path d="M 230.7 197.2 
L 261.5 197.2 
L 261.5 228 
L 230.7 228 
L 230.7 197.2 
" clip-path="url(#pae1826c008)" style="fill: #fecc7e; stroke: #ffffff; stroke-width: 0.5"/>
    <path d="M 261.5 197.2 
L 292.3 197.2 
L 292.3 228 
L 261.5 228 
L 261.5 197.2 
" clip-path="url(#pae1826c008)" style="fill: #fdc778; stroke: #ffffff; stroke-width: 0.5"/>
    <path d="M 292.3 197.2 
L 323.1 197.2 
L 323.1 228 
L 292.3 228 
L 292.3 197.2 
" clip-path="url(#pae1826c008)" style="fill: #fdc173; stroke: #ffffff; stroke-width: 0.5"/>
    <path d="M 45.9 228 
L 76.7 228 
L 76.7 258.8 
L 45.9 258.8 
L 45.9 228 
" clip-path="url(#pae1826c008)" style="fill: #fdbb6d; stroke: #ffffff; stroke-width: 0.5"/>
    <path d="M 76.7 228 
L 107.5 228 
L 107.5 258.8 
L 76.7 258.8 
L 76.7 228 
" clip-path="url(#pae1826c008)" style="fill: #fdb366; stroke: #ffffff; stroke-width: 0.5"/>
    <path d="M 107.5 228 
L 138.3 228 
L 138.3 258.8 
L 107.5 258.8 
L 107.5 228 
" clip-path="url(#pae1826c008)" style="fill: #fdad60; stroke: #ffffff; stroke-width: 0.5"/>
    <path d="M 138.3 228 
L 169.1 228 
L 169.1 258.8 
L 138.3 258.8 
L 138.3 228 
" clip-path="url(#pae1826c008)" style="fill: #fca55d; stroke: #ffffff; stroke-width: 0.5"/>
    <path d="M 169.1 228 
L 199.9 228 
L 199.9 258.8 
L 169.1 258.8 
L 169.1 228 
" clip-path="url(#pae1826c008)" style="fill: #fb9d59; stroke: #ffffff; stroke-width: 0.5"/>
    <path d="M 199.9 228 
L 230.7 228 
L 230.7 258.8 
L 199.9 258.8 
L 199.9 228 
" clip-path="url(#pae1826c008)" style="fill: #fa9656; stroke: #ffffff; stroke-width: 0.5"/>
    <path d="M 230.7 228 
L 261.5 228 
L 261.5 258.8 
L 230.7 258.8 
L 230.7 228 
" clip-path="url(#pae1826c008)" style="fill: #f88c51; stroke: #ffffff; stroke-width: 0.5"/>
    <path d="M 261.5 228 
L 292.3 228 
L 292.3 258.8 
L 261.5 258.8 
L 261.5 228 
" clip-path="url(#pae1826c008)" style="fill: #f7844e; stroke: #ffffff; stroke-width: 0.5"/>
    <path d="M 292.3 228 
L 323.1 228 
L 323.1 258.8 
L 292.3 258.8 
L 292.3 228 
" clip-path="url(#pae1826c008)" style="fill: #f67c4a; stroke: #ffffff; stroke-width: 0.5"/>
    <path d="M 45.9 258.8 
L 76.7 258.8 
L 76.7 289.6 
L 45.9 289.6 
L 45.9 258.8 
" clip-path="url(#pae1826c008)" style="fill: #f57547; stroke: #ffffff; stroke-width: 0.5"/>
    <path d="M 76.7 258.8 
L 107.5 258.8 
L 107.5 289.6 
L 76.7 289.6 
L 76.7 258.8 
" clip-path="url(#pae1826c008)" style="fill: #f46d43; stroke: #ffffff; stroke-width: 0.5"/>
    <path d="M 107.5 258.8 
L 138.3 258.8 
L 138.3 289.6 
L 107.5 289.6 
L 107.5 258.8 
" clip-path="url(#pae1826c008)" style="fill: #ef633f; stroke: #ffffff; stroke-width: 0.5"/>
    <path d="M 138.3 258.8 
L 169.1 258.8 
L 169.1 289.6 
L 138.3 289.6 
L 138.3 258.8 
" clip-path="url(#pae1826c008)" style="fill: #ec5c3b; stroke: #ffffff; stroke-width: 0.5"/>
    <path d="M 169.1 258.8 
L 199.9 258.8 
L 199.9 289.6 
L 169.1 289.6 
L 169.1 258.8 
" clip-path="url(#pae1826c008)" style="fill: #e95538; stroke: #ffffff; stroke-width: 0.5"/>
    <path d="M 199.9 258.8 
L 230.7 258.8 
L 230.7 289.6 
L 199.9 289.6 
L 199.9 258.8 
" clip-path="url(#pae1826c008)" style="fill: #e54e35; stroke: #ffffff; stroke-width: 0.5"/>
    <path d="M 230.7 258.8 
L 261.5 258.8 
L 261.5 289.6 
L 230.7 289.6 
L 230.7 258.8 
" clip-path="url(#pae1826c008)" style="fill: #e24731; stroke: #ffffff; stroke-width: 0.5"/>
    <path d="M 261.5 258.8 
L 292.3 258.8 
L 292.3 289.6 
L 261.5 289.6 
L 261.5 258.8 
" clip-path="url(#pae1826c008)" style="fill: #dd3d2d; stroke: #ffffff; stroke-width: 0.5"/>
    <path d="M 292.3 258.8 
L 323.1 258.8 
L 323.1 289.6 
L 292.3 289.6 
L 292.3 258.8 
" clip-path="url(#pae1826c008)" style="fill: #da362a; stroke: #ffffff; stroke-width: 0.5"/>
    <path d="M 45.9 289.6 
L 76.7 289.6 
L 76.7 320.4 
L 45.9 320.4 
L 45.9 289.6 
" clip-path="url(#pae1826c008)" style="fill: #d62f27; stroke: #ffffff; stroke-width: 0.5"/>
    <path d="M 76.7 289.6 
L 107.5 289.6 
L 107.5 320.4 
L 76.7 320.4 
L 76.7 289.6 
" clip-path="url(#pae1826c008)" style="fill: #d02927; stroke: #ffffff; stroke-width: 0.5"/>
    <path d="M 107.5 289.6 
L 138.3 289.6 
L 138.3 320.4 
L 107.5 320.4 
L 107.5 289.6 
" clip-path="url(#pae1826c008)" style="fill: #ca2427; stroke: #ffffff; stroke-width: 0.5"/>
    <path d="M 138.3 289.6 
L 169.1 289.6 
L 169.1 320.4 
L 138.3 320.4 
L 138.3 289.6 
" clip-path="url(#pae1826c008)" style="fill: #c21c27; stroke: #ffffff; stroke-width: 0.5"/>
    <path d="M 169.1 289.6 
L 199.9 289.6 
L 199.9 320.4 
L 169.1 320.4 
L 169.1 289.6 
" clip-path="url(#pae1826c008)" style="fill: #bd1726; stroke: #ffffff; stroke-width: 0.5"/>
    <path d="M 199.9 289.6 
L 230.7 289.6 
L 230.7 320.4 
L 199.9 320.4 
L 199.9 289.6 
" clip-path="url(#pae1826c008)" style="fill: #b71126; stroke: #ffffff; stroke-width: 0.5"/>
    <path d="M 230.7 289.6 
L 261.5 289.6 
L 261.5 320.4 
L 230.7 320.4 
L 230.7 289.6 
" clip-path="url(#pae1826c008)" style="fill: #b10b26; stroke: #ffffff; stroke-width: 0.5"/>
    <path d="M 261.5 289.6 
L 292.3 289.6 
L 292.3 320.4 
L 261.5 320.4 
L 261.5 289.6 
" clip-path="url(#pae1826c008)" style="fill: #ab0626; stroke: #ffffff; stroke-width: 0.5"/>
    <path d="M 292.3 289.6 
L 323.1 289.6 
L 323.1 320.4 
L 292.3 320.4 
L 292.3 289.6 
" clip-path="url(#pae1826c008)" style="fill: #a50026; stroke: #ffffff; stroke-width: 0.5"/>
   </g>
   <g id="text_1">
    <!-- -40 -->
    <g style="fill: #ffffff" transform="translate(54.074219 61.185156) scale(0.1 -0.1)">
     <defs>
      <path id="ArialMT-2d" d="M 203 1375 
L 203 1941 
L 1931 1941 
L 1931 1375 
L 203 1375 
z
" transform="scale(0.015625)"/>
      <path id="ArialMT-34" d="M 2069 0 
L 2069 1097 
L 81 1097 
L 81 1613 
L 2172 4581 
L 2631 4581 
L 2631 1613 
L 3250 1613 
L 3250 1097 
L 2631 1097 
L 2631 0 
L 2069 0 
z
M 2069 1613 
L 2069 3678 
L 634 1613 
L 2069 1613 
z
" transform="scale(0.015625)"/>
      <path id="ArialMT-30" d="M 266 2259 
Q 266 3072 433 3567 
Q 600 4063 929 4331 
Q 1259 4600 1759 4600 
Q 2128 4600 2406 4451 
Q 2684 4303 2865 4023 
Q 3047 3744 3150 3342 
Q 3253 2941 3253 2259 
Q 3253 1453 3087 958 
Q 2922 463 2592 192 
Q 2263 -78 1759 -78 
Q 1097 -78 719 397 
Q 266 969 266 2259 
z
M 844 2259 
Q 844 1131 1108 757 
Q 1372 384 1759 384 
Q 2147 384 2411 759 
Q 2675 1134 2675 2259 
Q 2675 3391 2411 3762 
Q 2147 4134 1753 4134 
Q 1366 4134 1134 3806 
Q 844 3388 844 2259 
z
" transform="scale(0.015625)"/>
     </defs>
     <use xlink:href="#ArialMT-2d"/>
     <use xlink:href="#ArialMT-34" x="33.300781"/>
     <use xlink:href="#ArialMT-30" x="88.916016"/>
    </g>
   </g>
   <g id="text_2">
    <!-- -39 -->
    <g style="fill: #ffffff" transform="translate(84.874219 61.185156) scale(0.1 -0.1)">
     <defs>
      <path id="ArialMT-33" d="M 269 1209 
L 831 1284 
Q 928 806 1161 595 
Q 1394 384 1728 384 
Q 2125 384 2398 659 
Q 2672 934 2672 1341 
Q 2672 1728 2419 1979 
Q 2166 2231 1775 2231 
Q 1616 2231 1378 2169 
L 1441 2663 
Q 1497 2656 1531 2656 
Q 1891 2656 2178 2843 
Q 2466 3031 2466 3422 
Q 2466 3731 2256 3934 
Q 2047 4138 1716 4138 
Q 1388 4138 1169 3931 
Q 950 3725 888 3313 
L 325 3413 
Q 428 3978 793 4289 
Q 1159 4600 1703 4600 
Q 2078 4600 2393 4439 
Q 2709 4278 2876 4000 
Q 3044 3722 3044 3409 
Q 3044 3113 2884 2869 
Q 2725 2625 2413 2481 
Q 2819 2388 3044 2092 
Q 3269 1797 3269 1353 
Q 3269 753 2831 336 
Q 2394 -81 1725 -81 
Q 1122 -81 723 278 
Q 325 638 269 1209 
z
" transform="scale(0.015625)"/>
      <path id="ArialMT-39" d="M 350 1059 
L 891 1109 
Q 959 728 1153 556 
Q 1347 384 1650 384 
Q 1909 384 2104 503 
Q 2300 622 2425 820 
Q 2550 1019 2634 1356 
Q 2719 1694 2719 2044 
Q 2719 2081 2716 2156 
Q 2547 1888 2255 1720 
Q 1963 1553 1622 1553 
Q 1053 1553 659 1965 
Q 266 2378 266 3053 
Q 266 3750 677 4175 
Q 1088 4600 1706 4600 
Q 2153 4600 2523 4359 
Q 2894 4119 3086 3673 
Q 3278 3228 3278 2384 
Q 3278 1506 3087 986 
Q 2897 466 2520 194 
Q 2144 -78 1638 -78 
Q 1100 -78 759 220 
Q 419 519 350 1059 
z
M 2653 3081 
Q 2653 3566 2395 3850 
Q 2138 4134 1775 4134 
Q 1400 4134 1122 3828 
Q 844 3522 844 3034 
Q 844 2597 1108 2323 
Q 1372 2050 1759 2050 
Q 2150 2050 2401 2323 
Q 2653 2597 2653 3081 
z
" transform="scale(0.015625)"/>
     </defs>
     <use xlink:href="#ArialMT-2d"/>
     <use xlink:href="#ArialMT-33" x="33.300781"/>
     <use xlink:href="#ArialMT-39" x="88.916016"/>
    </g>
   </g>
   <g id="text_3">
    <!-- -38 -->
    <g style="fill: #ffffff" transform="translate(115.674219 61.185156) scale(0.1 -0.1)">
     <defs>
      <path id="ArialMT-38" d="M 1131 2484 
Q 781 2613 612 2850 
Q 444 3088 444 3419 
Q 444 3919 803 4259 
Q 1163 4600 1759 4600 
Q 2359 4600 2725 4251 
Q 3091 3903 3091 3403 
Q 3091 3084 2923 2848 
Q 2756 2613 2416 2484 
Q 2838 2347 3058 2040 
Q 3278 1734 3278 1309 
Q 3278 722 2862 322 
Q 2447 -78 1769 -78 
Q 1091 -78 675 323 
Q 259 725 259 1325 
Q 259 1772 486 2073 
Q 713 2375 1131 2484 
z
M 1019 3438 
Q 1019 3113 1228 2906 
Q 1438 2700 1772 2700 
Q 2097 2700 2305 2904 
Q 2513 3109 2513 3406 
Q 2513 3716 2298 3927 
Q 2084 4138 1766 4138 
Q 1444 4138 1231 3931 
Q 1019 3725 1019 3438 
z
M 838 1322 
Q 838 1081 952 856 
Q 1066 631 1291 507 
Q 1516 384 1775 384 
Q 2178 384 2440 643 
Q 2703 903 2703 1303 
Q 2703 1709 2433 1975 
Q 2163 2241 1756 2241 
Q 1359 2241 1098 1978 
Q 838 1716 838 1322 
z
" transform="scale(0.015625)"/>
     </defs>
     <use xlink:href="#ArialMT-2d"/>
     <use xlink:href="#ArialMT-33" x="33.300781"/>
     <use xlink:href="#ArialMT-38" x="88.916016"/>
    </g>
   </g>
   <g id="text_4">
    <!-- -37 -->
    <g style="fill: #ffffff" transform="translate(146.474219 61.185156) scale(0.1 -0.1)">
     <defs>
      <path id="ArialMT-37" d="M 303 3981 
L 303 4522 
L 3269 4522 
L 3269 4084 
Q 2831 3619 2401 2847 
Q 1972 2075 1738 1259 
Q 1569 684 1522 0 
L 944 0 
Q 953 541 1156 1306 
Q 1359 2072 1739 2783 
Q 2119 3494 2547 3981 
L 303 3981 
z
" transform="scale(0.015625)"/>
     </defs>
     <use xlink:href="#ArialMT-2d"/>
     <use xlink:href="#ArialMT-33" x="33.300781"/>
     <use xlink:href="#ArialMT-37" x="88.916016"/>
    </g>
   </g>
   <g id="text_5">
    <!-- -36 -->
    <g style="fill: #ffffff" transform="translate(177.274219 61.185156) scale(0.1 -0.1)">
     <defs>
      <path id="ArialMT-36" d="M 3184 3459 
L 2625 3416 
Q 2550 3747 2413 3897 
Q 2184 4138 1850 4138 
Q 1581 4138 1378 3988 
Q 1113 3794 959 3422 
Q 806 3050 800 2363 
Q 1003 2672 1297 2822 
Q 1591 2972 1913 2972 
Q 2475 2972 2870 2558 
Q 3266 2144 3266 1488 
Q 3266 1056 3080 686 
Q 2894 316 2569 119 
Q 2244 -78 1831 -78 
Q 1128 -78 684 439 
Q 241 956 241 2144 
Q 241 3472 731 4075 
Q 1159 4600 1884 4600 
Q 2425 4600 2770 4297 
Q 3116 3994 3184 3459 
z
M 888 1484 
Q 888 1194 1011 928 
Q 1134 663 1356 523 
Q 1578 384 1822 384 
Q 2178 384 2434 671 
Q 2691 959 2691 1453 
Q 2691 1928 2437 2201 
Q 2184 2475 1800 2475 
Q 1419 2475 1153 2201 
Q 888 1928 888 1484 
z
" transform="scale(0.015625)"/>
     </defs>
     <use xlink:href="#ArialMT-2d"/>
     <use xlink:href="#ArialMT-33" x="33.300781"/>
     <use xlink:href="#ArialMT-36" x="88.916016"/>
    </g>
   </g>
   <g id="text_6">
    <!-- -35 -->
    <g style="fill: #ffffff" transform="translate(208.074219 61.185156) scale(0.1 -0.1)">
     <defs>
      <path id="ArialMT-35" d="M 266 1200 
L 856 1250 
Q 922 819 1161 601 
Q 1400 384 1738 384 
Q 2144 384 2425 690 
Q 2706 997 2706 1503 
Q 2706 1984 2436 2262 
Q 2166 2541 1728 2541 
Q 1456 2541 1237 2417 
Q 1019 2294 894 2097 
L 366 2166 
L 809 4519 
L 3088 4519 
L 3088 3981 
L 1259 3981 
L 1013 2750 
Q 1425 3038 1878 3038 
Q 2478 3038 2890 2622 
Q 3303 2206 3303 1553 
Q 3303 931 2941 478 
Q 2500 -78 1738 -78 
Q 1113 -78 717 272 
Q 322 622 266 1200 
z
" transform="scale(0.015625)"/>
     </defs>
     <use xlink:href="#ArialMT-2d"/>
     <use xlink:href="#ArialMT-33" x="33.300781"/>
     <use xlink:href="#ArialMT-35" x="88.916016"/>
    </g>
   </g>
   <g id="text_7">
    <!-- -34 -->
    <g style="fill: #ffffff" transform="translate(238.874219 61.185156) scale(0.1 -0.1)">
     <use xlink:href="#ArialMT-2d"/>
     <use xlink:href="#ArialMT-33" x="33.300781"/>
     <use xlink:href="#ArialMT-34" x="88.916016"/>
    </g>
   </g>
   <g id="text_8">
    <!-- -33 -->
    <g style="fill: #ffffff" transform="translate(269.674219 61.185156) scale(0.1 -0.1)">
     <use xlink:href="#ArialMT-2d"/>
     <use xlink:href="#ArialMT-33" x="33.300781"/>
     <use xlink:href="#ArialMT-33" x="88.916016"/>
    </g>
   </g>
   <g id="text_9">
    <!-- -32 -->
    <g style="fill: #ffffff" transform="translate(300.474219 61.185156) scale(0.1 -0.1)">
     <defs>
      <path id="ArialMT-32" d="M 3222 541 
L 3222 0 
L 194 0 
Q 188 203 259 391 
Q 375 700 629 1000 
Q 884 1300 1366 1694 
Q 2113 2306 2375 2664 
Q 2638 3022 2638 3341 
Q 2638 3675 2398 3904 
Q 2159 4134 1775 4134 
Q 1369 4134 1125 3890 
Q 881 3647 878 3216 
L 300 3275 
Q 359 3922 746 4261 
Q 1134 4600 1788 4600 
Q 2447 4600 2831 4234 
Q 3216 3869 3216 3328 
Q 3216 3053 3103 2787 
Q 2991 2522 2730 2228 
Q 2469 1934 1863 1422 
Q 1356 997 1212 845 
Q 1069 694 975 541 
L 3222 541 
z
" transform="scale(0.015625)"/>
     </defs>
     <use xlink:href="#ArialMT-2d"/>
     <use xlink:href="#ArialMT-33" x="33.300781"/>
     <use xlink:href="#ArialMT-32" x="88.916016"/>
    </g>
   </g>
   <g id="text_10">
    <!-- -31 -->
    <g style="fill: #ffffff" transform="translate(54.074219 91.985156) scale(0.1 -0.1)">
     <defs>
      <path id="ArialMT-31" d="M 2384 0 
L 1822 0 
L 1822 3584 
Q 1619 3391 1289 3197 
Q 959 3003 697 2906 
L 697 3450 
Q 1169 3672 1522 3987 
Q 1875 4303 2022 4600 
L 2384 4600 
L 2384 0 
z
" transform="scale(0.015625)"/>
     </defs>
     <use xlink:href="#ArialMT-2d"/>
     <use xlink:href="#ArialMT-33" x="33.300781"/>
     <use xlink:href="#ArialMT-31" x="88.916016"/>
    </g>
   </g>
   <g id="text_11">
    <!-- -30 -->
    <g style="fill: #ffffff" transform="translate(84.874219 91.985156) scale(0.1 -0.1)">
     <use xlink:href="#ArialMT-2d"/>
     <use xlink:href="#ArialMT-33" x="33.300781"/>
     <use xlink:href="#ArialMT-30" x="88.916016"/>
    </g>
   </g>
   <g id="text_12">
    <!-- -29 -->
    <g style="fill: #ffffff" transform="translate(115.674219 91.985156) scale(0.1 -0.1)">
     <use xlink:href="#ArialMT-2d"/>
     <use xlink:href="#ArialMT-32" x="33.300781"/>
     <use xlink:href="#ArialMT-39" x="88.916016"/>
    </g>
   </g>
   <g id="text_13">
    <!-- -28 -->
    <g style="fill: #ffffff" transform="translate(146.474219 91.985156) scale(0.1 -0.1)">
     <use xlink:href="#ArialMT-2d"/>
     <use xlink:href="#ArialMT-32" x="33.300781"/>
     <use xlink:href="#ArialMT-38" x="88.916016"/>
    </g>
   </g>
   <g id="text_14">
    <!-- -27 -->
    <g style="fill: #ffffff" transform="translate(177.274219 91.985156) scale(0.1 -0.1)">
     <use xlink:href="#ArialMT-2d"/>
     <use xlink:href="#ArialMT-32" x="33.300781"/>
     <use xlink:href="#ArialMT-37" x="88.916016"/>
    </g>
   </g>
   <g id="text_15">
    <!-- -26 -->
    <g style="fill: #ffffff" transform="translate(208.074219 91.985156) scale(0.1 -0.1)">
     <use xlink:href="#ArialMT-2d"/>
     <use xlink:href="#ArialMT-32" x="33.300781"/>
     <use xlink:href="#ArialMT-36" x="88.916016"/>
    </g>
   </g>
   <g id="text_16">
    <!-- -25 -->
    <g style="fill: #ffffff" transform="translate(238.874219 91.985156) scale(0.1 -0.1)">
     <use xlink:href="#ArialMT-2d"/>
     <use xlink:href="#ArialMT-32" x="33.300781"/>
     <use xlink:href="#ArialMT-35" x="88.916016"/>
    </g>
   </g>
   <g id="text_17">
    <!-- -24 -->
    <g style="fill: #ffffff" transform="translate(269.674219 91.985156) scale(0.1 -0.1)">
     <use xlink:href="#ArialMT-2d"/>
     <use xlink:href="#ArialMT-32" x="33.300781"/>
     <use xlink:href="#ArialMT-34" x="88.916016"/>
    </g>
   </g>
   <g id="text_18">
    <!-- -23 -->
    <g style="fill: #262626" transform="translate(300.474219 91.985156) scale(0.1 -0.1)">
     <use xlink:href="#ArialMT-2d"/>
     <use xlink:href="#ArialMT-32" x="33.300781"/>
     <use xlink:href="#ArialMT-33" x="88.916016"/>
    </g>
   </g>
   <g id="text_19">
    <!-- -22 -->
    <g style="fill: #262626" transform="translate(54.074219 122.785156) scale(0.1 -0.1)">
     <use xlink:href="#ArialMT-2d"/>
     <use xlink:href="#ArialMT-32" x="33.300781"/>
     <use xlink:href="#ArialMT-32" x="88.916016"/>
    </g>
   </g>
   <g id="text_20">
    <!-- -21 -->
    <g style="fill: #262626" transform="translate(84.874219 122.785156) scale(0.1 -0.1)">
     <use xlink:href="#ArialMT-2d"/>
     <use xlink:href="#ArialMT-32" x="33.300781"/>
     <use xlink:href="#ArialMT-31" x="88.916016"/>
    </g>
   </g>
   <g id="text_21">
    <!-- -20 -->
    <g style="fill: #262626" transform="translate(115.674219 122.785156) scale(0.1 -0.1)">
     <use xlink:href="#ArialMT-2d"/>
     <use xlink:href="#ArialMT-32" x="33.300781"/>
     <use xlink:href="#ArialMT-30" x="88.916016"/>
    </g>
   </g>
   <g id="text_22">
    <!-- -19 -->
    <g style="fill: #262626" transform="translate(146.474219 122.785156) scale(0.1 -0.1)">
     <use xlink:href="#ArialMT-2d"/>
     <use xlink:href="#ArialMT-31" x="33.300781"/>
     <use xlink:href="#ArialMT-39" x="88.916016"/>
    </g>
   </g>
   <g id="text_23">
    <!-- -18 -->
    <g style="fill: #262626" transform="translate(177.274219 122.785156) scale(0.1 -0.1)">
     <use xlink:href="#ArialMT-2d"/>
     <use xlink:href="#ArialMT-31" x="33.300781"/>
     <use xlink:href="#ArialMT-38" x="88.916016"/>
    </g>
   </g>
   <g id="text_24">
    <!-- -17 -->
    <g style="fill: #262626" transform="translate(208.074219 122.785156) scale(0.1 -0.1)">
     <use xlink:href="#ArialMT-2d"/>
     <use xlink:href="#ArialMT-31" x="33.300781"/>
     <use xlink:href="#ArialMT-37" x="88.916016"/>
    </g>
   </g>
   <g id="text_25">
    <!-- -16 -->
    <g style="fill: #262626" transform="translate(238.874219 122.785156) scale(0.1 -0.1)">
     <use xlink:href="#ArialMT-2d"/>
     <use xlink:href="#ArialMT-31" x="33.300781"/>
     <use xlink:href="#ArialMT-36" x="88.916016"/>
    </g>
   </g>
   <g id="text_26">
    <!-- -15 -->
    <g style="fill: #262626" transform="translate(269.674219 122.785156) scale(0.1 -0.1)">
     <use xlink:href="#ArialMT-2d"/>
     <use xlink:href="#ArialMT-31" x="33.300781"/>
     <use xlink:href="#ArialMT-35" x="88.916016"/>
    </g>
   </g>
   <g id="text_27">
    <!-- -14 -->
    <g style="fill: #262626" transform="translate(300.474219 122.785156) scale(0.1 -0.1)">
     <use xlink:href="#ArialMT-2d"/>
     <use xlink:href="#ArialMT-31" x="33.300781"/>
     <use xlink:href="#ArialMT-34" x="88.916016"/>
    </g>
   </g>
   <g id="text_28">
    <!-- -13 -->
    <g style="fill: #262626" transform="translate(54.074219 153.585156) scale(0.1 -0.1)">
     <use xlink:href="#ArialMT-2d"/>
     <use xlink:href="#ArialMT-31" x="33.300781"/>
     <use xlink:href="#ArialMT-33" x="88.916016"/>
    </g>
   </g>
   <g id="text_29">
    <!-- -12 -->
    <g style="fill: #262626" transform="translate(84.874219 153.585156) scale(0.1 -0.1)">
     <use xlink:href="#ArialMT-2d"/>
     <use xlink:href="#ArialMT-31" x="33.300781"/>
     <use xlink:href="#ArialMT-32" x="88.916016"/>
    </g>
   </g>
   <g id="text_30">
    <!-- -11 -->
    <g style="fill: #262626" transform="translate(116.042969 153.585156) scale(0.1 -0.1)">
     <use xlink:href="#ArialMT-2d"/>
     <use xlink:href="#ArialMT-31" x="33.300781"/>
     <use xlink:href="#ArialMT-31" x="81.541016"/>
    </g>
   </g>
   <g id="text_31">
    <!-- -10 -->
    <g style="fill: #262626" transform="translate(146.474219 153.585156) scale(0.1 -0.1)">
     <use xlink:href="#ArialMT-2d"/>
     <use xlink:href="#ArialMT-31" x="33.300781"/>
     <use xlink:href="#ArialMT-30" x="88.916016"/>
    </g>
   </g>
   <g id="text_32">
    <!-- -9 -->
    <g style="fill: #262626" transform="translate(180.054688 153.585156) scale(0.1 -0.1)">
     <use xlink:href="#ArialMT-2d"/>
     <use xlink:href="#ArialMT-39" x="33.300781"/>
    </g>
   </g>
   <g id="text_33">
    <!-- -8 -->
    <g style="fill: #262626" transform="translate(210.854687 153.585156) scale(0.1 -0.1)">
     <use xlink:href="#ArialMT-2d"/>
     <use xlink:href="#ArialMT-38" x="33.300781"/>
    </g>
   </g>
   <g id="text_34">
    <!-- -7 -->
    <g style="fill: #262626" transform="translate(241.654687 153.585156) scale(0.1 -0.1)">
     <use xlink:href="#ArialMT-2d"/>
     <use xlink:href="#ArialMT-37" x="33.300781"/>
    </g>
   </g>
   <g id="text_35">
    <!-- -6 -->
    <g style="fill: #262626" transform="translate(272.454687 153.585156) scale(0.1 -0.1)">
     <use xlink:href="#ArialMT-2d"/>
     <use xlink:href="#ArialMT-36" x="33.300781"/>
    </g>
   </g>
   <g id="text_36">
    <!-- -5 -->
    <g style="fill: #262626" transform="translate(303.254687 153.585156) scale(0.1 -0.1)">
     <use xlink:href="#ArialMT-2d"/>
     <use xlink:href="#ArialMT-35" x="33.300781"/>
    </g>
   </g>
   <g id="text_37">
    <!-- -4 -->
    <g style="fill: #262626" transform="translate(56.854687 184.385156) scale(0.1 -0.1)">
     <use xlink:href="#ArialMT-2d"/>
     <use xlink:href="#ArialMT-34" x="33.300781"/>
    </g>
   </g>
   <g id="text_38">
    <!-- -3 -->
    <g style="fill: #262626" transform="translate(87.654687 184.385156) scale(0.1 -0.1)">
     <use xlink:href="#ArialMT-2d"/>
     <use xlink:href="#ArialMT-33" x="33.300781"/>
    </g>
   </g>
   <g id="text_39">
    <!-- -2 -->
    <g style="fill: #262626" transform="translate(118.454688 184.385156) scale(0.1 -0.1)">
     <use xlink:href="#ArialMT-2d"/>
     <use xlink:href="#ArialMT-32" x="33.300781"/>
    </g>
   </g>
   <g id="text_40">
    <!-- -1 -->
    <g style="fill: #262626" transform="translate(149.254687 184.385156) scale(0.1 -0.1)">
     <use xlink:href="#ArialMT-2d"/>
     <use xlink:href="#ArialMT-31" x="33.300781"/>
    </g>
   </g>
   <g id="text_41">
    <!-- 0 -->
    <g style="fill: #262626" transform="translate(181.719531 184.385156) scale(0.1 -0.1)">
     <use xlink:href="#ArialMT-30"/>
    </g>
   </g>
   <g id="text_42">
    <!-- 1 -->
    <g style="fill: #262626" transform="translate(212.519531 184.385156) scale(0.1 -0.1)">
     <use xlink:href="#ArialMT-31"/>
    </g>
   </g>
   <g id="text_43">
    <!-- 2 -->
    <g style="fill: #262626" transform="translate(243.319531 184.385156) scale(0.1 -0.1)">
     <use xlink:href="#ArialMT-32"/>
    </g>
   </g>
   <g id="text_44">
    <!-- 3 -->
    <g style="fill: #262626" transform="translate(274.119531 184.385156) scale(0.1 -0.1)">
     <use xlink:href="#ArialMT-33"/>
    </g>
   </g>
   <g id="text_45">
    <!-- 4 -->
    <g style="fill: #262626" transform="translate(304.919531 184.385156) scale(0.1 -0.1)">
     <use xlink:href="#ArialMT-34"/>
    </g>
   </g>
   <g id="text_46">
    <!-- 5 -->
    <g style="fill: #262626" transform="translate(58.519531 215.185156) scale(0.1 -0.1)">
     <use xlink:href="#ArialMT-35"/>
    </g>
   </g>
   <g id="text_47">
    <!-- 6 -->
    <g style="fill: #262626" transform="translate(89.319531 215.185156) scale(0.1 -0.1)">
     <use xlink:href="#ArialMT-36"/>
    </g>
   </g>
   <g id="text_48">
    <!-- 7 -->
    <g style="fill: #262626" transform="translate(120.119531 215.185156) scale(0.1 -0.1)">
     <use xlink:href="#ArialMT-37"/>
    </g>
   </g>
   <g id="text_49">
    <!-- 8 -->
    <g style="fill: #262626" transform="translate(150.919531 215.185156) scale(0.1 -0.1)">
     <use xlink:href="#ArialMT-38"/>
    </g>
   </g>
   <g id="text_50">
    <!-- 9 -->
    <g style="fill: #262626" transform="translate(181.719531 215.185156) scale(0.1 -0.1)">
     <use xlink:href="#ArialMT-39"/>
    </g>
   </g>
   <g id="text_51">
    <!-- 10 -->
    <g style="fill: #262626" transform="translate(209.739062 215.185156) scale(0.1 -0.1)">
     <use xlink:href="#ArialMT-31"/>
     <use xlink:href="#ArialMT-30" x="55.615234"/>
    </g>
   </g>
   <g id="text_52">
    <!-- 11 -->
    <g style="fill: #262626" transform="translate(240.907813 215.185156) scale(0.1 -0.1)">
     <use xlink:href="#ArialMT-31"/>
     <use xlink:href="#ArialMT-31" x="48.240234"/>
    </g>
   </g>
   <g id="text_53">
    <!-- 12 -->
    <g style="fill: #262626" transform="translate(271.339062 215.185156) scale(0.1 -0.1)">
     <use xlink:href="#ArialMT-31"/>
     <use xlink:href="#ArialMT-32" x="55.615234"/>
    </g>
   </g>
   <g id="text_54">
    <!-- 13 -->
    <g style="fill: #262626" transform="translate(302.139062 215.185156) scale(0.1 -0.1)">
     <use xlink:href="#ArialMT-31"/>
     <use xlink:href="#ArialMT-33" x="55.615234"/>
    </g>
   </g>
   <g id="text_55">
    <!-- 14 -->
    <g style="fill: #262626" transform="translate(55.739062 245.985156) scale(0.1 -0.1)">
     <use xlink:href="#ArialMT-31"/>
     <use xlink:href="#ArialMT-34" x="55.615234"/>
    </g>
   </g>
   <g id="text_56">
    <!-- 15 -->
    <g style="fill: #262626" transform="translate(86.539062 245.985156) scale(0.1 -0.1)">
     <use xlink:href="#ArialMT-31"/>
     <use xlink:href="#ArialMT-35" x="55.615234"/>
    </g>
   </g>
   <g id="text_57">
    <!-- 16 -->
    <g style="fill: #262626" transform="translate(117.339063 245.985156) scale(0.1 -0.1)">
     <use xlink:href="#ArialMT-31"/>
     <use xlink:href="#ArialMT-36" x="55.615234"/>
    </g>
   </g>
   <g id="text_58">
    <!-- 17 -->
    <g style="fill: #262626" transform="translate(148.139062 245.985156) scale(0.1 -0.1)">
     <use xlink:href="#ArialMT-31"/>
     <use xlink:href="#ArialMT-37" x="55.615234"/>
    </g>
   </g>
   <g id="text_59">
    <!-- 18 -->
    <g style="fill: #262626" transform="translate(178.939063 245.985156) scale(0.1 -0.1)">
     <use xlink:href="#ArialMT-31"/>
     <use xlink:href="#ArialMT-38" x="55.615234"/>
    </g>
   </g>
   <g id="text_60">
    <!-- 19 -->
    <g style="fill: #262626" transform="translate(209.739062 245.985156) scale(0.1 -0.1)">
     <use xlink:href="#ArialMT-31"/>
     <use xlink:href="#ArialMT-39" x="55.615234"/>
    </g>
   </g>
   <g id="text_61">
    <!-- 20 -->
    <g style="fill: #ffffff" transform="translate(240.539062 245.985156) scale(0.1 -0.1)">
     <use xlink:href="#ArialMT-32"/>
     <use xlink:href="#ArialMT-30" x="55.615234"/>
    </g>
   </g>
   <g id="text_62">
    <!-- 21 -->
    <g style="fill: #ffffff" transform="translate(271.339062 245.985156) scale(0.1 -0.1)">
     <use xlink:href="#ArialMT-32"/>
     <use xlink:href="#ArialMT-31" x="55.615234"/>
    </g>
   </g>
   <g id="text_63">
    <!-- 22 -->
    <g style="fill: #ffffff" transform="translate(302.139062 245.985156) scale(0.1 -0.1)">
     <use xlink:href="#ArialMT-32"/>
     <use xlink:href="#ArialMT-32" x="55.615234"/>
    </g>
   </g>
   <g id="text_64">
    <!-- 23 -->
    <g style="fill: #ffffff" transform="translate(55.739062 276.785156) scale(0.1 -0.1)">
     <use xlink:href="#ArialMT-32"/>
     <use xlink:href="#ArialMT-33" x="55.615234"/>
    </g>
   </g>
   <g id="text_65">
    <!-- 24 -->
    <g style="fill: #ffffff" transform="translate(86.539062 276.785156) scale(0.1 -0.1)">
     <use xlink:href="#ArialMT-32"/>
     <use xlink:href="#ArialMT-34" x="55.615234"/>
    </g>
   </g>
   <g id="text_66">
    <!-- 25 -->
    <g style="fill: #ffffff" transform="translate(117.339063 276.785156) scale(0.1 -0.1)">
     <use xlink:href="#ArialMT-32"/>
     <use xlink:href="#ArialMT-35" x="55.615234"/>
    </g>
   </g>
   <g id="text_67">
    <!-- 26 -->
    <g style="fill: #ffffff" transform="translate(148.139062 276.785156) scale(0.1 -0.1)">
     <use xlink:href="#ArialMT-32"/>
     <use xlink:href="#ArialMT-36" x="55.615234"/>
    </g>
   </g>
   <g id="text_68">
    <!-- 27 -->
    <g style="fill: #ffffff" transform="translate(178.939063 276.785156) scale(0.1 -0.1)">
     <use xlink:href="#ArialMT-32"/>
     <use xlink:href="#ArialMT-37" x="55.615234"/>
    </g>
   </g>
   <g id="text_69">
    <!-- 28 -->
    <g style="fill: #ffffff" transform="translate(209.739062 276.785156) scale(0.1 -0.1)">
     <use xlink:href="#ArialMT-32"/>
     <use xlink:href="#ArialMT-38" x="55.615234"/>
    </g>
   </g>
   <g id="text_70">
    <!-- 29 -->
    <g style="fill: #ffffff" transform="translate(240.539062 276.785156) scale(0.1 -0.1)">
     <use xlink:href="#ArialMT-32"/>
     <use xlink:href="#ArialMT-39" x="55.615234"/>
    </g>
   </g>
   <g id="text_71">
    <!-- 30 -->
    <g style="fill: #ffffff" transform="translate(271.339062 276.785156) scale(0.1 -0.1)">
     <use xlink:href="#ArialMT-33"/>
     <use xlink:href="#ArialMT-30" x="55.615234"/>
    </g>
   </g>
   <g id="text_72">
    <!-- 31 -->
    <g style="fill: #ffffff" transform="translate(302.139062 276.785156) scale(0.1 -0.1)">
     <use xlink:href="#ArialMT-33"/>
     <use xlink:href="#ArialMT-31" x="55.615234"/>
    </g>
   </g>
   <g id="text_73">
    <!-- 32 -->
    <g style="fill: #ffffff" transform="translate(55.739062 307.585156) scale(0.1 -0.1)">
     <use xlink:href="#ArialMT-33"/>
     <use xlink:href="#ArialMT-32" x="55.615234"/>
    </g>
   </g>
   <g id="text_74">
    <!-- 33 -->
    <g style="fill: #ffffff" transform="translate(86.539062 307.585156) scale(0.1 -0.1)">
     <use xlink:href="#ArialMT-33"/>
     <use xlink:href="#ArialMT-33" x="55.615234"/>
    </g>
   </g>
   <g id="text_75">
    <!-- 34 -->
    <g style="fill: #ffffff" transform="translate(117.339063 307.585156) scale(0.1 -0.1)">
     <use xlink:href="#ArialMT-33"/>
     <use xlink:href="#ArialMT-34" x="55.615234"/>
    </g>
   </g>
   <g id="text_76">
    <!-- 35 -->
    <g style="fill: #ffffff" transform="translate(148.139062 307.585156) scale(0.1 -0.1)">
     <use xlink:href="#ArialMT-33"/>
     <use xlink:href="#ArialMT-35" x="55.615234"/>
    </g>
   </g>
   <g id="text_77">
    <!-- 36 -->
    <g style="fill: #ffffff" transform="translate(178.939063 307.585156) scale(0.1 -0.1)">
     <use xlink:href="#ArialMT-33"/>
     <use xlink:href="#ArialMT-36" x="55.615234"/>
    </g>
   </g>
   <g id="text_78">
    <!-- 37 -->
    <g style="fill: #ffffff" transform="translate(209.739062 307.585156) scale(0.1 -0.1)">
     <use xlink:href="#ArialMT-33"/>
     <use xlink:href="#ArialMT-37" x="55.615234"/>
    </g>
   </g>
   <g id="text_79">
    <!-- 38 -->
    <g style="fill: #ffffff" transform="translate(240.539062 307.585156) scale(0.1 -0.1)">
     <use xlink:href="#ArialMT-33"/>
     <use xlink:href="#ArialMT-38" x="55.615234"/>
    </g>
   </g>
   <g id="text_80">
    <!-- 39 -->
    <g style="fill: #ffffff" transform="translate(271.339062 307.585156) scale(0.1 -0.1)">
     <use xlink:href="#ArialMT-33"/>
     <use xlink:href="#ArialMT-39" x="55.615234"/>
    </g>
   </g>
   <g id="text_81">
    <!-- 40 -->
    <g style="fill: #ffffff" transform="translate(302.139062 307.585156) scale(0.1 -0.1)">
     <use xlink:href="#ArialMT-34"/>
     <use xlink:href="#ArialMT-30" x="55.615234"/>
    </g>
   </g>
  </g>
 </g>
 <defs>
  <clipPath id="pae1826c008">
   <rect x="45.9" y="43.2" width="277.2" height="277.2"/>
  </clipPath>
 </defs>
</svg>
