<?xml version="1.0" encoding="utf-8" standalone="no"?>
<!DOCTYPE svg PUBLIC "-//W3C//DTD SVG 1.1//EN"
  "http://www.w3.org/Graphics/SVG/1.1/DTD/svg11.dtd">
<svg xmlns:xlink="http://www.w3.org/1999/xlink" width="144pt" height="72pt" viewBox="0 0 144 72" xmlns="http://www.w3.org/2000/svg" version="1.1">
 <metadata>
  <rdf:RDF xmlns:dc="http://purl.org/dc/elements/1.1/" xmlns:cc="http://creativecommons.org/ns#" xmlns:rdf="http://www.w3.org/1999/02/22-rdf-syntax-ns#">
   <cc:Work>
    <dc:type rdf:resource="http://purl.org/dc/dcmitype/StillImage"/>
    <dc:date>2024-12-06T00:40:06.429818</dc:date>
    <dc:format>image/svg+xml</dc:format>
    <dc:creator>
     <cc:Agent>
      <dc:title>Matplotlib v3.9.3, https://matplotlib.org/</dc:title>
     </cc:Agent>
    </dc:creator>
   </cc:Work>
  </rdf:RDF>
 </metadata>
 <defs>
  <style type="text/css">*{stroke-linejoin: round; stroke-linecap: butt}</style>
 </defs>
 <g id="figure_1">
  <g id="patch_1">
   <path d="M 0 72 
L 144 72 
L 144 0 
L 0 0 
z
" style="fill: #ffffff"/>
  </g>
  <g id="axes_1">
   <g id="patch_2">
    <path d="M 18 54.96 
L 129.6 54.96 
L 129.6 17.76 
L 18 17.76 
z
" style="fill: #eaeaf2"/>
   </g>
   <g id="matplotlib.axis_1"/>
   <g id="matplotlib.axis_2"/>
   <g id="QuadMesh_1">
    <path d="M 18 17.76 
L 55.2 17.76 
L 55.2 54.96 
L 18 54.96 
L 18 17.76 
" clip-path="url(#p2db83de9c5)" style="fill: #d62f27; stroke: #ffffff; stroke-width: 0.5"/>
    <path d="M 55.2 17.76 
L 92.4 17.76 
L 92.4 54.96 
L 55.2 54.96 
L 55.2 17.76 
" clip-path="url(#p2db83de9c5)" style="fill: #fffebe; stroke: #ffffff; stroke-width: 0.5"/>
    <path d="M 92.4 17.76 
L 129.6 17.76 
L 129.6 54.96 
L 92.4 54.96 
L 92.4 17.76 
" clip-path="url(#p2db83de9c5)" style="fill: #d62f27; stroke: #ffffff; stroke-width: 0.5"/>
   </g>
   <g id="text_1">
    <!-- 4 -->
    <g style="fill: #ffffff" transform="translate(33.819531 38.945156) scale(0.1 -0.1)">
     <defs>
      <path id="ArialMT-34" d="M 2069 0 
L 2069 1097 
L 81 1097 
L 81 1613 
L 2172 4581 
L 2631 4581 
L 2631 1613 
L 3250 1613 
L 3250 1097 
L 2631 1097 
L 2631 0 
L 2069 0 
z
M 2069 1613 
L 2069 3678 
L 634 1613 
L 2069 1613 
z
" transform="scale(0.015625)"/>
     </defs>
     <use xlink:href="#ArialMT-34"/>
    </g>
   </g>
   <g id="text_2">
    <!-- 0 -->
    <g style="fill: #262626" transform="translate(71.019531 38.945156) scale(0.1 -0.1)">
     <defs>
      <path id="ArialMT-30" d="M 266 2259 
Q 266 3072 433 3567 
Q 600 4063 929 4331 
Q 1259 4600 1759 4600 
Q 2128 4600 2406 4451 
Q 2684 4303 2865 4023 
Q 3047 3744 3150 3342 
Q 3253 2941 3253 2259 
Q 3253 1453 3087 958 
Q 2922 463 2592 192 
Q 2263 -78 1759 -78 
Q 1097 -78 719 397 
Q 266 969 266 2259 
z
M 844 2259 
Q 844 1131 1108 757 
Q 1372 384 1759 384 
Q 2147 384 2411 759 
Q 2675 1134 2675 2259 
Q 2675 3391 2411 3762 
Q 2147 4134 1753 4134 
Q 1366 4134 1134 3806 
Q 844 3388 844 2259 
z
" transform="scale(0.015625)"/>
     </defs>
     <use xlink:href="#ArialMT-30"/>
    </g>
   </g>
   <g id="text_3">
    <!-- 4 -->
    <g style="fill: #ffffff" transform="translate(108.219531 38.945156) scale(0.1 -0.1)">
     <use xlink:href="#ArialMT-34"/>
    </g>
   </g>
  </g>
 </g>
 <defs>
  <clipPath id="p2db83de9c5">
   <rect x="18" y="17.76" width="111.6" height="37.2"/>
  </clipPath>
 </defs>
</svg>
