<?xml version="1.0" encoding="utf-8" standalone="no"?>
<!DOCTYPE svg PUBLIC "-//W3C//DTD SVG 1.1//EN"
  "http://www.w3.org/Graphics/SVG/1.1/DTD/svg11.dtd">
<svg xmlns:xlink="http://www.w3.org/1999/xlink" width="216pt" height="72pt" viewBox="0 0 216 72" xmlns="http://www.w3.org/2000/svg" version="1.1">
 <metadata>
  <rdf:RDF xmlns:dc="http://purl.org/dc/elements/1.1/" xmlns:cc="http://creativecommons.org/ns#" xmlns:rdf="http://www.w3.org/1999/02/22-rdf-syntax-ns#">
   <cc:Work>
    <dc:type rdf:resource="http://purl.org/dc/dcmitype/StillImage"/>
    <dc:date>2024-12-06T00:27:51.834527</dc:date>
    <dc:format>image/svg+xml</dc:format>
    <dc:creator>
     <cc:Agent>
      <dc:title>Matplotlib v3.9.3, https://matplotlib.org/</dc:title>
     </cc:Agent>
    </dc:creator>
   </cc:Work>
  </rdf:RDF>
 </metadata>
 <defs>
  <style type="text/css">*{stroke-linejoin: round; stroke-linecap: butt}</style>
 </defs>
 <g id="figure_1">
  <g id="patch_1">
   <path d="M 0 72 
L 216 72 
L 216 0 
L 0 0 
z
" style="fill: #ffffff"/>
  </g>
  <g id="axes_1">
   <g id="patch_2">
    <path d="M 41.4 64.08 
L 180 64.08 
L 180 8.64 
L 41.4 8.64 
z
" style="fill: #eaeaf2"/>
   </g>
   <g id="matplotlib.axis_1"/>
   <g id="matplotlib.axis_2"/>
   <g id="QuadMesh_1">
    <path d="M 41.4 8.64 
L 69.12 8.64 
L 69.12 36.36 
L 41.4 36.36 
L 41.4 8.64 
" clip-path="url(#pfbbbc59143)" style="fill: #fee090; stroke: #ffffff; stroke-width: 0.5"/>
    <path d="M 69.12 8.64 
L 96.84 8.64 
L 96.84 36.36 
L 69.12 36.36 
L 69.12 8.64 
" clip-path="url(#pfbbbc59143)" style="fill: #fdad60; stroke: #ffffff; stroke-width: 0.5"/>
    <path d="M 96.84 8.64 
L 124.56 8.64 
L 124.56 36.36 
L 96.84 36.36 
L 96.84 8.64 
" clip-path="url(#pfbbbc59143)" style="fill: #f46d43; stroke: #ffffff; stroke-width: 0.5"/>
    <path d="M 124.56 8.64 
L 152.28 8.64 
L 152.28 36.36 
L 124.56 36.36 
L 124.56 8.64 
" clip-path="url(#pfbbbc59143)" style="fill: #d62f27; stroke: #ffffff; stroke-width: 0.5"/>
    <path d="M 152.28 8.64 
L 180 8.64 
L 180 36.36 
L 152.28 36.36 
L 152.28 8.64 
" clip-path="url(#pfbbbc59143)" style="fill: #a50026; stroke: #ffffff; stroke-width: 0.5"/>
    <path d="M 41.4 36.36 
L 69.12 36.36 
L 69.12 64.08 
L 41.4 64.08 
L 41.4 36.36 
" clip-path="url(#pfbbbc59143)" style="fill: #313695; stroke: #ffffff; stroke-width: 0.5"/>
    <path d="M 69.12 36.36 
L 96.84 36.36 
L 96.84 64.08 
L 69.12 64.08 
L 69.12 36.36 
" clip-path="url(#pfbbbc59143)" style="fill: #4574b3; stroke: #ffffff; stroke-width: 0.5"/>
    <path d="M 96.84 36.36 
L 124.56 36.36 
L 124.56 64.08 
L 96.84 64.08 
L 96.84 36.36 
" clip-path="url(#pfbbbc59143)" style="fill: #74add1; stroke: #ffffff; stroke-width: 0.5"/>
    <path d="M 124.56 36.36 
L 152.28 36.36 
L 152.28 64.08 
L 124.56 64.08 
L 124.56 36.36 
" clip-path="url(#pfbbbc59143)" style="fill: #aad8e9; stroke: #ffffff; stroke-width: 0.5"/>
    <path d="M 152.28 36.36 
L 180 36.36 
L 180 64.08 
L 152.28 64.08 
L 152.28 36.36 
" clip-path="url(#pfbbbc59143)" style="fill: #e0f3f8; stroke: #ffffff; stroke-width: 0.5"/>
   </g>
   <g id="text_1">
    <!-- 1 -->
    <g style="fill: #262626" transform="translate(52.479531 25.085156) scale(0.1 -0.1)">
     <defs>
      <path id="ArialMT-31" d="M 2384 0 
L 1822 0 
L 1822 3584 
Q 1619 3391 1289 3197 
Q 959 3003 697 2906 
L 697 3450 
Q 1169 3672 1522 3987 
Q 1875 4303 2022 4600 
L 2384 4600 
L 2384 0 
z
" transform="scale(0.015625)"/>
     </defs>
     <use xlink:href="#ArialMT-31"/>
    </g>
   </g>
   <g id="text_2">
    <!-- 2 -->
    <g style="fill: #262626" transform="translate(80.199531 25.085156) scale(0.1 -0.1)">
     <defs>
      <path id="ArialMT-32" d="M 3222 541 
L 3222 0 
L 194 0 
Q 188 203 259 391 
Q 375 700 629 1000 
Q 884 1300 1366 1694 
Q 2113 2306 2375 2664 
Q 2638 3022 2638 3341 
Q 2638 3675 2398 3904 
Q 2159 4134 1775 4134 
Q 1369 4134 1125 3890 
Q 881 3647 878 3216 
L 300 3275 
Q 359 3922 746 4261 
Q 1134 4600 1788 4600 
Q 2447 4600 2831 4234 
Q 3216 3869 3216 3328 
Q 3216 3053 3103 2787 
Q 2991 2522 2730 2228 
Q 2469 1934 1863 1422 
Q 1356 997 1212 845 
Q 1069 694 975 541 
L 3222 541 
z
" transform="scale(0.015625)"/>
     </defs>
     <use xlink:href="#ArialMT-32"/>
    </g>
   </g>
   <g id="text_3">
    <!-- 3 -->
    <g style="fill: #ffffff" transform="translate(107.919531 25.085156) scale(0.1 -0.1)">
     <defs>
      <path id="ArialMT-33" d="M 269 1209 
L 831 1284 
Q 928 806 1161 595 
Q 1394 384 1728 384 
Q 2125 384 2398 659 
Q 2672 934 2672 1341 
Q 2672 1728 2419 1979 
Q 2166 2231 1775 2231 
Q 1616 2231 1378 2169 
L 1441 2663 
Q 1497 2656 1531 2656 
Q 1891 2656 2178 2843 
Q 2466 3031 2466 3422 
Q 2466 3731 2256 3934 
Q 2047 4138 1716 4138 
Q 1388 4138 1169 3931 
Q 950 3725 888 3313 
L 325 3413 
Q 428 3978 793 4289 
Q 1159 4600 1703 4600 
Q 2078 4600 2393 4439 
Q 2709 4278 2876 4000 
Q 3044 3722 3044 3409 
Q 3044 3113 2884 2869 
Q 2725 2625 2413 2481 
Q 2819 2388 3044 2092 
Q 3269 1797 3269 1353 
Q 3269 753 2831 336 
Q 2394 -81 1725 -81 
Q 1122 -81 723 278 
Q 325 638 269 1209 
z
" transform="scale(0.015625)"/>
     </defs>
     <use xlink:href="#ArialMT-33"/>
    </g>
   </g>
   <g id="text_4">
    <!-- 4 -->
    <g style="fill: #ffffff" transform="translate(135.639531 25.085156) scale(0.1 -0.1)">
     <defs>
      <path id="ArialMT-34" d="M 2069 0 
L 2069 1097 
L 81 1097 
L 81 1613 
L 2172 4581 
L 2631 4581 
L 2631 1613 
L 3250 1613 
L 3250 1097 
L 2631 1097 
L 2631 0 
L 2069 0 
z
M 2069 1613 
L 2069 3678 
L 634 1613 
L 2069 1613 
z
" transform="scale(0.015625)"/>
     </defs>
     <use xlink:href="#ArialMT-34"/>
    </g>
   </g>
   <g id="text_5">
    <!-- 5 -->
    <g style="fill: #ffffff" transform="translate(163.359531 25.085156) scale(0.1 -0.1)">
     <defs>
      <path id="ArialMT-35" d="M 266 1200 
L 856 1250 
Q 922 819 1161 601 
Q 1400 384 1738 384 
Q 2144 384 2425 690 
Q 2706 997 2706 1503 
Q 2706 1984 2436 2262 
Q 2166 2541 1728 2541 
Q 1456 2541 1237 2417 
Q 1019 2294 894 2097 
L 366 2166 
L 809 4519 
L 3088 4519 
L 3088 3981 
L 1259 3981 
L 1013 2750 
Q 1425 3038 1878 3038 
Q 2478 3038 2890 2622 
Q 3303 2206 3303 1553 
Q 3303 931 2941 478 
Q 2500 -78 1738 -78 
Q 1113 -78 717 272 
Q 322 622 266 1200 
z
" transform="scale(0.015625)"/>
     </defs>
     <use xlink:href="#ArialMT-35"/>
    </g>
   </g>
   <g id="text_6">
    <!-- -5 -->
    <g style="fill: #ffffff" transform="translate(50.814688 52.805156) scale(0.1 -0.1)">
     <defs>
      <path id="ArialMT-2d" d="M 203 1375 
L 203 1941 
L 1931 1941 
L 1931 1375 
L 203 1375 
z
" transform="scale(0.015625)"/>
     </defs>
     <use xlink:href="#ArialMT-2d"/>
     <use xlink:href="#ArialMT-35" x="33.300781"/>
    </g>
   </g>
   <g id="text_7">
    <!-- -4 -->
    <g style="fill: #ffffff" transform="translate(78.534687 52.805156) scale(0.1 -0.1)">
     <use xlink:href="#ArialMT-2d"/>
     <use xlink:href="#ArialMT-34" x="33.300781"/>
    </g>
   </g>
   <g id="text_8">
    <!-- -3 -->
    <g style="fill: #ffffff" transform="translate(106.254687 52.805156) scale(0.1 -0.1)">
     <use xlink:href="#ArialMT-2d"/>
     <use xlink:href="#ArialMT-33" x="33.300781"/>
    </g>
   </g>
   <g id="text_9">
    <!-- -2 -->
    <g style="fill: #262626" transform="translate(133.974687 52.805156) scale(0.1 -0.1)">
     <use xlink:href="#ArialMT-2d"/>
     <use xlink:href="#ArialMT-32" x="33.300781"/>
    </g>
   </g>
   <g id="text_10">
    <!-- -1 -->
    <g style="fill: #262626" transform="translate(161.694687 52.805156) scale(0.1 -0.1)">
     <use xlink:href="#ArialMT-2d"/>
     <use xlink:href="#ArialMT-31" x="33.300781"/>
    </g>
   </g>
  </g>
 </g>
 <defs>
  <clipPath id="pfbbbc59143">
   <rect x="41.4" y="8.64" width="138.6" height="55.44"/>
  </clipPath>
 </defs>
</svg>
