<?xml version="1.0" encoding="utf-8" standalone="no"?>
<!DOCTYPE svg PUBLIC "-//W3C//DTD SVG 1.1//EN"
  "http://www.w3.org/Graphics/SVG/1.1/DTD/svg11.dtd">
<svg xmlns:xlink="http://www.w3.org/1999/xlink" width="460.8pt" height="345.6pt" viewBox="0 0 460.8 345.6" xmlns="http://www.w3.org/2000/svg" version="1.1">
 <metadata>
  <rdf:RDF xmlns:dc="http://purl.org/dc/elements/1.1/" xmlns:cc="http://creativecommons.org/ns#" xmlns:rdf="http://www.w3.org/1999/02/22-rdf-syntax-ns#">
   <cc:Work>
    <dc:type rdf:resource="http://purl.org/dc/dcmitype/StillImage"/>
    <dc:date>2024-12-07T21:01:02.312496</dc:date>
    <dc:format>image/svg+xml</dc:format>
    <dc:creator>
     <cc:Agent>
      <dc:title>Matplotlib v3.9.3, https://matplotlib.org/</dc:title>
     </cc:Agent>
    </dc:creator>
   </cc:Work>
  </rdf:RDF>
 </metadata>
 <defs>
  <style type="text/css">*{stroke-linejoin: round; stroke-linecap: butt}</style>
 </defs>
 <g id="figure_1">
  <g id="patch_1">
   <path d="M 0 345.6 
L 460.8 345.6 
L 460.8 0 
L 0 0 
z
" style="fill: #ffffff"/>
  </g>
  <g id="axes_1">
   <g id="patch_2">
    <path d="M 57.6 307.584 
L 414.72 307.584 
L 414.72 41.472 
L 57.6 41.472 
z
" style="fill: #eaeaf2"/>
   </g>
   <g id="matplotlib.axis_1">
    <g id="xtick_1">
     <g id="line2d_1">
      <path d="M 96.882045 307.584 
L 96.882045 41.472 
" clip-path="url(#p4e5e084107)" style="fill: none; stroke: #ffffff; stroke-width: 0.8; stroke-linecap: round"/>
     </g>
     <g id="text_1">
      <!-- −0.1 -->
      <g style="fill: #262626" transform="translate(87.011732 321.741812) scale(0.1 -0.1)">
       <defs>
        <path id="ArialMT-2212" d="M 3381 1997 
L 356 1997 
L 356 2522 
L 3381 2522 
L 3381 1997 
z
" transform="scale(0.015625)"/>
        <path id="ArialMT-30" d="M 266 2259 
Q 266 3072 433 3567 
Q 600 4063 929 4331 
Q 1259 4600 1759 4600 
Q 2128 4600 2406 4451 
Q 2684 4303 2865 4023 
Q 3047 3744 3150 3342 
Q 3253 2941 3253 2259 
Q 3253 1453 3087 958 
Q 2922 463 2592 192 
Q 2263 -78 1759 -78 
Q 1097 -78 719 397 
Q 266 969 266 2259 
z
M 844 2259 
Q 844 1131 1108 757 
Q 1372 384 1759 384 
Q 2147 384 2411 759 
Q 2675 1134 2675 2259 
Q 2675 3391 2411 3762 
Q 2147 4134 1753 4134 
Q 1366 4134 1134 3806 
Q 844 3388 844 2259 
z
" transform="scale(0.015625)"/>
        <path id="ArialMT-2e" d="M 581 0 
L 581 641 
L 1222 641 
L 1222 0 
L 581 0 
z
" transform="scale(0.015625)"/>
        <path id="ArialMT-31" d="M 2384 0 
L 1822 0 
L 1822 3584 
Q 1619 3391 1289 3197 
Q 959 3003 697 2906 
L 697 3450 
Q 1169 3672 1522 3987 
Q 1875 4303 2022 4600 
L 2384 4600 
L 2384 0 
z
" transform="scale(0.015625)"/>
       </defs>
       <use xlink:href="#ArialMT-2212"/>
       <use xlink:href="#ArialMT-30" x="58.398438"/>
       <use xlink:href="#ArialMT-2e" x="114.013672"/>
       <use xlink:href="#ArialMT-31" x="141.796875"/>
      </g>
     </g>
    </g>
    <g id="xtick_2">
     <g id="line2d_2">
      <path d="M 172.615516 307.584 
L 172.615516 41.472 
" clip-path="url(#p4e5e084107)" style="fill: none; stroke: #ffffff; stroke-width: 0.8; stroke-linecap: round"/>
     </g>
     <g id="text_2">
      <!-- 0.0 -->
      <g style="fill: #262626" transform="translate(165.665516 321.741812) scale(0.1 -0.1)">
       <use xlink:href="#ArialMT-30"/>
       <use xlink:href="#ArialMT-2e" x="55.615234"/>
       <use xlink:href="#ArialMT-30" x="83.398438"/>
      </g>
     </g>
    </g>
    <g id="xtick_3">
     <g id="line2d_3">
      <path d="M 248.348987 307.584 
L 248.348987 41.472 
" clip-path="url(#p4e5e084107)" style="fill: none; stroke: #ffffff; stroke-width: 0.8; stroke-linecap: round"/>
     </g>
     <g id="text_3">
      <!-- 0.1 -->
      <g style="fill: #262626" transform="translate(241.398987 321.741812) scale(0.1 -0.1)">
       <use xlink:href="#ArialMT-30"/>
       <use xlink:href="#ArialMT-2e" x="55.615234"/>
       <use xlink:href="#ArialMT-31" x="83.398438"/>
      </g>
     </g>
    </g>
    <g id="xtick_4">
     <g id="line2d_4">
      <path d="M 324.082459 307.584 
L 324.082459 41.472 
" clip-path="url(#p4e5e084107)" style="fill: none; stroke: #ffffff; stroke-width: 0.8; stroke-linecap: round"/>
     </g>
     <g id="text_4">
      <!-- 0.2 -->
      <g style="fill: #262626" transform="translate(317.132459 321.741812) scale(0.1 -0.1)">
       <defs>
        <path id="ArialMT-32" d="M 3222 541 
L 3222 0 
L 194 0 
Q 188 203 259 391 
Q 375 700 629 1000 
Q 884 1300 1366 1694 
Q 2113 2306 2375 2664 
Q 2638 3022 2638 3341 
Q 2638 3675 2398 3904 
Q 2159 4134 1775 4134 
Q 1369 4134 1125 3890 
Q 881 3647 878 3216 
L 300 3275 
Q 359 3922 746 4261 
Q 1134 4600 1788 4600 
Q 2447 4600 2831 4234 
Q 3216 3869 3216 3328 
Q 3216 3053 3103 2787 
Q 2991 2522 2730 2228 
Q 2469 1934 1863 1422 
Q 1356 997 1212 845 
Q 1069 694 975 541 
L 3222 541 
z
" transform="scale(0.015625)"/>
       </defs>
       <use xlink:href="#ArialMT-30"/>
       <use xlink:href="#ArialMT-2e" x="55.615234"/>
       <use xlink:href="#ArialMT-32" x="83.398438"/>
      </g>
     </g>
    </g>
    <g id="xtick_5">
     <g id="line2d_5">
      <path d="M 399.81593 307.584 
L 399.81593 41.472 
" clip-path="url(#p4e5e084107)" style="fill: none; stroke: #ffffff; stroke-width: 0.8; stroke-linecap: round"/>
     </g>
     <g id="text_5">
      <!-- 0.3 -->
      <g style="fill: #262626" transform="translate(392.86593 321.741812) scale(0.1 -0.1)">
       <defs>
        <path id="ArialMT-33" d="M 269 1209 
L 831 1284 
Q 928 806 1161 595 
Q 1394 384 1728 384 
Q 2125 384 2398 659 
Q 2672 934 2672 1341 
Q 2672 1728 2419 1979 
Q 2166 2231 1775 2231 
Q 1616 2231 1378 2169 
L 1441 2663 
Q 1497 2656 1531 2656 
Q 1891 2656 2178 2843 
Q 2466 3031 2466 3422 
Q 2466 3731 2256 3934 
Q 2047 4138 1716 4138 
Q 1388 4138 1169 3931 
Q 950 3725 888 3313 
L 325 3413 
Q 428 3978 793 4289 
Q 1159 4600 1703 4600 
Q 2078 4600 2393 4439 
Q 2709 4278 2876 4000 
Q 3044 3722 3044 3409 
Q 3044 3113 2884 2869 
Q 2725 2625 2413 2481 
Q 2819 2388 3044 2092 
Q 3269 1797 3269 1353 
Q 3269 753 2831 336 
Q 2394 -81 1725 -81 
Q 1122 -81 723 278 
Q 325 638 269 1209 
z
" transform="scale(0.015625)"/>
       </defs>
       <use xlink:href="#ArialMT-30"/>
       <use xlink:href="#ArialMT-2e" x="55.615234"/>
       <use xlink:href="#ArialMT-33" x="83.398438"/>
      </g>
     </g>
    </g>
   </g>
   <g id="matplotlib.axis_2">
    <g id="ytick_1">
     <g id="line2d_6">
      <path d="M 57.6 290.952 
L 414.72 290.952 
" clip-path="url(#p4e5e084107)" style="fill: none; stroke: #ffffff; stroke-width: 0.8; stroke-linecap: round"/>
     </g>
     <g id="text_6">
      <!-- 0.5 yr -->
      <g style="fill: #262626" transform="translate(25.592188 294.54575) scale(0.1 -0.1)">
       <defs>
        <path id="ArialMT-35" d="M 266 1200 
L 856 1250 
Q 922 819 1161 601 
Q 1400 384 1738 384 
Q 2144 384 2425 690 
Q 2706 997 2706 1503 
Q 2706 1984 2436 2262 
Q 2166 2541 1728 2541 
Q 1456 2541 1237 2417 
Q 1019 2294 894 2097 
L 366 2166 
L 809 4519 
L 3088 4519 
L 3088 3981 
L 1259 3981 
L 1013 2750 
Q 1425 3038 1878 3038 
Q 2478 3038 2890 2622 
Q 3303 2206 3303 1553 
Q 3303 931 2941 478 
Q 2500 -78 1738 -78 
Q 1113 -78 717 272 
Q 322 622 266 1200 
z
" transform="scale(0.015625)"/>
        <path id="ArialMT-20" transform="scale(0.015625)"/>
        <path id="ArialMT-79" d="M 397 -1278 
L 334 -750 
Q 519 -800 656 -800 
Q 844 -800 956 -737 
Q 1069 -675 1141 -563 
Q 1194 -478 1313 -144 
Q 1328 -97 1363 -6 
L 103 3319 
L 709 3319 
L 1400 1397 
Q 1534 1031 1641 628 
Q 1738 1016 1872 1384 
L 2581 3319 
L 3144 3319 
L 1881 -56 
Q 1678 -603 1566 -809 
Q 1416 -1088 1222 -1217 
Q 1028 -1347 759 -1347 
Q 597 -1347 397 -1278 
z
" transform="scale(0.015625)"/>
        <path id="ArialMT-72" d="M 416 0 
L 416 3319 
L 922 3319 
L 922 2816 
Q 1116 3169 1280 3281 
Q 1444 3394 1641 3394 
Q 1925 3394 2219 3213 
L 2025 2691 
Q 1819 2813 1613 2813 
Q 1428 2813 1281 2702 
Q 1134 2591 1072 2394 
Q 978 2094 978 1738 
L 978 0 
L 416 0 
z
" transform="scale(0.015625)"/>
       </defs>
       <use xlink:href="#ArialMT-30"/>
       <use xlink:href="#ArialMT-2e" x="55.615234"/>
       <use xlink:href="#ArialMT-35" x="83.398438"/>
       <use xlink:href="#ArialMT-20" x="139.013672"/>
       <use xlink:href="#ArialMT-79" x="166.796875"/>
       <use xlink:href="#ArialMT-72" x="216.796875"/>
      </g>
     </g>
    </g>
    <g id="ytick_2">
     <g id="line2d_7">
      <path d="M 57.6 257.688 
L 414.72 257.688 
" clip-path="url(#p4e5e084107)" style="fill: none; stroke: #ffffff; stroke-width: 0.8; stroke-linecap: round"/>
     </g>
     <g id="text_7">
      <!-- 1 yr -->
      <g style="fill: #262626" transform="translate(33.93125 261.28175) scale(0.1 -0.1)">
       <use xlink:href="#ArialMT-31"/>
       <use xlink:href="#ArialMT-20" x="55.615234"/>
       <use xlink:href="#ArialMT-79" x="83.398438"/>
       <use xlink:href="#ArialMT-72" x="133.398438"/>
      </g>
     </g>
    </g>
    <g id="ytick_3">
     <g id="line2d_8">
      <path d="M 57.6 224.424 
L 414.72 224.424 
" clip-path="url(#p4e5e084107)" style="fill: none; stroke: #ffffff; stroke-width: 0.8; stroke-linecap: round"/>
     </g>
     <g id="text_8">
      <!-- 2 yr -->
      <g style="fill: #262626" transform="translate(33.93125 228.01775) scale(0.1 -0.1)">
       <use xlink:href="#ArialMT-32"/>
       <use xlink:href="#ArialMT-20" x="55.615234"/>
       <use xlink:href="#ArialMT-79" x="83.398438"/>
       <use xlink:href="#ArialMT-72" x="133.398438"/>
      </g>
     </g>
    </g>
    <g id="ytick_4">
     <g id="line2d_9">
      <path d="M 57.6 191.16 
L 414.72 191.16 
" clip-path="url(#p4e5e084107)" style="fill: none; stroke: #ffffff; stroke-width: 0.8; stroke-linecap: round"/>
     </g>
     <g id="text_9">
      <!-- 5 yr -->
      <g style="fill: #262626" transform="translate(33.93125 194.690469) scale(0.1 -0.1)">
       <use xlink:href="#ArialMT-35"/>
       <use xlink:href="#ArialMT-20" x="55.615234"/>
       <use xlink:href="#ArialMT-79" x="83.398438"/>
       <use xlink:href="#ArialMT-72" x="133.398438"/>
      </g>
     </g>
    </g>
    <g id="ytick_5">
     <g id="line2d_10">
      <path d="M 57.6 157.896 
L 414.72 157.896 
" clip-path="url(#p4e5e084107)" style="fill: none; stroke: #ffffff; stroke-width: 0.8; stroke-linecap: round"/>
     </g>
     <g id="text_10">
      <!-- 7 yr -->
      <g style="fill: #262626" transform="translate(33.93125 161.428812) scale(0.1 -0.1)">
       <defs>
        <path id="ArialMT-37" d="M 303 3981 
L 303 4522 
L 3269 4522 
L 3269 4084 
Q 2831 3619 2401 2847 
Q 1972 2075 1738 1259 
Q 1569 684 1522 0 
L 944 0 
Q 953 541 1156 1306 
Q 1359 2072 1739 2783 
Q 2119 3494 2547 3981 
L 303 3981 
z
" transform="scale(0.015625)"/>
       </defs>
       <use xlink:href="#ArialMT-37"/>
       <use xlink:href="#ArialMT-20" x="55.615234"/>
       <use xlink:href="#ArialMT-79" x="83.398438"/>
       <use xlink:href="#ArialMT-72" x="133.398438"/>
      </g>
     </g>
    </g>
    <g id="ytick_6">
     <g id="line2d_11">
      <path d="M 57.6 124.632 
L 414.72 124.632 
" clip-path="url(#p4e5e084107)" style="fill: none; stroke: #ffffff; stroke-width: 0.8; stroke-linecap: round"/>
     </g>
     <g id="text_11">
      <!-- 10 yr -->
      <g style="fill: #262626" transform="translate(28.370313 128.22575) scale(0.1 -0.1)">
       <use xlink:href="#ArialMT-31"/>
       <use xlink:href="#ArialMT-30" x="55.615234"/>
       <use xlink:href="#ArialMT-20" x="111.230469"/>
       <use xlink:href="#ArialMT-79" x="139.013672"/>
       <use xlink:href="#ArialMT-72" x="189.013672"/>
      </g>
     </g>
    </g>
    <g id="ytick_7">
     <g id="line2d_12">
      <path d="M 57.6 91.368 
L 414.72 91.368 
" clip-path="url(#p4e5e084107)" style="fill: none; stroke: #ffffff; stroke-width: 0.8; stroke-linecap: round"/>
     </g>
     <g id="text_12">
      <!-- 20 yr -->
      <g style="fill: #262626" transform="translate(28.370313 94.96175) scale(0.1 -0.1)">
       <use xlink:href="#ArialMT-32"/>
       <use xlink:href="#ArialMT-30" x="55.615234"/>
       <use xlink:href="#ArialMT-20" x="111.230469"/>
       <use xlink:href="#ArialMT-79" x="139.013672"/>
       <use xlink:href="#ArialMT-72" x="189.013672"/>
      </g>
     </g>
    </g>
    <g id="ytick_8">
     <g id="line2d_13">
      <path d="M 57.6 58.104 
L 414.72 58.104 
" clip-path="url(#p4e5e084107)" style="fill: none; stroke: #ffffff; stroke-width: 0.8; stroke-linecap: round"/>
     </g>
     <g id="text_13">
      <!-- 30 yr -->
      <g style="fill: #262626" transform="translate(28.370313 61.69775) scale(0.1 -0.1)">
       <use xlink:href="#ArialMT-33"/>
       <use xlink:href="#ArialMT-30" x="55.615234"/>
       <use xlink:href="#ArialMT-20" x="111.230469"/>
       <use xlink:href="#ArialMT-79" x="139.013672"/>
       <use xlink:href="#ArialMT-72" x="189.013672"/>
      </g>
     </g>
    </g>
   </g>
   <g id="line2d_14">
    <path d="M 169.328043 299.268 
L 169.328043 282.636 
L 188.428858 282.636 
L 188.428858 299.268 
L 169.328043 299.268 
" clip-path="url(#p4e5e084107)" style="fill: none; stroke: #1f77b4; stroke-linecap: round"/>
   </g>
   <g id="line2d_15">
    <path d="M 169.328043 290.952 
L 141.912757 290.952 
" clip-path="url(#p4e5e084107)" style="fill: none; stroke: #1f77b4; stroke-linecap: round"/>
   </g>
   <g id="line2d_16">
    <path d="M 188.428858 290.952 
L 215.584861 290.952 
" clip-path="url(#p4e5e084107)" style="fill: none; stroke: #1f77b4; stroke-linecap: round"/>
   </g>
   <g id="line2d_17">
    <path d="M 141.912757 295.11 
L 141.912757 286.794 
" clip-path="url(#p4e5e084107)" style="fill: none; stroke: #1f77b4; stroke-linecap: round"/>
   </g>
   <g id="line2d_18">
    <path d="M 215.584861 295.11 
L 215.584861 286.794 
" clip-path="url(#p4e5e084107)" style="fill: none; stroke: #1f77b4; stroke-linecap: round"/>
   </g>
   <g id="line2d_19">
    <defs>
     <path id="md1d3bea2f5" d="M 0 3 
C 0.795609 3 1.55874 2.683901 2.12132 2.12132 
C 2.683901 1.55874 3 0.795609 3 0 
C 3 -0.795609 2.683901 -1.55874 2.12132 -2.12132 
C 1.55874 -2.683901 0.795609 -3 0 -3 
C -0.795609 -3 -1.55874 -2.683901 -2.12132 -2.12132 
C -2.683901 -1.55874 -3 -0.795609 -3 0 
C -3 0.795609 -2.683901 1.55874 -2.12132 2.12132 
C -1.55874 2.683901 -0.795609 3 0 3 
z
" style="stroke: #000000"/>
    </defs>
    <g clip-path="url(#p4e5e084107)">
     <use xlink:href="#md1d3bea2f5" x="125.282096" y="290.952" style="fill-opacity: 0; stroke: #000000"/>
     <use xlink:href="#md1d3bea2f5" x="132.755794" y="290.952" style="fill-opacity: 0; stroke: #000000"/>
     <use xlink:href="#md1d3bea2f5" x="120.022828" y="290.952" style="fill-opacity: 0; stroke: #000000"/>
     <use xlink:href="#md1d3bea2f5" x="80.50724" y="290.952" style="fill-opacity: 0; stroke: #000000"/>
     <use xlink:href="#md1d3bea2f5" x="73.832727" y="290.952" style="fill-opacity: 0; stroke: #000000"/>
     <use xlink:href="#md1d3bea2f5" x="128.584428" y="290.952" style="fill-opacity: 0; stroke: #000000"/>
     <use xlink:href="#md1d3bea2f5" x="135.800634" y="290.952" style="fill-opacity: 0; stroke: #000000"/>
     <use xlink:href="#md1d3bea2f5" x="138.332875" y="290.952" style="fill-opacity: 0; stroke: #000000"/>
     <use xlink:href="#md1d3bea2f5" x="298.837968" y="290.952" style="fill-opacity: 0; stroke: #000000"/>
     <use xlink:href="#md1d3bea2f5" x="226.710853" y="290.952" style="fill-opacity: 0; stroke: #000000"/>
     <use xlink:href="#md1d3bea2f5" x="349.326949" y="290.952" style="fill-opacity: 0; stroke: #000000"/>
     <use xlink:href="#md1d3bea2f5" x="259.168055" y="290.952" style="fill-opacity: 0; stroke: #000000"/>
     <use xlink:href="#md1d3bea2f5" x="229.41562" y="290.952" style="fill-opacity: 0; stroke: #000000"/>
     <use xlink:href="#md1d3bea2f5" x="278.290127" y="290.952" style="fill-opacity: 0; stroke: #000000"/>
     <use xlink:href="#md1d3bea2f5" x="223.104497" y="290.952" style="fill-opacity: 0; stroke: #000000"/>
     <use xlink:href="#md1d3bea2f5" x="298.837968" y="290.952" style="fill-opacity: 0; stroke: #000000"/>
     <use xlink:href="#md1d3bea2f5" x="398.487273" y="290.952" style="fill-opacity: 0; stroke: #000000"/>
     <use xlink:href="#md1d3bea2f5" x="225.948947" y="290.952" style="fill-opacity: 0; stroke: #000000"/>
     <use xlink:href="#md1d3bea2f5" x="265.825942" y="290.952" style="fill-opacity: 0; stroke: #000000"/>
     <use xlink:href="#md1d3bea2f5" x="242.523336" y="290.952" style="fill-opacity: 0; stroke: #000000"/>
     <use xlink:href="#md1d3bea2f5" x="273.593478" y="290.952" style="fill-opacity: 0; stroke: #000000"/>
     <use xlink:href="#md1d3bea2f5" x="238.470709" y="290.952" style="fill-opacity: 0; stroke: #000000"/>
     <use xlink:href="#md1d3bea2f5" x="250.290871" y="290.952" style="fill-opacity: 0; stroke: #000000"/>
     <use xlink:href="#md1d3bea2f5" x="282.109691" y="290.952" style="fill-opacity: 0; stroke: #000000"/>
     <use xlink:href="#md1d3bea2f5" x="225.104061" y="290.952" style="fill-opacity: 0; stroke: #000000"/>
     <use xlink:href="#md1d3bea2f5" x="217.829529" y="290.952" style="fill-opacity: 0; stroke: #000000"/>
     <use xlink:href="#md1d3bea2f5" x="221.793095" y="290.952" style="fill-opacity: 0; stroke: #000000"/>
     <use xlink:href="#md1d3bea2f5" x="243.746401" y="290.952" style="fill-opacity: 0; stroke: #000000"/>
     <use xlink:href="#md1d3bea2f5" x="275.888432" y="290.952" style="fill-opacity: 0; stroke: #000000"/>
     <use xlink:href="#md1d3bea2f5" x="233.202293" y="290.952" style="fill-opacity: 0; stroke: #000000"/>
     <use xlink:href="#md1d3bea2f5" x="243.300089" y="290.952" style="fill-opacity: 0; stroke: #000000"/>
     <use xlink:href="#md1d3bea2f5" x="221.651577" y="290.952" style="fill-opacity: 0; stroke: #000000"/>
    </g>
   </g>
   <g id="line2d_20">
    <path d="M 166.258016 266.004 
L 166.258016 249.372 
L 187.882247 249.372 
L 187.882247 266.004 
L 166.258016 266.004 
" clip-path="url(#p4e5e084107)" style="fill: none; stroke: #1f77b4; stroke-linecap: round"/>
   </g>
   <g id="line2d_21">
    <path d="M 166.258016 257.688 
L 134.74878 257.688 
" clip-path="url(#p4e5e084107)" style="fill: none; stroke: #1f77b4; stroke-linecap: round"/>
   </g>
   <g id="line2d_22">
    <path d="M 187.882247 257.688 
L 217.646229 257.688 
" clip-path="url(#p4e5e084107)" style="fill: none; stroke: #1f77b4; stroke-linecap: round"/>
   </g>
   <g id="line2d_23">
    <path d="M 134.74878 261.846 
L 134.74878 253.53 
" clip-path="url(#p4e5e084107)" style="fill: none; stroke: #1f77b4; stroke-linecap: round"/>
   </g>
   <g id="line2d_24">
    <path d="M 217.646229 261.846 
L 217.646229 253.53 
" clip-path="url(#p4e5e084107)" style="fill: none; stroke: #1f77b4; stroke-linecap: round"/>
   </g>
   <g id="line2d_25">
    <g clip-path="url(#p4e5e084107)">
     <use xlink:href="#md1d3bea2f5" x="126.112507" y="257.688" style="fill-opacity: 0; stroke: #000000"/>
     <use xlink:href="#md1d3bea2f5" x="120.385536" y="257.688" style="fill-opacity: 0; stroke: #000000"/>
     <use xlink:href="#md1d3bea2f5" x="92.190591" y="257.688" style="fill-opacity: 0; stroke: #000000"/>
     <use xlink:href="#md1d3bea2f5" x="97.631881" y="257.688" style="fill-opacity: 0; stroke: #000000"/>
     <use xlink:href="#md1d3bea2f5" x="119.722298" y="257.688" style="fill-opacity: 0; stroke: #000000"/>
     <use xlink:href="#md1d3bea2f5" x="232.405099" y="257.688" style="fill-opacity: 0; stroke: #000000"/>
     <use xlink:href="#md1d3bea2f5" x="246.50183" y="257.688" style="fill-opacity: 0; stroke: #000000"/>
     <use xlink:href="#md1d3bea2f5" x="225.452822" y="257.688" style="fill-opacity: 0; stroke: #000000"/>
     <use xlink:href="#md1d3bea2f5" x="237.069534" y="257.688" style="fill-opacity: 0; stroke: #000000"/>
     <use xlink:href="#md1d3bea2f5" x="276.563418" y="257.688" style="fill-opacity: 0; stroke: #000000"/>
     <use xlink:href="#md1d3bea2f5" x="264.017981" y="257.688" style="fill-opacity: 0; stroke: #000000"/>
     <use xlink:href="#md1d3bea2f5" x="230.872032" y="257.688" style="fill-opacity: 0; stroke: #000000"/>
     <use xlink:href="#md1d3bea2f5" x="226.710853" y="257.688" style="fill-opacity: 0; stroke: #000000"/>
     <use xlink:href="#md1d3bea2f5" x="279.419129" y="257.688" style="fill-opacity: 0; stroke: #000000"/>
     <use xlink:href="#md1d3bea2f5" x="364.029784" y="257.688" style="fill-opacity: 0; stroke: #000000"/>
     <use xlink:href="#md1d3bea2f5" x="275.554215" y="257.688" style="fill-opacity: 0; stroke: #000000"/>
     <use xlink:href="#md1d3bea2f5" x="297.450908" y="257.688" style="fill-opacity: 0; stroke: #000000"/>
     <use xlink:href="#md1d3bea2f5" x="237.194445" y="257.688" style="fill-opacity: 0; stroke: #000000"/>
     <use xlink:href="#md1d3bea2f5" x="275.396656" y="257.688" style="fill-opacity: 0; stroke: #000000"/>
     <use xlink:href="#md1d3bea2f5" x="231.247881" y="257.688" style="fill-opacity: 0; stroke: #000000"/>
     <use xlink:href="#md1d3bea2f5" x="246.737637" y="257.688" style="fill-opacity: 0; stroke: #000000"/>
     <use xlink:href="#md1d3bea2f5" x="263.613098" y="257.688" style="fill-opacity: 0; stroke: #000000"/>
     <use xlink:href="#md1d3bea2f5" x="240.749435" y="257.688" style="fill-opacity: 0; stroke: #000000"/>
    </g>
   </g>
   <g id="line2d_26">
    <path d="M 164.001259 232.74 
L 164.001259 216.108 
L 188.778601 216.108 
L 188.778601 232.74 
L 164.001259 232.74 
" clip-path="url(#p4e5e084107)" style="fill: none; stroke: #1f77b4; stroke-linecap: round"/>
   </g>
   <g id="line2d_27">
    <path d="M 164.001259 224.424 
L 128.259687 224.424 
" clip-path="url(#p4e5e084107)" style="fill: none; stroke: #1f77b4; stroke-linecap: round"/>
   </g>
   <g id="line2d_28">
    <path d="M 188.778601 224.424 
L 225.761812 224.424 
" clip-path="url(#p4e5e084107)" style="fill: none; stroke: #1f77b4; stroke-linecap: round"/>
   </g>
   <g id="line2d_29">
    <path d="M 128.259687 228.582 
L 128.259687 220.266 
" clip-path="url(#p4e5e084107)" style="fill: none; stroke: #1f77b4; stroke-linecap: round"/>
   </g>
   <g id="line2d_30">
    <path d="M 225.761812 228.582 
L 225.761812 220.266 
" clip-path="url(#p4e5e084107)" style="fill: none; stroke: #1f77b4; stroke-linecap: round"/>
   </g>
   <g id="line2d_31">
    <g clip-path="url(#p4e5e084107)">
     <use xlink:href="#md1d3bea2f5" x="123.529007" y="224.424" style="fill-opacity: 0; stroke: #000000"/>
     <use xlink:href="#md1d3bea2f5" x="120.87215" y="224.424" style="fill-opacity: 0; stroke: #000000"/>
     <use xlink:href="#md1d3bea2f5" x="118.869181" y="224.424" style="fill-opacity: 0; stroke: #000000"/>
     <use xlink:href="#md1d3bea2f5" x="104.245021" y="224.424" style="fill-opacity: 0; stroke: #000000"/>
     <use xlink:href="#md1d3bea2f5" x="117.736189" y="224.424" style="fill-opacity: 0; stroke: #000000"/>
     <use xlink:href="#md1d3bea2f5" x="231.628611" y="224.424" style="fill-opacity: 0; stroke: #000000"/>
     <use xlink:href="#md1d3bea2f5" x="239.194392" y="224.424" style="fill-opacity: 0; stroke: #000000"/>
     <use xlink:href="#md1d3bea2f5" x="226.164435" y="224.424" style="fill-opacity: 0; stroke: #000000"/>
     <use xlink:href="#md1d3bea2f5" x="254.288867" y="224.424" style="fill-opacity: 0; stroke: #000000"/>
     <use xlink:href="#md1d3bea2f5" x="248.985403" y="224.424" style="fill-opacity: 0; stroke: #000000"/>
     <use xlink:href="#md1d3bea2f5" x="311.831456" y="224.424" style="fill-opacity: 0; stroke: #000000"/>
     <use xlink:href="#md1d3bea2f5" x="282.457955" y="224.424" style="fill-opacity: 0; stroke: #000000"/>
     <use xlink:href="#md1d3bea2f5" x="237.969273" y="224.424" style="fill-opacity: 0; stroke: #000000"/>
     <use xlink:href="#md1d3bea2f5" x="233.060071" y="224.424" style="fill-opacity: 0; stroke: #000000"/>
     <use xlink:href="#md1d3bea2f5" x="234.165687" y="224.424" style="fill-opacity: 0; stroke: #000000"/>
     <use xlink:href="#md1d3bea2f5" x="256.763818" y="224.424" style="fill-opacity: 0; stroke: #000000"/>
    </g>
   </g>
   <g id="line2d_32">
    <path d="M 162.096296 199.476 
L 162.096296 182.844 
L 189.032549 182.844 
L 189.032549 199.476 
L 162.096296 199.476 
" clip-path="url(#p4e5e084107)" style="fill: none; stroke: #1f77b4; stroke-linecap: round"/>
   </g>
   <g id="line2d_33">
    <path d="M 162.096296 191.16 
L 124.364274 191.16 
" clip-path="url(#p4e5e084107)" style="fill: none; stroke: #1f77b4; stroke-linecap: round"/>
   </g>
   <g id="line2d_34">
    <path d="M 189.032549 191.16 
L 227.362604 191.16 
" clip-path="url(#p4e5e084107)" style="fill: none; stroke: #1f77b4; stroke-linecap: round"/>
   </g>
   <g id="line2d_35">
    <path d="M 124.364274 195.318 
L 124.364274 187.002 
" clip-path="url(#p4e5e084107)" style="fill: none; stroke: #1f77b4; stroke-linecap: round"/>
   </g>
   <g id="line2d_36">
    <path d="M 227.362604 195.318 
L 227.362604 187.002 
" clip-path="url(#p4e5e084107)" style="fill: none; stroke: #1f77b4; stroke-linecap: round"/>
   </g>
   <g id="line2d_37">
    <g clip-path="url(#p4e5e084107)">
     <use xlink:href="#md1d3bea2f5" x="111.540136" y="191.16" style="fill-opacity: 0; stroke: #000000"/>
     <use xlink:href="#md1d3bea2f5" x="106.182646" y="191.16" style="fill-opacity: 0; stroke: #000000"/>
     <use xlink:href="#md1d3bea2f5" x="120.447567" y="191.16" style="fill-opacity: 0; stroke: #000000"/>
     <use xlink:href="#md1d3bea2f5" x="115.859753" y="191.16" style="fill-opacity: 0; stroke: #000000"/>
     <use xlink:href="#md1d3bea2f5" x="230.872032" y="191.16" style="fill-opacity: 0; stroke: #000000"/>
     <use xlink:href="#md1d3bea2f5" x="260.000291" y="191.16" style="fill-opacity: 0; stroke: #000000"/>
     <use xlink:href="#md1d3bea2f5" x="239.855514" y="191.16" style="fill-opacity: 0; stroke: #000000"/>
     <use xlink:href="#md1d3bea2f5" x="230.134608" y="191.16" style="fill-opacity: 0; stroke: #000000"/>
     <use xlink:href="#md1d3bea2f5" x="244.853596" y="191.16" style="fill-opacity: 0; stroke: #000000"/>
     <use xlink:href="#md1d3bea2f5" x="230.238809" y="191.16" style="fill-opacity: 0; stroke: #000000"/>
    </g>
   </g>
   <g id="line2d_38">
    <path d="M 160.135266 166.212 
L 160.135266 149.58 
L 189.527344 149.58 
L 189.527344 166.212 
L 160.135266 166.212 
" clip-path="url(#p4e5e084107)" style="fill: none; stroke: #1f77b4; stroke-linecap: round"/>
   </g>
   <g id="line2d_39">
    <path d="M 160.135266 157.896 
L 116.717001 157.896 
" clip-path="url(#p4e5e084107)" style="fill: none; stroke: #1f77b4; stroke-linecap: round"/>
   </g>
   <g id="line2d_40">
    <path d="M 189.527344 157.896 
L 229.133032 157.896 
" clip-path="url(#p4e5e084107)" style="fill: none; stroke: #1f77b4; stroke-linecap: round"/>
   </g>
   <g id="line2d_41">
    <path d="M 116.717001 162.054 
L 116.717001 153.738 
" clip-path="url(#p4e5e084107)" style="fill: none; stroke: #1f77b4; stroke-linecap: round"/>
   </g>
   <g id="line2d_42">
    <path d="M 229.133032 162.054 
L 229.133032 153.738 
" clip-path="url(#p4e5e084107)" style="fill: none; stroke: #1f77b4; stroke-linecap: round"/>
   </g>
   <g id="line2d_43">
    <g clip-path="url(#p4e5e084107)">
     <use xlink:href="#md1d3bea2f5" x="114.656227" y="157.896" style="fill-opacity: 0; stroke: #000000"/>
     <use xlink:href="#md1d3bea2f5" x="114.03714" y="157.896" style="fill-opacity: 0; stroke: #000000"/>
     <use xlink:href="#md1d3bea2f5" x="115.906878" y="157.896" style="fill-opacity: 0; stroke: #000000"/>
     <use xlink:href="#md1d3bea2f5" x="245.17453" y="157.896" style="fill-opacity: 0; stroke: #000000"/>
     <use xlink:href="#md1d3bea2f5" x="238.925929" y="157.896" style="fill-opacity: 0; stroke: #000000"/>
     <use xlink:href="#md1d3bea2f5" x="240.401648" y="157.896" style="fill-opacity: 0; stroke: #000000"/>
    </g>
   </g>
   <g id="line2d_44">
    <path d="M 160.019056 132.948 
L 160.019056 116.316 
L 188.576036 116.316 
L 188.576036 132.948 
L 160.019056 132.948 
" clip-path="url(#p4e5e084107)" style="fill: none; stroke: #1f77b4; stroke-linecap: round"/>
   </g>
   <g id="line2d_45">
    <path d="M 160.019056 124.632 
L 117.469784 124.632 
" clip-path="url(#p4e5e084107)" style="fill: none; stroke: #1f77b4; stroke-linecap: round"/>
   </g>
   <g id="line2d_46">
    <path d="M 188.576036 124.632 
L 225.628946 124.632 
" clip-path="url(#p4e5e084107)" style="fill: none; stroke: #1f77b4; stroke-linecap: round"/>
   </g>
   <g id="line2d_47">
    <path d="M 117.469784 128.79 
L 117.469784 120.474 
" clip-path="url(#p4e5e084107)" style="fill: none; stroke: #1f77b4; stroke-linecap: round"/>
   </g>
   <g id="line2d_48">
    <path d="M 225.628946 128.79 
L 225.628946 120.474 
" clip-path="url(#p4e5e084107)" style="fill: none; stroke: #1f77b4; stroke-linecap: round"/>
   </g>
   <g id="line2d_49">
    <g clip-path="url(#p4e5e084107)">
     <use xlink:href="#md1d3bea2f5" x="234.259039" y="124.632" style="fill-opacity: 0; stroke: #000000"/>
     <use xlink:href="#md1d3bea2f5" x="236.316567" y="124.632" style="fill-opacity: 0; stroke: #000000"/>
     <use xlink:href="#md1d3bea2f5" x="239.934157" y="124.632" style="fill-opacity: 0; stroke: #000000"/>
    </g>
   </g>
   <g id="line2d_50">
    <path d="M 163.63291 99.684 
L 163.63291 83.052 
L 184.624276 83.052 
L 184.624276 99.684 
L 163.63291 99.684 
" clip-path="url(#p4e5e084107)" style="fill: none; stroke: #1f77b4; stroke-linecap: round"/>
   </g>
   <g id="line2d_51">
    <path d="M 163.63291 91.368 
L 134.269455 91.368 
" clip-path="url(#p4e5e084107)" style="fill: none; stroke: #1f77b4; stroke-linecap: round"/>
   </g>
   <g id="line2d_52">
    <path d="M 184.624276 91.368 
L 214.523366 91.368 
" clip-path="url(#p4e5e084107)" style="fill: none; stroke: #1f77b4; stroke-linecap: round"/>
   </g>
   <g id="line2d_53">
    <path d="M 134.269455 95.526 
L 134.269455 87.21 
" clip-path="url(#p4e5e084107)" style="fill: none; stroke: #1f77b4; stroke-linecap: round"/>
   </g>
   <g id="line2d_54">
    <path d="M 214.523366 95.526 
L 214.523366 87.21 
" clip-path="url(#p4e5e084107)" style="fill: none; stroke: #1f77b4; stroke-linecap: round"/>
   </g>
   <g id="line2d_55">
    <g clip-path="url(#p4e5e084107)">
     <use xlink:href="#md1d3bea2f5" x="128.858399" y="91.368" style="fill-opacity: 0; stroke: #000000"/>
     <use xlink:href="#md1d3bea2f5" x="217.571458" y="91.368" style="fill-opacity: 0; stroke: #000000"/>
     <use xlink:href="#md1d3bea2f5" x="223.104497" y="91.368" style="fill-opacity: 0; stroke: #000000"/>
    </g>
   </g>
   <g id="line2d_56">
    <path d="M 163.280045 66.42 
L 163.280045 49.788 
L 185.943901 49.788 
L 185.943901 66.42 
L 163.280045 66.42 
" clip-path="url(#p4e5e084107)" style="fill: none; stroke: #1f77b4; stroke-linecap: round"/>
   </g>
   <g id="line2d_57">
    <path d="M 163.280045 58.104 
L 132.929854 58.104 
" clip-path="url(#p4e5e084107)" style="fill: none; stroke: #1f77b4; stroke-linecap: round"/>
   </g>
   <g id="line2d_58">
    <path d="M 185.943901 58.104 
L 219.275949 58.104 
" clip-path="url(#p4e5e084107)" style="fill: none; stroke: #1f77b4; stroke-linecap: round"/>
   </g>
   <g id="line2d_59">
    <path d="M 132.929854 62.262 
L 132.929854 53.946 
" clip-path="url(#p4e5e084107)" style="fill: none; stroke: #1f77b4; stroke-linecap: round"/>
   </g>
   <g id="line2d_60">
    <path d="M 219.275949 62.262 
L 219.275949 53.946 
" clip-path="url(#p4e5e084107)" style="fill: none; stroke: #1f77b4; stroke-linecap: round"/>
   </g>
   <g id="line2d_61">
    <g clip-path="url(#p4e5e084107)">
     <use xlink:href="#md1d3bea2f5" x="123.415117" y="58.104" style="fill-opacity: 0; stroke: #000000"/>
     <use xlink:href="#md1d3bea2f5" x="224.682278" y="58.104" style="fill-opacity: 0; stroke: #000000"/>
    </g>
   </g>
   <g id="line2d_62">
    <path d="M 175.924232 299.268 
L 175.924232 282.636 
" clip-path="url(#p4e5e084107)" style="fill: none; stroke: #2ca02c"/>
   </g>
   <g id="line2d_63">
    <path d="M 175.797595 266.004 
L 175.797595 249.372 
" clip-path="url(#p4e5e084107)" style="fill: none; stroke: #2ca02c"/>
   </g>
   <g id="line2d_64">
    <path d="M 177.493995 232.74 
L 177.493995 216.108 
" clip-path="url(#p4e5e084107)" style="fill: none; stroke: #2ca02c"/>
   </g>
   <g id="line2d_65">
    <path d="M 175.508171 199.476 
L 175.508171 182.844 
" clip-path="url(#p4e5e084107)" style="fill: none; stroke: #2ca02c"/>
   </g>
   <g id="line2d_66">
    <path d="M 176.955579 166.212 
L 176.955579 149.58 
" clip-path="url(#p4e5e084107)" style="fill: none; stroke: #2ca02c"/>
   </g>
   <g id="line2d_67">
    <path d="M 177.430979 132.948 
L 177.430979 116.316 
" clip-path="url(#p4e5e084107)" style="fill: none; stroke: #2ca02c"/>
   </g>
   <g id="line2d_68">
    <path d="M 175.207902 99.684 
L 175.207902 83.052 
" clip-path="url(#p4e5e084107)" style="fill: none; stroke: #2ca02c"/>
   </g>
   <g id="line2d_69">
    <path d="M 174.928284 66.42 
L 174.928284 49.788 
" clip-path="url(#p4e5e084107)" style="fill: none; stroke: #2ca02c"/>
   </g>
   <g id="patch_3">
    <path d="M 57.6 307.584 
L 57.6 41.472 
" style="fill: none; stroke: #ffffff; stroke-width: 0.8; stroke-linejoin: miter; stroke-linecap: square"/>
   </g>
   <g id="patch_4">
    <path d="M 414.72 307.584 
L 414.72 41.472 
" style="fill: none; stroke: #ffffff; stroke-width: 0.8; stroke-linejoin: miter; stroke-linecap: square"/>
   </g>
   <g id="patch_5">
    <path d="M 57.6 307.584 
L 414.72 307.584 
" style="fill: none; stroke: #ffffff; stroke-width: 0.8; stroke-linejoin: miter; stroke-linecap: square"/>
   </g>
   <g id="patch_6">
    <path d="M 57.6 41.472 
L 414.72 41.472 
" style="fill: none; stroke: #ffffff; stroke-width: 0.8; stroke-linejoin: miter; stroke-linecap: square"/>
   </g>
  </g>
 </g>
 <defs>
  <clipPath id="p4e5e084107">
   <rect x="57.6" y="41.472" width="357.12" height="266.112"/>
  </clipPath>
 </defs>
</svg>
