<?xml version="1.0" encoding="utf-8" standalone="no"?>
<!DOCTYPE svg PUBLIC "-//W3C//DTD SVG 1.1//EN"
  "http://www.w3.org/Graphics/SVG/1.1/DTD/svg11.dtd">
<svg xmlns:xlink="http://www.w3.org/1999/xlink" width="460.8pt" height="345.6pt" viewBox="0 0 460.8 345.6" xmlns="http://www.w3.org/2000/svg" version="1.1">
 <metadata>
  <rdf:RDF xmlns:dc="http://purl.org/dc/elements/1.1/" xmlns:cc="http://creativecommons.org/ns#" xmlns:rdf="http://www.w3.org/1999/02/22-rdf-syntax-ns#">
   <cc:Work>
    <dc:type rdf:resource="http://purl.org/dc/dcmitype/StillImage"/>
    <dc:date>2024-12-07T21:00:54.942515</dc:date>
    <dc:format>image/svg+xml</dc:format>
    <dc:creator>
     <cc:Agent>
      <dc:title>Matplotlib v3.9.3, https://matplotlib.org/</dc:title>
     </cc:Agent>
    </dc:creator>
   </cc:Work>
  </rdf:RDF>
 </metadata>
 <defs>
  <style type="text/css">*{stroke-linejoin: round; stroke-linecap: butt}</style>
 </defs>
 <g id="figure_1">
  <g id="patch_1">
   <path d="M 0 345.6 
L 460.8 345.6 
L 460.8 0 
L 0 0 
z
" style="fill: #ffffff"/>
  </g>
  <g id="axes_1">
   <g id="patch_2">
    <path d="M 57.6 307.584 
L 414.72 307.584 
L 414.72 41.472 
L 57.6 41.472 
z
" style="fill: #eaeaf2"/>
   </g>
   <g id="matplotlib.axis_1">
    <g id="xtick_1">
     <g id="line2d_1">
      <path d="M 79.92 307.584 
L 79.92 41.472 
" clip-path="url(#p2cd235a891)" style="fill: none; stroke: #ffffff; stroke-width: 0.8; stroke-linecap: round"/>
     </g>
     <g id="text_1">
      <!-- 0.5 yr -->
      <g style="fill: #262626" transform="translate(67.416094 321.7715) scale(0.1 -0.1)">
       <defs>
        <path id="ArialMT-30" d="M 266 2259 
Q 266 3072 433 3567 
Q 600 4063 929 4331 
Q 1259 4600 1759 4600 
Q 2128 4600 2406 4451 
Q 2684 4303 2865 4023 
Q 3047 3744 3150 3342 
Q 3253 2941 3253 2259 
Q 3253 1453 3087 958 
Q 2922 463 2592 192 
Q 2263 -78 1759 -78 
Q 1097 -78 719 397 
Q 266 969 266 2259 
z
M 844 2259 
Q 844 1131 1108 757 
Q 1372 384 1759 384 
Q 2147 384 2411 759 
Q 2675 1134 2675 2259 
Q 2675 3391 2411 3762 
Q 2147 4134 1753 4134 
Q 1366 4134 1134 3806 
Q 844 3388 844 2259 
z
" transform="scale(0.015625)"/>
        <path id="ArialMT-2e" d="M 581 0 
L 581 641 
L 1222 641 
L 1222 0 
L 581 0 
z
" transform="scale(0.015625)"/>
        <path id="ArialMT-35" d="M 266 1200 
L 856 1250 
Q 922 819 1161 601 
Q 1400 384 1738 384 
Q 2144 384 2425 690 
Q 2706 997 2706 1503 
Q 2706 1984 2436 2262 
Q 2166 2541 1728 2541 
Q 1456 2541 1237 2417 
Q 1019 2294 894 2097 
L 366 2166 
L 809 4519 
L 3088 4519 
L 3088 3981 
L 1259 3981 
L 1013 2750 
Q 1425 3038 1878 3038 
Q 2478 3038 2890 2622 
Q 3303 2206 3303 1553 
Q 3303 931 2941 478 
Q 2500 -78 1738 -78 
Q 1113 -78 717 272 
Q 322 622 266 1200 
z
" transform="scale(0.015625)"/>
        <path id="ArialMT-20" transform="scale(0.015625)"/>
        <path id="ArialMT-79" d="M 397 -1278 
L 334 -750 
Q 519 -800 656 -800 
Q 844 -800 956 -737 
Q 1069 -675 1141 -563 
Q 1194 -478 1313 -144 
Q 1328 -97 1363 -6 
L 103 3319 
L 709 3319 
L 1400 1397 
Q 1534 1031 1641 628 
Q 1738 1016 1872 1384 
L 2581 3319 
L 3144 3319 
L 1881 -56 
Q 1678 -603 1566 -809 
Q 1416 -1088 1222 -1217 
Q 1028 -1347 759 -1347 
Q 597 -1347 397 -1278 
z
" transform="scale(0.015625)"/>
        <path id="ArialMT-72" d="M 416 0 
L 416 3319 
L 922 3319 
L 922 2816 
Q 1116 3169 1280 3281 
Q 1444 3394 1641 3394 
Q 1925 3394 2219 3213 
L 2025 2691 
Q 1819 2813 1613 2813 
Q 1428 2813 1281 2702 
Q 1134 2591 1072 2394 
Q 978 2094 978 1738 
L 978 0 
L 416 0 
z
" transform="scale(0.015625)"/>
       </defs>
       <use xlink:href="#ArialMT-30"/>
       <use xlink:href="#ArialMT-2e" x="55.615234"/>
       <use xlink:href="#ArialMT-35" x="83.398438"/>
       <use xlink:href="#ArialMT-20" x="139.013672"/>
       <use xlink:href="#ArialMT-79" x="166.796875"/>
       <use xlink:href="#ArialMT-72" x="216.796875"/>
      </g>
     </g>
    </g>
    <g id="xtick_2">
     <g id="line2d_2">
      <path d="M 124.56 307.584 
L 124.56 41.472 
" clip-path="url(#p2cd235a891)" style="fill: none; stroke: #ffffff; stroke-width: 0.8; stroke-linecap: round"/>
     </g>
     <g id="text_2">
      <!-- 1 yr -->
      <g style="fill: #262626" transform="translate(116.225625 321.7715) scale(0.1 -0.1)">
       <defs>
        <path id="ArialMT-31" d="M 2384 0 
L 1822 0 
L 1822 3584 
Q 1619 3391 1289 3197 
Q 959 3003 697 2906 
L 697 3450 
Q 1169 3672 1522 3987 
Q 1875 4303 2022 4600 
L 2384 4600 
L 2384 0 
z
" transform="scale(0.015625)"/>
       </defs>
       <use xlink:href="#ArialMT-31"/>
       <use xlink:href="#ArialMT-20" x="55.615234"/>
       <use xlink:href="#ArialMT-79" x="83.398438"/>
       <use xlink:href="#ArialMT-72" x="133.398438"/>
      </g>
     </g>
    </g>
    <g id="xtick_3">
     <g id="line2d_3">
      <path d="M 169.2 307.584 
L 169.2 41.472 
" clip-path="url(#p2cd235a891)" style="fill: none; stroke: #ffffff; stroke-width: 0.8; stroke-linecap: round"/>
     </g>
     <g id="text_3">
      <!-- 2 yr -->
      <g style="fill: #262626" transform="translate(160.865625 321.7715) scale(0.1 -0.1)">
       <defs>
        <path id="ArialMT-32" d="M 3222 541 
L 3222 0 
L 194 0 
Q 188 203 259 391 
Q 375 700 629 1000 
Q 884 1300 1366 1694 
Q 2113 2306 2375 2664 
Q 2638 3022 2638 3341 
Q 2638 3675 2398 3904 
Q 2159 4134 1775 4134 
Q 1369 4134 1125 3890 
Q 881 3647 878 3216 
L 300 3275 
Q 359 3922 746 4261 
Q 1134 4600 1788 4600 
Q 2447 4600 2831 4234 
Q 3216 3869 3216 3328 
Q 3216 3053 3103 2787 
Q 2991 2522 2730 2228 
Q 2469 1934 1863 1422 
Q 1356 997 1212 845 
Q 1069 694 975 541 
L 3222 541 
z
" transform="scale(0.015625)"/>
       </defs>
       <use xlink:href="#ArialMT-32"/>
       <use xlink:href="#ArialMT-20" x="55.615234"/>
       <use xlink:href="#ArialMT-79" x="83.398438"/>
       <use xlink:href="#ArialMT-72" x="133.398438"/>
      </g>
     </g>
    </g>
    <g id="xtick_4">
     <g id="line2d_4">
      <path d="M 213.84 307.584 
L 213.84 41.472 
" clip-path="url(#p2cd235a891)" style="fill: none; stroke: #ffffff; stroke-width: 0.8; stroke-linecap: round"/>
     </g>
     <g id="text_4">
      <!-- 5 yr -->
      <g style="fill: #262626" transform="translate(205.505625 321.644937) scale(0.1 -0.1)">
       <use xlink:href="#ArialMT-35"/>
       <use xlink:href="#ArialMT-20" x="55.615234"/>
       <use xlink:href="#ArialMT-79" x="83.398438"/>
       <use xlink:href="#ArialMT-72" x="133.398438"/>
      </g>
     </g>
    </g>
    <g id="xtick_5">
     <g id="line2d_5">
      <path d="M 258.48 307.584 
L 258.48 41.472 
" clip-path="url(#p2cd235a891)" style="fill: none; stroke: #ffffff; stroke-width: 0.8; stroke-linecap: round"/>
     </g>
     <g id="text_5">
      <!-- 7 yr -->
      <g style="fill: #262626" transform="translate(250.145625 321.649625) scale(0.1 -0.1)">
       <defs>
        <path id="ArialMT-37" d="M 303 3981 
L 303 4522 
L 3269 4522 
L 3269 4084 
Q 2831 3619 2401 2847 
Q 1972 2075 1738 1259 
Q 1569 684 1522 0 
L 944 0 
Q 953 541 1156 1306 
Q 1359 2072 1739 2783 
Q 2119 3494 2547 3981 
L 303 3981 
z
" transform="scale(0.015625)"/>
       </defs>
       <use xlink:href="#ArialMT-37"/>
       <use xlink:href="#ArialMT-20" x="55.615234"/>
       <use xlink:href="#ArialMT-79" x="83.398438"/>
       <use xlink:href="#ArialMT-72" x="133.398438"/>
      </g>
     </g>
    </g>
    <g id="xtick_6">
     <g id="line2d_6">
      <path d="M 303.12 307.584 
L 303.12 41.472 
" clip-path="url(#p2cd235a891)" style="fill: none; stroke: #ffffff; stroke-width: 0.8; stroke-linecap: round"/>
     </g>
     <g id="text_6">
      <!-- 10 yr -->
      <g style="fill: #262626" transform="translate(292.005156 321.7715) scale(0.1 -0.1)">
       <use xlink:href="#ArialMT-31"/>
       <use xlink:href="#ArialMT-30" x="55.615234"/>
       <use xlink:href="#ArialMT-20" x="111.230469"/>
       <use xlink:href="#ArialMT-79" x="139.013672"/>
       <use xlink:href="#ArialMT-72" x="189.013672"/>
      </g>
     </g>
    </g>
    <g id="xtick_7">
     <g id="line2d_7">
      <path d="M 347.76 307.584 
L 347.76 41.472 
" clip-path="url(#p2cd235a891)" style="fill: none; stroke: #ffffff; stroke-width: 0.8; stroke-linecap: round"/>
     </g>
     <g id="text_7">
      <!-- 20 yr -->
      <g style="fill: #262626" transform="translate(336.645156 321.7715) scale(0.1 -0.1)">
       <use xlink:href="#ArialMT-32"/>
       <use xlink:href="#ArialMT-30" x="55.615234"/>
       <use xlink:href="#ArialMT-20" x="111.230469"/>
       <use xlink:href="#ArialMT-79" x="139.013672"/>
       <use xlink:href="#ArialMT-72" x="189.013672"/>
      </g>
     </g>
    </g>
    <g id="xtick_8">
     <g id="line2d_8">
      <path d="M 392.4 307.584 
L 392.4 41.472 
" clip-path="url(#p2cd235a891)" style="fill: none; stroke: #ffffff; stroke-width: 0.8; stroke-linecap: round"/>
     </g>
     <g id="text_8">
      <!-- 30 yr -->
      <g style="fill: #262626" transform="translate(381.285156 321.7715) scale(0.1 -0.1)">
       <defs>
        <path id="ArialMT-33" d="M 269 1209 
L 831 1284 
Q 928 806 1161 595 
Q 1394 384 1728 384 
Q 2125 384 2398 659 
Q 2672 934 2672 1341 
Q 2672 1728 2419 1979 
Q 2166 2231 1775 2231 
Q 1616 2231 1378 2169 
L 1441 2663 
Q 1497 2656 1531 2656 
Q 1891 2656 2178 2843 
Q 2466 3031 2466 3422 
Q 2466 3731 2256 3934 
Q 2047 4138 1716 4138 
Q 1388 4138 1169 3931 
Q 950 3725 888 3313 
L 325 3413 
Q 428 3978 793 4289 
Q 1159 4600 1703 4600 
Q 2078 4600 2393 4439 
Q 2709 4278 2876 4000 
Q 3044 3722 3044 3409 
Q 3044 3113 2884 2869 
Q 2725 2625 2413 2481 
Q 2819 2388 3044 2092 
Q 3269 1797 3269 1353 
Q 3269 753 2831 336 
Q 2394 -81 1725 -81 
Q 1122 -81 723 278 
Q 325 638 269 1209 
z
" transform="scale(0.015625)"/>
       </defs>
       <use xlink:href="#ArialMT-33"/>
       <use xlink:href="#ArialMT-30" x="55.615234"/>
       <use xlink:href="#ArialMT-20" x="111.230469"/>
       <use xlink:href="#ArialMT-79" x="139.013672"/>
       <use xlink:href="#ArialMT-72" x="189.013672"/>
      </g>
     </g>
    </g>
   </g>
   <g id="matplotlib.axis_2">
    <g id="ytick_1">
     <g id="line2d_9">
      <path d="M 57.6 278.312541 
L 414.72 278.312541 
" clip-path="url(#p2cd235a891)" style="fill: none; stroke: #ffffff; stroke-width: 0.8; stroke-linecap: round"/>
     </g>
     <g id="text_9">
      <!-- −0.1 -->
      <g style="fill: #262626" transform="translate(30.859375 281.891447) scale(0.1 -0.1)">
       <defs>
        <path id="ArialMT-2212" d="M 3381 1997 
L 356 1997 
L 356 2522 
L 3381 2522 
L 3381 1997 
z
" transform="scale(0.015625)"/>
       </defs>
       <use xlink:href="#ArialMT-2212"/>
       <use xlink:href="#ArialMT-30" x="58.398438"/>
       <use xlink:href="#ArialMT-2e" x="114.013672"/>
       <use xlink:href="#ArialMT-31" x="141.796875"/>
      </g>
     </g>
    </g>
    <g id="ytick_2">
     <g id="line2d_10">
      <path d="M 57.6 221.87889 
L 414.72 221.87889 
" clip-path="url(#p2cd235a891)" style="fill: none; stroke: #ffffff; stroke-width: 0.8; stroke-linecap: round"/>
     </g>
     <g id="text_10">
      <!-- 0.0 -->
      <g style="fill: #262626" transform="translate(36.7 225.457796) scale(0.1 -0.1)">
       <use xlink:href="#ArialMT-30"/>
       <use xlink:href="#ArialMT-2e" x="55.615234"/>
       <use xlink:href="#ArialMT-30" x="83.398438"/>
      </g>
     </g>
    </g>
    <g id="ytick_3">
     <g id="line2d_11">
      <path d="M 57.6 165.445238 
L 414.72 165.445238 
" clip-path="url(#p2cd235a891)" style="fill: none; stroke: #ffffff; stroke-width: 0.8; stroke-linecap: round"/>
     </g>
     <g id="text_11">
      <!-- 0.1 -->
      <g style="fill: #262626" transform="translate(36.7 169.024145) scale(0.1 -0.1)">
       <use xlink:href="#ArialMT-30"/>
       <use xlink:href="#ArialMT-2e" x="55.615234"/>
       <use xlink:href="#ArialMT-31" x="83.398438"/>
      </g>
     </g>
    </g>
    <g id="ytick_4">
     <g id="line2d_12">
      <path d="M 57.6 109.011587 
L 414.72 109.011587 
" clip-path="url(#p2cd235a891)" style="fill: none; stroke: #ffffff; stroke-width: 0.8; stroke-linecap: round"/>
     </g>
     <g id="text_12">
      <!-- 0.2 -->
      <g style="fill: #262626" transform="translate(36.7 112.590493) scale(0.1 -0.1)">
       <use xlink:href="#ArialMT-30"/>
       <use xlink:href="#ArialMT-2e" x="55.615234"/>
       <use xlink:href="#ArialMT-32" x="83.398438"/>
      </g>
     </g>
    </g>
    <g id="ytick_5">
     <g id="line2d_13">
      <path d="M 57.6 52.577936 
L 414.72 52.577936 
" clip-path="url(#p2cd235a891)" style="fill: none; stroke: #ffffff; stroke-width: 0.8; stroke-linecap: round"/>
     </g>
     <g id="text_13">
      <!-- 0.3 -->
      <g style="fill: #262626" transform="translate(36.7 56.156842) scale(0.1 -0.1)">
       <use xlink:href="#ArialMT-30"/>
       <use xlink:href="#ArialMT-2e" x="55.615234"/>
       <use xlink:href="#ArialMT-33" x="83.398438"/>
      </g>
     </g>
    </g>
   </g>
   <g id="line2d_14">
    <path d="M 68.76 224.328587 
L 91.08 224.328587 
L 91.08 210.095399 
L 68.76 210.095399 
L 68.76 224.328587 
" clip-path="url(#p2cd235a891)" style="fill: none; stroke: #1f77b4; stroke-linecap: round"/>
   </g>
   <g id="line2d_15">
    <path d="M 79.92 224.328587 
L 79.92 244.757397 
" clip-path="url(#p2cd235a891)" style="fill: none; stroke: #1f77b4; stroke-linecap: round"/>
   </g>
   <g id="line2d_16">
    <path d="M 79.92 210.095399 
L 79.92 189.859797 
" clip-path="url(#p2cd235a891)" style="fill: none; stroke: #1f77b4; stroke-linecap: round"/>
   </g>
   <g id="line2d_17">
    <path d="M 74.34 244.757397 
L 85.5 244.757397 
" clip-path="url(#p2cd235a891)" style="fill: none; stroke: #1f77b4; stroke-linecap: round"/>
   </g>
   <g id="line2d_18">
    <path d="M 74.34 189.859797 
L 85.5 189.859797 
" clip-path="url(#p2cd235a891)" style="fill: none; stroke: #1f77b4; stroke-linecap: round"/>
   </g>
   <g id="line2d_19">
    <defs>
     <path id="m61c71c6637" d="M 0 3 
C 0.795609 3 1.55874 2.683901 2.12132 2.12132 
C 2.683901 1.55874 3 0.795609 3 0 
C 3 -0.795609 2.683901 -1.55874 2.12132 -2.12132 
C 1.55874 -2.683901 0.795609 -3 0 -3 
C -0.795609 -3 -1.55874 -2.683901 -2.12132 -2.12132 
C -2.683901 -1.55874 -3 -0.795609 -3 0 
C -3 0.795609 -2.683901 1.55874 -2.12132 2.12132 
C -1.55874 2.683901 -0.795609 3 0 3 
z
" style="stroke: #000000"/>
    </defs>
    <g clip-path="url(#p2cd235a891)">
     <use xlink:href="#m61c71c6637" x="79.92" y="257.149922" style="fill-opacity: 0; stroke: #000000"/>
     <use xlink:href="#m61c71c6637" x="79.92" y="251.580811" style="fill-opacity: 0; stroke: #000000"/>
     <use xlink:href="#m61c71c6637" x="79.92" y="261.068925" style="fill-opacity: 0; stroke: #000000"/>
     <use xlink:href="#m61c71c6637" x="79.92" y="290.514411" style="fill-opacity: 0; stroke: #000000"/>
     <use xlink:href="#m61c71c6637" x="79.92" y="295.488" style="fill-opacity: 0; stroke: #000000"/>
     <use xlink:href="#m61c71c6637" x="79.92" y="254.689152" style="fill-opacity: 0; stroke: #000000"/>
     <use xlink:href="#m61c71c6637" x="79.92" y="249.311915" style="fill-opacity: 0; stroke: #000000"/>
     <use xlink:href="#m61c71c6637" x="79.92" y="247.424987" style="fill-opacity: 0; stroke: #000000"/>
     <use xlink:href="#m61c71c6637" x="79.92" y="127.822804" style="fill-opacity: 0; stroke: #000000"/>
     <use xlink:href="#m61c71c6637" x="79.92" y="181.569139" style="fill-opacity: 0; stroke: #000000"/>
     <use xlink:href="#m61c71c6637" x="79.92" y="90.20037" style="fill-opacity: 0; stroke: #000000"/>
     <use xlink:href="#m61c71c6637" x="79.92" y="157.383288" style="fill-opacity: 0; stroke: #000000"/>
     <use xlink:href="#m61c71c6637" x="79.92" y="179.553651" style="fill-opacity: 0; stroke: #000000"/>
     <use xlink:href="#m61c71c6637" x="79.92" y="143.13426" style="fill-opacity: 0; stroke: #000000"/>
     <use xlink:href="#m61c71c6637" x="79.92" y="184.256456" style="fill-opacity: 0; stroke: #000000"/>
     <use xlink:href="#m61c71c6637" x="79.92" y="127.822804" style="fill-opacity: 0; stroke: #000000"/>
     <use xlink:href="#m61c71c6637" x="79.92" y="53.568" style="fill-opacity: 0; stroke: #000000"/>
     <use xlink:href="#m61c71c6637" x="79.92" y="182.136882" style="fill-opacity: 0; stroke: #000000"/>
     <use xlink:href="#m61c71c6637" x="79.92" y="152.422088" style="fill-opacity: 0; stroke: #000000"/>
     <use xlink:href="#m61c71c6637" x="79.92" y="169.786289" style="fill-opacity: 0; stroke: #000000"/>
     <use xlink:href="#m61c71c6637" x="79.92" y="146.634021" style="fill-opacity: 0; stroke: #000000"/>
     <use xlink:href="#m61c71c6637" x="79.92" y="172.806149" style="fill-opacity: 0; stroke: #000000"/>
     <use xlink:href="#m61c71c6637" x="79.92" y="163.998222" style="fill-opacity: 0; stroke: #000000"/>
     <use xlink:href="#m61c71c6637" x="79.92" y="140.288069" style="fill-opacity: 0; stroke: #000000"/>
     <use xlink:href="#m61c71c6637" x="79.92" y="182.766458" style="fill-opacity: 0; stroke: #000000"/>
     <use xlink:href="#m61c71c6637" x="79.92" y="188.187158" style="fill-opacity: 0; stroke: #000000"/>
     <use xlink:href="#m61c71c6637" x="79.92" y="185.233662" style="fill-opacity: 0; stroke: #000000"/>
     <use xlink:href="#m61c71c6637" x="79.92" y="168.874908" style="fill-opacity: 0; stroke: #000000"/>
     <use xlink:href="#m61c71c6637" x="79.92" y="144.923911" style="fill-opacity: 0; stroke: #000000"/>
     <use xlink:href="#m61c71c6637" x="79.92" y="176.731969" style="fill-opacity: 0; stroke: #000000"/>
     <use xlink:href="#m61c71c6637" x="79.92" y="169.207482" style="fill-opacity: 0; stroke: #000000"/>
     <use xlink:href="#m61c71c6637" x="79.92" y="185.339115" style="fill-opacity: 0; stroke: #000000"/>
    </g>
   </g>
   <g id="line2d_20">
    <path d="M 113.4 226.616253 
L 135.72 226.616253 
L 135.72 210.502712 
L 113.4 210.502712 
L 113.4 226.616253 
" clip-path="url(#p2cd235a891)" style="fill: none; stroke: #1f77b4; stroke-linecap: round"/>
   </g>
   <g id="line2d_21">
    <path d="M 124.56 226.616253 
L 124.56 250.095715 
" clip-path="url(#p2cd235a891)" style="fill: none; stroke: #1f77b4; stroke-linecap: round"/>
   </g>
   <g id="line2d_22">
    <path d="M 124.56 210.502712 
L 124.56 188.323746 
" clip-path="url(#p2cd235a891)" style="fill: none; stroke: #1f77b4; stroke-linecap: round"/>
   </g>
   <g id="line2d_23">
    <path d="M 118.98 250.095715 
L 130.14 250.095715 
" clip-path="url(#p2cd235a891)" style="fill: none; stroke: #1f77b4; stroke-linecap: round"/>
   </g>
   <g id="line2d_24">
    <path d="M 118.98 188.323746 
L 130.14 188.323746 
" clip-path="url(#p2cd235a891)" style="fill: none; stroke: #1f77b4; stroke-linecap: round"/>
   </g>
   <g id="line2d_25">
    <g clip-path="url(#p2cd235a891)">
     <use xlink:href="#m61c71c6637" x="124.56" y="256.531132" style="fill-opacity: 0; stroke: #000000"/>
     <use xlink:href="#m61c71c6637" x="124.56" y="260.798649" style="fill-opacity: 0; stroke: #000000"/>
     <use xlink:href="#m61c71c6637" x="124.56" y="281.808431" style="fill-opacity: 0; stroke: #000000"/>
     <use xlink:href="#m61c71c6637" x="124.56" y="277.753792" style="fill-opacity: 0; stroke: #000000"/>
     <use xlink:href="#m61c71c6637" x="124.56" y="261.292868" style="fill-opacity: 0; stroke: #000000"/>
     <use xlink:href="#m61c71c6637" x="124.56" y="177.326007" style="fill-opacity: 0; stroke: #000000"/>
     <use xlink:href="#m61c71c6637" x="124.56" y="166.821669" style="fill-opacity: 0; stroke: #000000"/>
     <use xlink:href="#m61c71c6637" x="124.56" y="182.506575" style="fill-opacity: 0; stroke: #000000"/>
     <use xlink:href="#m61c71c6637" x="124.56" y="173.85025" style="fill-opacity: 0; stroke: #000000"/>
     <use xlink:href="#m61c71c6637" x="124.56" y="144.420937" style="fill-opacity: 0; stroke: #000000"/>
     <use xlink:href="#m61c71c6637" x="124.56" y="153.769311" style="fill-opacity: 0; stroke: #000000"/>
     <use xlink:href="#m61c71c6637" x="124.56" y="178.468389" style="fill-opacity: 0; stroke: #000000"/>
     <use xlink:href="#m61c71c6637" x="124.56" y="181.569139" style="fill-opacity: 0; stroke: #000000"/>
     <use xlink:href="#m61c71c6637" x="124.56" y="142.292971" style="fill-opacity: 0; stroke: #000000"/>
     <use xlink:href="#m61c71c6637" x="124.56" y="79.244387" style="fill-opacity: 0; stroke: #000000"/>
     <use xlink:href="#m61c71c6637" x="124.56" y="145.172956" style="fill-opacity: 0; stroke: #000000"/>
     <use xlink:href="#m61c71c6637" x="124.56" y="128.856388" style="fill-opacity: 0; stroke: #000000"/>
     <use xlink:href="#m61c71c6637" x="124.56" y="173.757172" style="fill-opacity: 0; stroke: #000000"/>
     <use xlink:href="#m61c71c6637" x="124.56" y="145.290363" style="fill-opacity: 0; stroke: #000000"/>
     <use xlink:href="#m61c71c6637" x="124.56" y="178.188321" style="fill-opacity: 0; stroke: #000000"/>
     <use xlink:href="#m61c71c6637" x="124.56" y="166.645954" style="fill-opacity: 0; stroke: #000000"/>
     <use xlink:href="#m61c71c6637" x="124.56" y="154.071014" style="fill-opacity: 0; stroke: #000000"/>
     <use xlink:href="#m61c71c6637" x="124.56" y="171.108131" style="fill-opacity: 0; stroke: #000000"/>
    </g>
   </g>
   <g id="line2d_26">
    <path d="M 158.04 228.297901 
L 180.36 228.297901 
L 180.36 209.834785 
L 158.04 209.834785 
L 158.04 228.297901 
" clip-path="url(#p2cd235a891)" style="fill: none; stroke: #1f77b4; stroke-linecap: round"/>
   </g>
   <g id="line2d_27">
    <path d="M 169.2 228.297901 
L 169.2 254.931137 
" clip-path="url(#p2cd235a891)" style="fill: none; stroke: #1f77b4; stroke-linecap: round"/>
   </g>
   <g id="line2d_28">
    <path d="M 169.2 209.834785 
L 169.2 182.276327 
" clip-path="url(#p2cd235a891)" style="fill: none; stroke: #1f77b4; stroke-linecap: round"/>
   </g>
   <g id="line2d_29">
    <path d="M 163.62 254.931137 
L 174.78 254.931137 
" clip-path="url(#p2cd235a891)" style="fill: none; stroke: #1f77b4; stroke-linecap: round"/>
   </g>
   <g id="line2d_30">
    <path d="M 163.62 182.276327 
L 174.78 182.276327 
" clip-path="url(#p2cd235a891)" style="fill: none; stroke: #1f77b4; stroke-linecap: round"/>
   </g>
   <g id="line2d_31">
    <g clip-path="url(#p2cd235a891)">
     <use xlink:href="#m61c71c6637" x="169.2" y="258.456256" style="fill-opacity: 0; stroke: #000000"/>
     <use xlink:href="#m61c71c6637" x="169.2" y="260.436043" style="fill-opacity: 0; stroke: #000000"/>
     <use xlink:href="#m61c71c6637" x="169.2" y="261.928578" style="fill-opacity: 0; stroke: #000000"/>
     <use xlink:href="#m61c71c6637" x="169.2" y="272.825936" style="fill-opacity: 0; stroke: #000000"/>
     <use xlink:href="#m61c71c6637" x="169.2" y="262.77284" style="fill-opacity: 0; stroke: #000000"/>
     <use xlink:href="#m61c71c6637" x="169.2" y="177.904616" style="fill-opacity: 0; stroke: #000000"/>
     <use xlink:href="#m61c71c6637" x="169.2" y="172.266889" style="fill-opacity: 0; stroke: #000000"/>
     <use xlink:href="#m61c71c6637" x="169.2" y="181.976308" style="fill-opacity: 0; stroke: #000000"/>
     <use xlink:href="#m61c71c6637" x="169.2" y="161.01907" style="fill-opacity: 0; stroke: #000000"/>
     <use xlink:href="#m61c71c6637" x="169.2" y="164.971006" style="fill-opacity: 0; stroke: #000000"/>
     <use xlink:href="#m61c71c6637" x="169.2" y="118.14056" style="fill-opacity: 0; stroke: #000000"/>
     <use xlink:href="#m61c71c6637" x="169.2" y="140.028556" style="fill-opacity: 0; stroke: #000000"/>
     <use xlink:href="#m61c71c6637" x="169.2" y="173.1798" style="fill-opacity: 0; stroke: #000000"/>
     <use xlink:href="#m61c71c6637" x="169.2" y="176.837947" style="fill-opacity: 0; stroke: #000000"/>
     <use xlink:href="#m61c71c6637" x="169.2" y="176.014085" style="fill-opacity: 0; stroke: #000000"/>
     <use xlink:href="#m61c71c6637" x="169.2" y="159.174833" style="fill-opacity: 0; stroke: #000000"/>
    </g>
   </g>
   <g id="line2d_32">
    <path d="M 202.68 229.717406 
L 225 229.717406 
L 225 209.645552 
L 202.68 209.645552 
L 202.68 229.717406 
" clip-path="url(#p2cd235a891)" style="fill: none; stroke: #1f77b4; stroke-linecap: round"/>
   </g>
   <g id="line2d_33">
    <path d="M 213.84 229.717406 
L 213.84 257.833848 
" clip-path="url(#p2cd235a891)" style="fill: none; stroke: #1f77b4; stroke-linecap: round"/>
   </g>
   <g id="line2d_34">
    <path d="M 213.84 209.645552 
L 213.84 181.083479 
" clip-path="url(#p2cd235a891)" style="fill: none; stroke: #1f77b4; stroke-linecap: round"/>
   </g>
   <g id="line2d_35">
    <path d="M 208.26 257.833848 
L 219.42 257.833848 
" clip-path="url(#p2cd235a891)" style="fill: none; stroke: #1f77b4; stroke-linecap: round"/>
   </g>
   <g id="line2d_36">
    <path d="M 208.26 181.083479 
L 219.42 181.083479 
" clip-path="url(#p2cd235a891)" style="fill: none; stroke: #1f77b4; stroke-linecap: round"/>
   </g>
   <g id="line2d_37">
    <g clip-path="url(#p2cd235a891)">
     <use xlink:href="#m61c71c6637" x="213.84" y="267.389899" style="fill-opacity: 0; stroke: #000000"/>
     <use xlink:href="#m61c71c6637" x="213.84" y="271.382093" style="fill-opacity: 0; stroke: #000000"/>
     <use xlink:href="#m61c71c6637" x="213.84" y="260.752426" style="fill-opacity: 0; stroke: #000000"/>
     <use xlink:href="#m61c71c6637" x="213.84" y="264.171087" style="fill-opacity: 0; stroke: #000000"/>
     <use xlink:href="#m61c71c6637" x="213.84" y="178.468389" style="fill-opacity: 0; stroke: #000000"/>
     <use xlink:href="#m61c71c6637" x="213.84" y="156.763138" style="fill-opacity: 0; stroke: #000000"/>
     <use xlink:href="#m61c71c6637" x="213.84" y="171.774246" style="fill-opacity: 0; stroke: #000000"/>
     <use xlink:href="#m61c71c6637" x="213.84" y="179.017889" style="fill-opacity: 0; stroke: #000000"/>
     <use xlink:href="#m61c71c6637" x="213.84" y="168.049868" style="fill-opacity: 0; stroke: #000000"/>
     <use xlink:href="#m61c71c6637" x="213.84" y="178.940242" style="fill-opacity: 0; stroke: #000000"/>
    </g>
   </g>
   <g id="line2d_38">
    <path d="M 247.32 231.178689 
L 269.64 231.178689 
L 269.64 209.27685 
L 247.32 209.27685 
L 247.32 231.178689 
" clip-path="url(#p2cd235a891)" style="fill: none; stroke: #1f77b4; stroke-linecap: round"/>
   </g>
   <g id="line2d_39">
    <path d="M 258.48 231.178689 
L 258.48 263.532299 
" clip-path="url(#p2cd235a891)" style="fill: none; stroke: #1f77b4; stroke-linecap: round"/>
   </g>
   <g id="line2d_40">
    <path d="M 258.48 209.27685 
L 258.48 179.764225 
" clip-path="url(#p2cd235a891)" style="fill: none; stroke: #1f77b4; stroke-linecap: round"/>
   </g>
   <g id="line2d_41">
    <path d="M 252.9 263.532299 
L 264.06 263.532299 
" clip-path="url(#p2cd235a891)" style="fill: none; stroke: #1f77b4; stroke-linecap: round"/>
   </g>
   <g id="line2d_42">
    <path d="M 252.9 179.764225 
L 264.06 179.764225 
" clip-path="url(#p2cd235a891)" style="fill: none; stroke: #1f77b4; stroke-linecap: round"/>
   </g>
   <g id="line2d_43">
    <g clip-path="url(#p2cd235a891)">
     <use xlink:href="#m61c71c6637" x="258.48" y="265.067908" style="fill-opacity: 0; stroke: #000000"/>
     <use xlink:href="#m61c71c6637" x="258.48" y="265.529228" style="fill-opacity: 0; stroke: #000000"/>
     <use xlink:href="#m61c71c6637" x="258.48" y="264.135972" style="fill-opacity: 0; stroke: #000000"/>
     <use xlink:href="#m61c71c6637" x="258.48" y="167.810721" style="fill-opacity: 0; stroke: #000000"/>
     <use xlink:href="#m61c71c6637" x="258.48" y="172.466937" style="fill-opacity: 0; stroke: #000000"/>
     <use xlink:href="#m61c71c6637" x="258.48" y="171.367288" style="fill-opacity: 0; stroke: #000000"/>
    </g>
   </g>
   <g id="line2d_44">
    <path d="M 291.96 231.265284 
L 314.28 231.265284 
L 314.28 209.985728 
L 291.96 209.985728 
L 291.96 231.265284 
" clip-path="url(#p2cd235a891)" style="fill: none; stroke: #1f77b4; stroke-linecap: round"/>
   </g>
   <g id="line2d_45">
    <path d="M 303.12 231.265284 
L 303.12 262.971354 
" clip-path="url(#p2cd235a891)" style="fill: none; stroke: #1f77b4; stroke-linecap: round"/>
   </g>
   <g id="line2d_46">
    <path d="M 303.12 209.985728 
L 303.12 182.375334 
" clip-path="url(#p2cd235a891)" style="fill: none; stroke: #1f77b4; stroke-linecap: round"/>
   </g>
   <g id="line2d_47">
    <path d="M 297.54 262.971354 
L 308.7 262.971354 
" clip-path="url(#p2cd235a891)" style="fill: none; stroke: #1f77b4; stroke-linecap: round"/>
   </g>
   <g id="line2d_48">
    <path d="M 297.54 182.375334 
L 308.7 182.375334 
" clip-path="url(#p2cd235a891)" style="fill: none; stroke: #1f77b4; stroke-linecap: round"/>
   </g>
   <g id="line2d_49">
    <g clip-path="url(#p2cd235a891)">
     <use xlink:href="#m61c71c6637" x="303.12" y="175.944522" style="fill-opacity: 0; stroke: #000000"/>
     <use xlink:href="#m61c71c6637" x="303.12" y="174.411333" style="fill-opacity: 0; stroke: #000000"/>
     <use xlink:href="#m61c71c6637" x="303.12" y="171.715644" style="fill-opacity: 0; stroke: #000000"/>
    </g>
   </g>
   <g id="line2d_50">
    <path d="M 336.6 228.57238 
L 358.92 228.57238 
L 358.92 212.930427 
L 336.6 212.930427 
L 336.6 228.57238 
" clip-path="url(#p2cd235a891)" style="fill: none; stroke: #1f77b4; stroke-linecap: round"/>
   </g>
   <g id="line2d_51">
    <path d="M 347.76 228.57238 
L 347.76 250.45289 
" clip-path="url(#p2cd235a891)" style="fill: none; stroke: #1f77b4; stroke-linecap: round"/>
   </g>
   <g id="line2d_52">
    <path d="M 347.76 212.930427 
L 347.76 190.650782 
" clip-path="url(#p2cd235a891)" style="fill: none; stroke: #1f77b4; stroke-linecap: round"/>
   </g>
   <g id="line2d_53">
    <path d="M 342.18 250.45289 
L 353.34 250.45289 
" clip-path="url(#p2cd235a891)" style="fill: none; stroke: #1f77b4; stroke-linecap: round"/>
   </g>
   <g id="line2d_54">
    <path d="M 342.18 190.650782 
L 353.34 190.650782 
" clip-path="url(#p2cd235a891)" style="fill: none; stroke: #1f77b4; stroke-linecap: round"/>
   </g>
   <g id="line2d_55">
    <g clip-path="url(#p2cd235a891)">
     <use xlink:href="#m61c71c6637" x="347.76" y="254.484999" style="fill-opacity: 0; stroke: #000000"/>
     <use xlink:href="#m61c71c6637" x="347.76" y="188.379462" style="fill-opacity: 0; stroke: #000000"/>
     <use xlink:href="#m61c71c6637" x="347.76" y="184.256456" style="fill-opacity: 0; stroke: #000000"/>
    </g>
   </g>
   <g id="line2d_56">
    <path d="M 381.24 228.835322 
L 403.56 228.835322 
L 403.56 211.947093 
L 381.24 211.947093 
L 381.24 228.835322 
" clip-path="url(#p2cd235a891)" style="fill: none; stroke: #1f77b4; stroke-linecap: round"/>
   </g>
   <g id="line2d_57">
    <path d="M 392.4 228.835322 
L 392.4 251.451109 
" clip-path="url(#p2cd235a891)" style="fill: none; stroke: #1f77b4; stroke-linecap: round"/>
   </g>
   <g id="line2d_58">
    <path d="M 392.4 211.947093 
L 392.4 187.109342 
" clip-path="url(#p2cd235a891)" style="fill: none; stroke: #1f77b4; stroke-linecap: round"/>
   </g>
   <g id="line2d_59">
    <path d="M 386.82 251.451109 
L 397.98 251.451109 
" clip-path="url(#p2cd235a891)" style="fill: none; stroke: #1f77b4; stroke-linecap: round"/>
   </g>
   <g id="line2d_60">
    <path d="M 386.82 187.109342 
L 397.98 187.109342 
" clip-path="url(#p2cd235a891)" style="fill: none; stroke: #1f77b4; stroke-linecap: round"/>
   </g>
   <g id="line2d_61">
    <g clip-path="url(#p2cd235a891)">
     <use xlink:href="#m61c71c6637" x="392.4" y="258.541123" style="fill-opacity: 0; stroke: #000000"/>
     <use xlink:href="#m61c71c6637" x="392.4" y="183.080754" style="fill-opacity: 0; stroke: #000000"/>
    </g>
   </g>
   <g id="line2d_62">
    <path d="M 68.76 219.413363 
L 91.08 219.413363 
" clip-path="url(#p2cd235a891)" style="fill: none; stroke: #2ca02c"/>
   </g>
   <g id="line2d_63">
    <path d="M 113.4 219.507728 
L 135.72 219.507728 
" clip-path="url(#p2cd235a891)" style="fill: none; stroke: #2ca02c"/>
   </g>
   <g id="line2d_64">
    <path d="M 158.04 218.243636 
L 180.36 218.243636 
" clip-path="url(#p2cd235a891)" style="fill: none; stroke: #2ca02c"/>
   </g>
   <g id="line2d_65">
    <path d="M 202.68 219.723395 
L 225 219.723395 
" clip-path="url(#p2cd235a891)" style="fill: none; stroke: #2ca02c"/>
   </g>
   <g id="line2d_66">
    <path d="M 247.32 218.644843 
L 269.64 218.644843 
" clip-path="url(#p2cd235a891)" style="fill: none; stroke: #2ca02c"/>
   </g>
   <g id="line2d_67">
    <path d="M 291.96 218.290593 
L 314.28 218.290593 
" clip-path="url(#p2cd235a891)" style="fill: none; stroke: #2ca02c"/>
   </g>
   <g id="line2d_68">
    <path d="M 336.6 219.947144 
L 358.92 219.947144 
" clip-path="url(#p2cd235a891)" style="fill: none; stroke: #2ca02c"/>
   </g>
   <g id="line2d_69">
    <path d="M 381.24 220.155504 
L 403.56 220.155504 
" clip-path="url(#p2cd235a891)" style="fill: none; stroke: #2ca02c"/>
   </g>
   <g id="patch_3">
    <path d="M 57.6 307.584 
L 57.6 41.472 
" style="fill: none; stroke: #ffffff; stroke-width: 0.8; stroke-linejoin: miter; stroke-linecap: square"/>
   </g>
   <g id="patch_4">
    <path d="M 414.72 307.584 
L 414.72 41.472 
" style="fill: none; stroke: #ffffff; stroke-width: 0.8; stroke-linejoin: miter; stroke-linecap: square"/>
   </g>
   <g id="patch_5">
    <path d="M 57.6 307.584 
L 414.72 307.584 
" style="fill: none; stroke: #ffffff; stroke-width: 0.8; stroke-linejoin: miter; stroke-linecap: square"/>
   </g>
   <g id="patch_6">
    <path d="M 57.6 41.472 
L 414.72 41.472 
" style="fill: none; stroke: #ffffff; stroke-width: 0.8; stroke-linejoin: miter; stroke-linecap: square"/>
   </g>
  </g>
 </g>
 <defs>
  <clipPath id="p2cd235a891">
   <rect x="57.6" y="41.472" width="357.12" height="266.112"/>
  </clipPath>
 </defs>
</svg>
