<?xml version="1.0" encoding="utf-8" standalone="no"?>
<!DOCTYPE svg PUBLIC "-//W3C//DTD SVG 1.1//EN"
  "http://www.w3.org/Graphics/SVG/1.1/DTD/svg11.dtd">
<svg xmlns:xlink="http://www.w3.org/1999/xlink" width="460.8pt" height="345.6pt" viewBox="0 0 460.8 345.6" xmlns="http://www.w3.org/2000/svg" version="1.1">
 <metadata>
  <rdf:RDF xmlns:dc="http://purl.org/dc/elements/1.1/" xmlns:cc="http://creativecommons.org/ns#" xmlns:rdf="http://www.w3.org/1999/02/22-rdf-syntax-ns#">
   <cc:Work>
    <dc:type rdf:resource="http://purl.org/dc/dcmitype/StillImage"/>
    <dc:date>2024-12-05T21:00:21.115453</dc:date>
    <dc:format>image/svg+xml</dc:format>
    <dc:creator>
     <cc:Agent>
      <dc:title>Matplotlib v3.9.3, https://matplotlib.org/</dc:title>
     </cc:Agent>
    </dc:creator>
   </cc:Work>
  </rdf:RDF>
 </metadata>
 <defs>
  <style type="text/css">*{stroke-linejoin: round; stroke-linecap: butt}</style>
 </defs>
 <g id="figure_1">
  <g id="patch_1">
   <path d="M 0 345.6 
L 460.8 345.6 
L 460.8 0 
L 0 0 
z
" style="fill: #ffffff"/>
  </g>
  <g id="axes_1">
   <g id="patch_2">
    <path d="M 92.16 203.328 
C 99.797849 203.328 107.1239 200.29345 112.524675 194.892675 
C 117.92545 189.4919 120.96 182.165849 120.96 174.528 
C 120.96 166.890151 117.92545 159.5641 112.524675 154.163325 
C 107.1239 148.76255 99.797849 145.728 92.16 145.728 
C 84.522151 145.728 77.1961 148.76255 71.795325 154.163325 
C 66.39455 159.5641 63.36 166.890151 63.36 174.528 
C 63.36 182.165849 66.39455 189.4919 71.795325 194.892675 
C 77.1961 200.29345 84.522151 203.328 92.16 203.328 
z
" clip-path="url(#p1f80924eea)" style="fill: #feffc0; stroke: #ffffff; stroke-linejoin: miter"/>
   </g>
   <g id="patch_3">
    <path d="M 149.76 203.328 
C 157.397849 203.328 164.7239 200.29345 170.124675 194.892675 
C 175.52545 189.4919 178.56 182.165849 178.56 174.528 
C 178.56 166.890151 175.52545 159.5641 170.124675 154.163325 
C 164.7239 148.76255 157.397849 145.728 149.76 145.728 
C 142.122151 145.728 134.7961 148.76255 129.395325 154.163325 
C 123.99455 159.5641 120.96 166.890151 120.96 174.528 
C 120.96 182.165849 123.99455 189.4919 129.395325 194.892675 
C 134.7961 200.29345 142.122151 203.328 149.76 203.328 
z
" clip-path="url(#p1f80924eea)" style="fill: #fed485; stroke: #ffffff; stroke-linejoin: miter"/>
   </g>
   <g id="patch_4">
    <path d="M 207.36 203.328 
C 214.997849 203.328 222.3239 200.29345 227.724675 194.892675 
C 233.12545 189.4919 236.16 182.165849 236.16 174.528 
C 236.16 166.890151 233.12545 159.5641 227.724675 154.163325 
C 222.3239 148.76255 214.997849 145.728 207.36 145.728 
C 199.722151 145.728 192.3961 148.76255 186.995325 154.163325 
C 181.59455 159.5641 178.56 166.890151 178.56 174.528 
C 178.56 182.165849 181.59455 189.4919 186.995325 194.892675 
C 192.3961 200.29345 199.722151 203.328 207.36 203.328 
z
" clip-path="url(#p1f80924eea)" style="fill: #f98e52; stroke: #ffffff; stroke-linejoin: miter"/>
   </g>
   <g id="patch_5">
    <path d="M 264.96 203.328 
C 272.597849 203.328 279.9239 200.29345 285.324675 194.892675 
C 290.72545 189.4919 293.76 182.165849 293.76 174.528 
C 293.76 166.890151 290.72545 159.5641 285.324675 154.163325 
C 279.9239 148.76255 272.597849 145.728 264.96 145.728 
C 257.322151 145.728 249.9961 148.76255 244.595325 154.163325 
C 239.19455 159.5641 236.16 166.890151 236.16 174.528 
C 236.16 182.165849 239.19455 189.4919 244.595325 194.892675 
C 249.9961 200.29345 257.322151 203.328 264.96 203.328 
z
" clip-path="url(#p1f80924eea)" style="fill: #de402e; stroke: #ffffff; stroke-linejoin: miter"/>
   </g>
   <g id="patch_6">
    <path d="M 322.56 203.328 
C 330.197849 203.328 337.5239 200.29345 342.924675 194.892675 
C 348.32545 189.4919 351.36 182.165849 351.36 174.528 
C 351.36 166.890151 348.32545 159.5641 342.924675 154.163325 
C 337.5239 148.76255 330.197849 145.728 322.56 145.728 
C 314.922151 145.728 307.5961 148.76255 302.195325 154.163325 
C 296.79455 159.5641 293.76 166.890151 293.76 174.528 
C 293.76 182.165849 296.79455 189.4919 302.195325 194.892675 
C 307.5961 200.29345 314.922151 203.328 322.56 203.328 
z
" clip-path="url(#p1f80924eea)" style="fill: #a50026; stroke: #ffffff; stroke-linejoin: miter"/>
   </g>
   <g id="text_1">
    <!-- 0.0 -->
    <g style="fill: #262626" transform="translate(85.21 177.113156) scale(0.1 -0.1)">
     <defs>
      <path id="ArialMT-30" d="M 266 2259 
Q 266 3072 433 3567 
Q 600 4063 929 4331 
Q 1259 4600 1759 4600 
Q 2128 4600 2406 4451 
Q 2684 4303 2865 4023 
Q 3047 3744 3150 3342 
Q 3253 2941 3253 2259 
Q 3253 1453 3087 958 
Q 2922 463 2592 192 
Q 2263 -78 1759 -78 
Q 1097 -78 719 397 
Q 266 969 266 2259 
z
M 844 2259 
Q 844 1131 1108 757 
Q 1372 384 1759 384 
Q 2147 384 2411 759 
Q 2675 1134 2675 2259 
Q 2675 3391 2411 3762 
Q 2147 4134 1753 4134 
Q 1366 4134 1134 3806 
Q 844 3388 844 2259 
z
" transform="scale(0.015625)"/>
      <path id="ArialMT-2e" d="M 581 0 
L 581 641 
L 1222 641 
L 1222 0 
L 581 0 
z
" transform="scale(0.015625)"/>
     </defs>
     <use xlink:href="#ArialMT-30"/>
     <use xlink:href="#ArialMT-2e" x="55.615234"/>
     <use xlink:href="#ArialMT-30" x="83.398438"/>
    </g>
   </g>
   <g id="text_2">
    <!-- 1.0 -->
    <g style="fill: #262626" transform="translate(142.81 177.113156) scale(0.1 -0.1)">
     <defs>
      <path id="ArialMT-31" d="M 2384 0 
L 1822 0 
L 1822 3584 
Q 1619 3391 1289 3197 
Q 959 3003 697 2906 
L 697 3450 
Q 1169 3672 1522 3987 
Q 1875 4303 2022 4600 
L 2384 4600 
L 2384 0 
z
" transform="scale(0.015625)"/>
     </defs>
     <use xlink:href="#ArialMT-31"/>
     <use xlink:href="#ArialMT-2e" x="55.615234"/>
     <use xlink:href="#ArialMT-30" x="83.398438"/>
    </g>
   </g>
   <g id="text_3">
    <!-- 2.0 -->
    <g style="fill: #262626" transform="translate(200.41 177.113156) scale(0.1 -0.1)">
     <defs>
      <path id="ArialMT-32" d="M 3222 541 
L 3222 0 
L 194 0 
Q 188 203 259 391 
Q 375 700 629 1000 
Q 884 1300 1366 1694 
Q 2113 2306 2375 2664 
Q 2638 3022 2638 3341 
Q 2638 3675 2398 3904 
Q 2159 4134 1775 4134 
Q 1369 4134 1125 3890 
Q 881 3647 878 3216 
L 300 3275 
Q 359 3922 746 4261 
Q 1134 4600 1788 4600 
Q 2447 4600 2831 4234 
Q 3216 3869 3216 3328 
Q 3216 3053 3103 2787 
Q 2991 2522 2730 2228 
Q 2469 1934 1863 1422 
Q 1356 997 1212 845 
Q 1069 694 975 541 
L 3222 541 
z
" transform="scale(0.015625)"/>
     </defs>
     <use xlink:href="#ArialMT-32"/>
     <use xlink:href="#ArialMT-2e" x="55.615234"/>
     <use xlink:href="#ArialMT-30" x="83.398438"/>
    </g>
   </g>
   <g id="text_4">
    <!-- 3.0 -->
    <g style="fill: #262626" transform="translate(258.01 177.113156) scale(0.1 -0.1)">
     <defs>
      <path id="ArialMT-33" d="M 269 1209 
L 831 1284 
Q 928 806 1161 595 
Q 1394 384 1728 384 
Q 2125 384 2398 659 
Q 2672 934 2672 1341 
Q 2672 1728 2419 1979 
Q 2166 2231 1775 2231 
Q 1616 2231 1378 2169 
L 1441 2663 
Q 1497 2656 1531 2656 
Q 1891 2656 2178 2843 
Q 2466 3031 2466 3422 
Q 2466 3731 2256 3934 
Q 2047 4138 1716 4138 
Q 1388 4138 1169 3931 
Q 950 3725 888 3313 
L 325 3413 
Q 428 3978 793 4289 
Q 1159 4600 1703 4600 
Q 2078 4600 2393 4439 
Q 2709 4278 2876 4000 
Q 3044 3722 3044 3409 
Q 3044 3113 2884 2869 
Q 2725 2625 2413 2481 
Q 2819 2388 3044 2092 
Q 3269 1797 3269 1353 
Q 3269 753 2831 336 
Q 2394 -81 1725 -81 
Q 1122 -81 723 278 
Q 325 638 269 1209 
z
" transform="scale(0.015625)"/>
     </defs>
     <use xlink:href="#ArialMT-33"/>
     <use xlink:href="#ArialMT-2e" x="55.615234"/>
     <use xlink:href="#ArialMT-30" x="83.398438"/>
    </g>
   </g>
   <g id="text_5">
    <!-- 4.0 -->
    <g style="fill: #262626" transform="translate(315.61 177.113156) scale(0.1 -0.1)">
     <defs>
      <path id="ArialMT-34" d="M 2069 0 
L 2069 1097 
L 81 1097 
L 81 1613 
L 2172 4581 
L 2631 4581 
L 2631 1613 
L 3250 1613 
L 3250 1097 
L 2631 1097 
L 2631 0 
L 2069 0 
z
M 2069 1613 
L 2069 3678 
L 634 1613 
L 2069 1613 
z
" transform="scale(0.015625)"/>
     </defs>
     <use xlink:href="#ArialMT-34"/>
     <use xlink:href="#ArialMT-2e" x="55.615234"/>
     <use xlink:href="#ArialMT-30" x="83.398438"/>
    </g>
   </g>
  </g>
 </g>
 <defs>
  <clipPath id="p1f80924eea">
   <rect x="57.6" y="139.968" width="357.12" height="69.12"/>
  </clipPath>
 </defs>
</svg>
