<?xml version="1.0" encoding="utf-8" standalone="no"?>
<!DOCTYPE svg PUBLIC "-//W3C//DTD SVG 1.1//EN"
  "http://www.w3.org/Graphics/SVG/1.1/DTD/svg11.dtd">
<svg xmlns:xlink="http://www.w3.org/1999/xlink" width="460.8pt" height="345.6pt" viewBox="0 0 460.8 345.6" xmlns="http://www.w3.org/2000/svg" version="1.1">
 <metadata>
  <rdf:RDF xmlns:dc="http://purl.org/dc/elements/1.1/" xmlns:cc="http://creativecommons.org/ns#" xmlns:rdf="http://www.w3.org/1999/02/22-rdf-syntax-ns#">
   <cc:Work>
    <dc:type rdf:resource="http://purl.org/dc/dcmitype/StillImage"/>
    <dc:date>2024-12-05T21:10:15.583488</dc:date>
    <dc:format>image/svg+xml</dc:format>
    <dc:creator>
     <cc:Agent>
      <dc:title>Matplotlib v3.9.3, https://matplotlib.org/</dc:title>
     </cc:Agent>
    </dc:creator>
   </cc:Work>
  </rdf:RDF>
 </metadata>
 <defs>
  <style type="text/css">*{stroke-linejoin: round; stroke-linecap: butt}</style>
 </defs>
 <g id="figure_1">
  <g id="patch_1">
   <path d="M 0 345.6 
L 460.8 345.6 
L 460.8 0 
L 0 0 
z
" style="fill: #ffffff"/>
  </g>
  <g id="axes_1">
   <g id="patch_2">
    <path d="M 87.36 199.328 
C 93.937037 199.328 100.245581 196.714916 104.896248 192.064248 
C 109.546916 187.413581 112.16 181.105037 112.16 174.528 
C 112.16 167.950963 109.546916 161.642419 104.896248 156.991752 
C 100.245581 152.341084 93.937037 149.728 87.36 149.728 
C 80.782963 149.728 74.474419 152.341084 69.823752 156.991752 
C 65.173084 161.642419 62.56 167.950963 62.56 174.528 
C 62.56 181.105037 65.173084 187.413581 69.823752 192.064248 
C 74.474419 196.714916 80.782963 199.328 87.36 199.328 
z
" clip-path="url(#p6f177b8860)" style="fill: #d1ecf4; stroke: #ffffff; stroke-linejoin: miter"/>
   </g>
   <g id="patch_3">
    <path d="M 136.96 199.328 
C 143.537037 199.328 149.845581 196.714916 154.496248 192.064248 
C 159.146916 187.413581 161.76 181.105037 161.76 174.528 
C 161.76 167.950963 159.146916 161.642419 154.496248 156.991752 
C 149.845581 152.341084 143.537037 149.728 136.96 149.728 
C 130.382963 149.728 124.074419 152.341084 119.423752 156.991752 
C 114.773084 161.642419 112.16 167.950963 112.16 174.528 
C 112.16 181.105037 114.773084 187.413581 119.423752 192.064248 
C 124.074419 196.714916 130.382963 199.328 136.96 199.328 
z
" clip-path="url(#p6f177b8860)" style="fill: #e7f6eb; stroke: #ffffff; stroke-linejoin: miter"/>
   </g>
   <g id="patch_4">
    <path d="M 186.56 199.328 
C 193.137037 199.328 199.445581 196.714916 204.096248 192.064248 
C 208.746916 187.413581 211.36 181.105037 211.36 174.528 
C 211.36 167.950963 208.746916 161.642419 204.096248 156.991752 
C 199.445581 152.341084 193.137037 149.728 186.56 149.728 
C 179.982963 149.728 173.674419 152.341084 169.023752 156.991752 
C 164.373084 161.642419 161.76 167.950963 161.76 174.528 
C 161.76 181.105037 164.373084 187.413581 169.023752 192.064248 
C 173.674419 196.714916 179.982963 199.328 186.56 199.328 
z
" clip-path="url(#p6f177b8860)" style="fill: #f7fcce; stroke: #ffffff; stroke-linejoin: miter"/>
   </g>
   <g id="patch_5">
    <path d="M 236.16 199.328 
C 242.737037 199.328 249.045581 196.714916 253.696248 192.064248 
C 258.346916 187.413581 260.96 181.105037 260.96 174.528 
C 260.96 167.950963 258.346916 161.642419 253.696248 156.991752 
C 249.045581 152.341084 242.737037 149.728 236.16 149.728 
C 229.582963 149.728 223.274419 152.341084 218.623752 156.991752 
C 213.973084 161.642419 211.36 167.950963 211.36 174.528 
C 211.36 181.105037 213.973084 187.413581 218.623752 192.064248 
C 223.274419 196.714916 229.582963 199.328 236.16 199.328 
z
" clip-path="url(#p6f177b8860)" style="fill: #fff7b3; stroke: #ffffff; stroke-linejoin: miter"/>
   </g>
   <g id="patch_6">
    <path d="M 285.76 199.328 
C 292.337037 199.328 298.645581 196.714916 303.296248 192.064248 
C 307.946916 187.413581 310.56 181.105037 310.56 174.528 
C 310.56 167.950963 307.946916 161.642419 303.296248 156.991752 
C 298.645581 152.341084 292.337037 149.728 285.76 149.728 
C 279.182963 149.728 272.874419 152.341084 268.223752 156.991752 
C 263.573084 161.642419 260.96 167.950963 260.96 174.528 
C 260.96 181.105037 263.573084 187.413581 268.223752 192.064248 
C 272.874419 196.714916 279.182963 199.328 285.76 199.328 
z
" clip-path="url(#p6f177b8860)" style="fill: #fee79b; stroke: #ffffff; stroke-linejoin: miter"/>
   </g>
   <g id="patch_7">
    <path d="M 335.36 199.328 
C 341.937037 199.328 348.245581 196.714916 352.896248 192.064248 
C 357.546916 187.413581 360.16 181.105037 360.16 174.528 
C 360.16 167.950963 357.546916 161.642419 352.896248 156.991752 
C 348.245581 152.341084 341.937037 149.728 335.36 149.728 
C 328.782963 149.728 322.474419 152.341084 317.823752 156.991752 
C 313.173084 161.642419 310.56 167.950963 310.56 174.528 
C 310.56 181.105037 313.173084 187.413581 317.823752 192.064248 
C 322.474419 196.714916 328.782963 199.328 335.36 199.328 
z
" clip-path="url(#p6f177b8860)" style="fill: #fed485; stroke: #ffffff; stroke-linejoin: miter"/>
   </g>
   <g id="text_1">
    <!-- -1.0 -->
    <g style="fill: #262626" transform="translate(78.745156 177.113156) scale(0.1 -0.1)">
     <defs>
      <path id="ArialMT-2d" d="M 203 1375 
L 203 1941 
L 1931 1941 
L 1931 1375 
L 203 1375 
z
" transform="scale(0.015625)"/>
      <path id="ArialMT-31" d="M 2384 0 
L 1822 0 
L 1822 3584 
Q 1619 3391 1289 3197 
Q 959 3003 697 2906 
L 697 3450 
Q 1169 3672 1522 3987 
Q 1875 4303 2022 4600 
L 2384 4600 
L 2384 0 
z
" transform="scale(0.015625)"/>
      <path id="ArialMT-2e" d="M 581 0 
L 581 641 
L 1222 641 
L 1222 0 
L 581 0 
z
" transform="scale(0.015625)"/>
      <path id="ArialMT-30" d="M 266 2259 
Q 266 3072 433 3567 
Q 600 4063 929 4331 
Q 1259 4600 1759 4600 
Q 2128 4600 2406 4451 
Q 2684 4303 2865 4023 
Q 3047 3744 3150 3342 
Q 3253 2941 3253 2259 
Q 3253 1453 3087 958 
Q 2922 463 2592 192 
Q 2263 -78 1759 -78 
Q 1097 -78 719 397 
Q 266 969 266 2259 
z
M 844 2259 
Q 844 1131 1108 757 
Q 1372 384 1759 384 
Q 2147 384 2411 759 
Q 2675 1134 2675 2259 
Q 2675 3391 2411 3762 
Q 2147 4134 1753 4134 
Q 1366 4134 1134 3806 
Q 844 3388 844 2259 
z
" transform="scale(0.015625)"/>
     </defs>
     <use xlink:href="#ArialMT-2d"/>
     <use xlink:href="#ArialMT-31" x="33.300781"/>
     <use xlink:href="#ArialMT-2e" x="88.916016"/>
     <use xlink:href="#ArialMT-30" x="116.699219"/>
    </g>
   </g>
   <g id="text_2">
    <!-- -0.6 -->
    <g style="fill: #262626" transform="translate(128.345156 177.113156) scale(0.1 -0.1)">
     <defs>
      <path id="ArialMT-36" d="M 3184 3459 
L 2625 3416 
Q 2550 3747 2413 3897 
Q 2184 4138 1850 4138 
Q 1581 4138 1378 3988 
Q 1113 3794 959 3422 
Q 806 3050 800 2363 
Q 1003 2672 1297 2822 
Q 1591 2972 1913 2972 
Q 2475 2972 2870 2558 
Q 3266 2144 3266 1488 
Q 3266 1056 3080 686 
Q 2894 316 2569 119 
Q 2244 -78 1831 -78 
Q 1128 -78 684 439 
Q 241 956 241 2144 
Q 241 3472 731 4075 
Q 1159 4600 1884 4600 
Q 2425 4600 2770 4297 
Q 3116 3994 3184 3459 
z
M 888 1484 
Q 888 1194 1011 928 
Q 1134 663 1356 523 
Q 1578 384 1822 384 
Q 2178 384 2434 671 
Q 2691 959 2691 1453 
Q 2691 1928 2437 2201 
Q 2184 2475 1800 2475 
Q 1419 2475 1153 2201 
Q 888 1928 888 1484 
z
" transform="scale(0.015625)"/>
     </defs>
     <use xlink:href="#ArialMT-2d"/>
     <use xlink:href="#ArialMT-30" x="33.300781"/>
     <use xlink:href="#ArialMT-2e" x="88.916016"/>
     <use xlink:href="#ArialMT-36" x="116.699219"/>
    </g>
   </g>
   <g id="text_3">
    <!-- -0.2 -->
    <g style="fill: #262626" transform="translate(177.945156 177.113156) scale(0.1 -0.1)">
     <defs>
      <path id="ArialMT-32" d="M 3222 541 
L 3222 0 
L 194 0 
Q 188 203 259 391 
Q 375 700 629 1000 
Q 884 1300 1366 1694 
Q 2113 2306 2375 2664 
Q 2638 3022 2638 3341 
Q 2638 3675 2398 3904 
Q 2159 4134 1775 4134 
Q 1369 4134 1125 3890 
Q 881 3647 878 3216 
L 300 3275 
Q 359 3922 746 4261 
Q 1134 4600 1788 4600 
Q 2447 4600 2831 4234 
Q 3216 3869 3216 3328 
Q 3216 3053 3103 2787 
Q 2991 2522 2730 2228 
Q 2469 1934 1863 1422 
Q 1356 997 1212 845 
Q 1069 694 975 541 
L 3222 541 
z
" transform="scale(0.015625)"/>
     </defs>
     <use xlink:href="#ArialMT-2d"/>
     <use xlink:href="#ArialMT-30" x="33.300781"/>
     <use xlink:href="#ArialMT-2e" x="88.916016"/>
     <use xlink:href="#ArialMT-32" x="116.699219"/>
    </g>
   </g>
   <g id="text_4">
    <!-- 0.2 -->
    <g style="fill: #262626" transform="translate(229.21 177.113156) scale(0.1 -0.1)">
     <use xlink:href="#ArialMT-30"/>
     <use xlink:href="#ArialMT-2e" x="55.615234"/>
     <use xlink:href="#ArialMT-32" x="83.398438"/>
    </g>
   </g>
   <g id="text_5">
    <!-- 0.6 -->
    <g style="fill: #262626" transform="translate(278.81 177.113156) scale(0.1 -0.1)">
     <use xlink:href="#ArialMT-30"/>
     <use xlink:href="#ArialMT-2e" x="55.615234"/>
     <use xlink:href="#ArialMT-36" x="83.398438"/>
    </g>
   </g>
   <g id="text_6">
    <!-- 1.0 -->
    <g style="fill: #262626" transform="translate(328.41 177.113156) scale(0.1 -0.1)">
     <use xlink:href="#ArialMT-31"/>
     <use xlink:href="#ArialMT-2e" x="55.615234"/>
     <use xlink:href="#ArialMT-30" x="83.398438"/>
    </g>
   </g>
  </g>
 </g>
 <defs>
  <clipPath id="p6f177b8860">
   <rect x="57.6" y="144.768" width="357.12" height="59.52"/>
  </clipPath>
 </defs>
</svg>
