<?xml version="1.0" encoding="utf-8" standalone="no"?>
<!DOCTYPE svg PUBLIC "-//W3C//DTD SVG 1.1//EN"
  "http://www.w3.org/Graphics/SVG/1.1/DTD/svg11.dtd">
<svg xmlns:xlink="http://www.w3.org/1999/xlink" width="216pt" height="144pt" viewBox="0 0 216 144" xmlns="http://www.w3.org/2000/svg" version="1.1">
 <metadata>
  <rdf:RDF xmlns:dc="http://purl.org/dc/elements/1.1/" xmlns:cc="http://creativecommons.org/ns#" xmlns:rdf="http://www.w3.org/1999/02/22-rdf-syntax-ns#">
   <cc:Work>
    <dc:type rdf:resource="http://purl.org/dc/dcmitype/StillImage"/>
    <dc:date>2024-12-05T21:07:43.307334</dc:date>
    <dc:format>image/svg+xml</dc:format>
    <dc:creator>
     <cc:Agent>
      <dc:title>Matplotlib v3.9.3, https://matplotlib.org/</dc:title>
     </cc:Agent>
    </dc:creator>
   </cc:Work>
  </rdf:RDF>
 </metadata>
 <defs>
  <style type="text/css">*{stroke-linejoin: round; stroke-linecap: butt}</style>
 </defs>
 <g id="figure_1">
  <g id="patch_1">
   <path d="M 0 144 
L 216 144 
L 216 0 
L 0 0 
z
" style="fill: #ffffff"/>
  </g>
  <g id="axes_1">
   <g id="patch_2">
    <path d="M 27.54 128.16 
L 193.86 128.16 
L 193.86 17.28 
L 27.54 17.28 
z
" style="fill: #eaeaf2"/>
   </g>
   <g id="matplotlib.axis_1"/>
   <g id="matplotlib.axis_2"/>
   <g id="QuadMesh_1">
    <path d="M 27.54 17.28 
L 55.26 17.28 
L 55.26 45 
L 27.54 45 
L 27.54 17.28 
" clip-path="url(#p99f7da6bef)" style="fill: #ea5739; stroke: #ffffff; stroke-width: 0.5"/>
    <path d="M 55.26 17.28 
L 82.98 17.28 
L 82.98 45 
L 55.26 45 
L 55.26 17.28 
" clip-path="url(#p99f7da6bef)" style="fill: #ea5739; stroke: #ffffff; stroke-width: 0.5"/>
    <path d="M 82.98 17.28 
L 110.7 17.28 
L 110.7 45 
L 82.98 45 
L 82.98 17.28 
" clip-path="url(#p99f7da6bef)" style="fill: #ea5739; stroke: #ffffff; stroke-width: 0.5"/>
    <path d="M 110.7 17.28 
L 138.42 17.28 
L 138.42 45 
L 110.7 45 
L 110.7 17.28 
" clip-path="url(#p99f7da6bef)" style="fill: #ea5739; stroke: #ffffff; stroke-width: 0.5"/>
    <path d="M 138.42 17.28 
L 166.14 17.28 
L 166.14 45 
L 138.42 45 
L 138.42 17.28 
" clip-path="url(#p99f7da6bef)" style="fill: #ea5739; stroke: #ffffff; stroke-width: 0.5"/>
    <path d="M 166.14 17.28 
L 193.86 17.28 
L 193.86 45 
L 166.14 45 
L 166.14 17.28 
" clip-path="url(#p99f7da6bef)" style="fill: #ea5739; stroke: #ffffff; stroke-width: 0.5"/>
    <path d="M 27.54 45 
L 55.26 45 
L 55.26 72.72 
L 27.54 72.72 
L 27.54 45 
" clip-path="url(#p99f7da6bef)" style="fill: #ea5739; stroke: #ffffff; stroke-width: 0.5"/>
    <path d="M 55.26 45 
L 82.98 45 
L 82.98 72.72 
L 55.26 72.72 
L 55.26 45 
" clip-path="url(#p99f7da6bef)" style="fill: #ea5739; stroke: #ffffff; stroke-width: 0.5"/>
    <path d="M 82.98 45 
L 110.7 45 
L 110.7 72.72 
L 82.98 72.72 
L 82.98 45 
" clip-path="url(#p99f7da6bef)" style="fill: #ea5739; stroke: #ffffff; stroke-width: 0.5"/>
    <path d="M 110.7 45 
L 138.42 45 
L 138.42 72.72 
L 110.7 72.72 
L 110.7 45 
" clip-path="url(#p99f7da6bef)" style="fill: #ea5739; stroke: #ffffff; stroke-width: 0.5"/>
    <path d="M 138.42 45 
L 166.14 45 
L 166.14 72.72 
L 138.42 72.72 
L 138.42 45 
" clip-path="url(#p99f7da6bef)" style="fill: #ea5739; stroke: #ffffff; stroke-width: 0.5"/>
    <path d="M 166.14 45 
L 193.86 45 
L 193.86 72.72 
L 166.14 72.72 
L 166.14 45 
" clip-path="url(#p99f7da6bef)" style="fill: #ea5739; stroke: #ffffff; stroke-width: 0.5"/>
    <path d="M 27.54 72.72 
L 55.26 72.72 
L 55.26 100.44 
L 27.54 100.44 
L 27.54 72.72 
" clip-path="url(#p99f7da6bef)" style="fill: #ea5739; stroke: #ffffff; stroke-width: 0.5"/>
    <path d="M 55.26 72.72 
L 82.98 72.72 
L 82.98 100.44 
L 55.26 100.44 
L 55.26 72.72 
" clip-path="url(#p99f7da6bef)" style="fill: #ea5739; stroke: #ffffff; stroke-width: 0.5"/>
    <path d="M 82.98 72.72 
L 110.7 72.72 
L 110.7 100.44 
L 82.98 100.44 
L 82.98 72.72 
" clip-path="url(#p99f7da6bef)" style="fill: #ea5739; stroke: #ffffff; stroke-width: 0.5"/>
    <path d="M 110.7 72.72 
L 138.42 72.72 
L 138.42 100.44 
L 110.7 100.44 
L 110.7 72.72 
" clip-path="url(#p99f7da6bef)" style="fill: #ea5739; stroke: #ffffff; stroke-width: 0.5"/>
    <path d="M 138.42 72.72 
L 166.14 72.72 
L 166.14 100.44 
L 138.42 100.44 
L 138.42 72.72 
" clip-path="url(#p99f7da6bef)" style="fill: #ea5739; stroke: #ffffff; stroke-width: 0.5"/>
    <path d="M 166.14 72.72 
L 193.86 72.72 
L 193.86 100.44 
L 166.14 100.44 
L 166.14 72.72 
" clip-path="url(#p99f7da6bef)" style="fill: #ea5739; stroke: #ffffff; stroke-width: 0.5"/>
    <path d="M 27.54 100.44 
L 55.26 100.44 
L 55.26 128.16 
L 27.54 128.16 
L 27.54 100.44 
" clip-path="url(#p99f7da6bef)" style="fill: #ea5739; stroke: #ffffff; stroke-width: 0.5"/>
    <path d="M 55.26 100.44 
L 82.98 100.44 
L 82.98 128.16 
L 55.26 128.16 
L 55.26 100.44 
" clip-path="url(#p99f7da6bef)" style="fill: #ea5739; stroke: #ffffff; stroke-width: 0.5"/>
    <path d="M 82.98 100.44 
L 110.7 100.44 
L 110.7 128.16 
L 82.98 128.16 
L 82.98 100.44 
" clip-path="url(#p99f7da6bef)" style="fill: #ea5739; stroke: #ffffff; stroke-width: 0.5"/>
    <path d="M 110.7 100.44 
L 138.42 100.44 
L 138.42 128.16 
L 110.7 128.16 
L 110.7 100.44 
" clip-path="url(#p99f7da6bef)" style="fill: #ea5739; stroke: #ffffff; stroke-width: 0.5"/>
    <path d="M 138.42 100.44 
L 166.14 100.44 
L 166.14 128.16 
L 138.42 128.16 
L 138.42 100.44 
" clip-path="url(#p99f7da6bef)" style="fill: #ea5739; stroke: #ffffff; stroke-width: 0.5"/>
    <path d="M 166.14 100.44 
L 193.86 100.44 
L 193.86 128.16 
L 166.14 128.16 
L 166.14 100.44 
" clip-path="url(#p99f7da6bef)" style="fill: #ea5739; stroke: #ffffff; stroke-width: 0.5"/>
   </g>
   <g id="text_1">
    <!-- 2.00 -->
    <g style="fill: #ffffff" transform="translate(31.669531 33.725156) scale(0.1 -0.1)">
     <defs>
      <path id="ArialMT-32" d="M 3222 541 
L 3222 0 
L 194 0 
Q 188 203 259 391 
Q 375 700 629 1000 
Q 884 1300 1366 1694 
Q 2113 2306 2375 2664 
Q 2638 3022 2638 3341 
Q 2638 3675 2398 3904 
Q 2159 4134 1775 4134 
Q 1369 4134 1125 3890 
Q 881 3647 878 3216 
L 300 3275 
Q 359 3922 746 4261 
Q 1134 4600 1788 4600 
Q 2447 4600 2831 4234 
Q 3216 3869 3216 3328 
Q 3216 3053 3103 2787 
Q 2991 2522 2730 2228 
Q 2469 1934 1863 1422 
Q 1356 997 1212 845 
Q 1069 694 975 541 
L 3222 541 
z
" transform="scale(0.015625)"/>
      <path id="ArialMT-2e" d="M 581 0 
L 581 641 
L 1222 641 
L 1222 0 
L 581 0 
z
" transform="scale(0.015625)"/>
      <path id="ArialMT-30" d="M 266 2259 
Q 266 3072 433 3567 
Q 600 4063 929 4331 
Q 1259 4600 1759 4600 
Q 2128 4600 2406 4451 
Q 2684 4303 2865 4023 
Q 3047 3744 3150 3342 
Q 3253 2941 3253 2259 
Q 3253 1453 3087 958 
Q 2922 463 2592 192 
Q 2263 -78 1759 -78 
Q 1097 -78 719 397 
Q 266 969 266 2259 
z
M 844 2259 
Q 844 1131 1108 757 
Q 1372 384 1759 384 
Q 2147 384 2411 759 
Q 2675 1134 2675 2259 
Q 2675 3391 2411 3762 
Q 2147 4134 1753 4134 
Q 1366 4134 1134 3806 
Q 844 3388 844 2259 
z
" transform="scale(0.015625)"/>
     </defs>
     <use xlink:href="#ArialMT-32"/>
     <use xlink:href="#ArialMT-2e" x="55.615234"/>
     <use xlink:href="#ArialMT-30" x="83.398438"/>
     <use xlink:href="#ArialMT-30" x="139.013672"/>
    </g>
   </g>
   <g id="text_2">
    <!-- 2.00 -->
    <g style="fill: #ffffff" transform="translate(59.389531 33.725156) scale(0.1 -0.1)">
     <use xlink:href="#ArialMT-32"/>
     <use xlink:href="#ArialMT-2e" x="55.615234"/>
     <use xlink:href="#ArialMT-30" x="83.398438"/>
     <use xlink:href="#ArialMT-30" x="139.013672"/>
    </g>
   </g>
   <g id="text_3">
    <!-- 2.00 -->
    <g style="fill: #ffffff" transform="translate(87.109531 33.725156) scale(0.1 -0.1)">
     <use xlink:href="#ArialMT-32"/>
     <use xlink:href="#ArialMT-2e" x="55.615234"/>
     <use xlink:href="#ArialMT-30" x="83.398438"/>
     <use xlink:href="#ArialMT-30" x="139.013672"/>
    </g>
   </g>
   <g id="text_4">
    <!-- 2.00 -->
    <g style="fill: #ffffff" transform="translate(114.829531 33.725156) scale(0.1 -0.1)">
     <use xlink:href="#ArialMT-32"/>
     <use xlink:href="#ArialMT-2e" x="55.615234"/>
     <use xlink:href="#ArialMT-30" x="83.398438"/>
     <use xlink:href="#ArialMT-30" x="139.013672"/>
    </g>
   </g>
   <g id="text_5">
    <!-- 2.00 -->
    <g style="fill: #ffffff" transform="translate(142.549531 33.725156) scale(0.1 -0.1)">
     <use xlink:href="#ArialMT-32"/>
     <use xlink:href="#ArialMT-2e" x="55.615234"/>
     <use xlink:href="#ArialMT-30" x="83.398438"/>
     <use xlink:href="#ArialMT-30" x="139.013672"/>
    </g>
   </g>
   <g id="text_6">
    <!-- 2.00 -->
    <g style="fill: #ffffff" transform="translate(170.269531 33.725156) scale(0.1 -0.1)">
     <use xlink:href="#ArialMT-32"/>
     <use xlink:href="#ArialMT-2e" x="55.615234"/>
     <use xlink:href="#ArialMT-30" x="83.398438"/>
     <use xlink:href="#ArialMT-30" x="139.013672"/>
    </g>
   </g>
   <g id="text_7">
    <!-- 2.00 -->
    <g style="fill: #ffffff" transform="translate(31.669531 61.445156) scale(0.1 -0.1)">
     <use xlink:href="#ArialMT-32"/>
     <use xlink:href="#ArialMT-2e" x="55.615234"/>
     <use xlink:href="#ArialMT-30" x="83.398438"/>
     <use xlink:href="#ArialMT-30" x="139.013672"/>
    </g>
   </g>
   <g id="text_8">
    <!-- 2.00 -->
    <g style="fill: #ffffff" transform="translate(59.389531 61.445156) scale(0.1 -0.1)">
     <use xlink:href="#ArialMT-32"/>
     <use xlink:href="#ArialMT-2e" x="55.615234"/>
     <use xlink:href="#ArialMT-30" x="83.398438"/>
     <use xlink:href="#ArialMT-30" x="139.013672"/>
    </g>
   </g>
   <g id="text_9">
    <!-- 2.00 -->
    <g style="fill: #ffffff" transform="translate(87.109531 61.445156) scale(0.1 -0.1)">
     <use xlink:href="#ArialMT-32"/>
     <use xlink:href="#ArialMT-2e" x="55.615234"/>
     <use xlink:href="#ArialMT-30" x="83.398438"/>
     <use xlink:href="#ArialMT-30" x="139.013672"/>
    </g>
   </g>
   <g id="text_10">
    <!-- 2.00 -->
    <g style="fill: #ffffff" transform="translate(114.829531 61.445156) scale(0.1 -0.1)">
     <use xlink:href="#ArialMT-32"/>
     <use xlink:href="#ArialMT-2e" x="55.615234"/>
     <use xlink:href="#ArialMT-30" x="83.398438"/>
     <use xlink:href="#ArialMT-30" x="139.013672"/>
    </g>
   </g>
   <g id="text_11">
    <!-- 2.00 -->
    <g style="fill: #ffffff" transform="translate(142.549531 61.445156) scale(0.1 -0.1)">
     <use xlink:href="#ArialMT-32"/>
     <use xlink:href="#ArialMT-2e" x="55.615234"/>
     <use xlink:href="#ArialMT-30" x="83.398438"/>
     <use xlink:href="#ArialMT-30" x="139.013672"/>
    </g>
   </g>
   <g id="text_12">
    <!-- 2.00 -->
    <g style="fill: #ffffff" transform="translate(170.269531 61.445156) scale(0.1 -0.1)">
     <use xlink:href="#ArialMT-32"/>
     <use xlink:href="#ArialMT-2e" x="55.615234"/>
     <use xlink:href="#ArialMT-30" x="83.398438"/>
     <use xlink:href="#ArialMT-30" x="139.013672"/>
    </g>
   </g>
   <g id="text_13">
    <!-- 2.00 -->
    <g style="fill: #ffffff" transform="translate(31.669531 89.165156) scale(0.1 -0.1)">
     <use xlink:href="#ArialMT-32"/>
     <use xlink:href="#ArialMT-2e" x="55.615234"/>
     <use xlink:href="#ArialMT-30" x="83.398438"/>
     <use xlink:href="#ArialMT-30" x="139.013672"/>
    </g>
   </g>
   <g id="text_14">
    <!-- 2.00 -->
    <g style="fill: #ffffff" transform="translate(59.389531 89.165156) scale(0.1 -0.1)">
     <use xlink:href="#ArialMT-32"/>
     <use xlink:href="#ArialMT-2e" x="55.615234"/>
     <use xlink:href="#ArialMT-30" x="83.398438"/>
     <use xlink:href="#ArialMT-30" x="139.013672"/>
    </g>
   </g>
   <g id="text_15">
    <!-- 2.00 -->
    <g style="fill: #ffffff" transform="translate(87.109531 89.165156) scale(0.1 -0.1)">
     <use xlink:href="#ArialMT-32"/>
     <use xlink:href="#ArialMT-2e" x="55.615234"/>
     <use xlink:href="#ArialMT-30" x="83.398438"/>
     <use xlink:href="#ArialMT-30" x="139.013672"/>
    </g>
   </g>
   <g id="text_16">
    <!-- 2.00 -->
    <g style="fill: #ffffff" transform="translate(114.829531 89.165156) scale(0.1 -0.1)">
     <use xlink:href="#ArialMT-32"/>
     <use xlink:href="#ArialMT-2e" x="55.615234"/>
     <use xlink:href="#ArialMT-30" x="83.398438"/>
     <use xlink:href="#ArialMT-30" x="139.013672"/>
    </g>
   </g>
   <g id="text_17">
    <!-- 2.00 -->
    <g style="fill: #ffffff" transform="translate(142.549531 89.165156) scale(0.1 -0.1)">
     <use xlink:href="#ArialMT-32"/>
     <use xlink:href="#ArialMT-2e" x="55.615234"/>
     <use xlink:href="#ArialMT-30" x="83.398438"/>
     <use xlink:href="#ArialMT-30" x="139.013672"/>
    </g>
   </g>
   <g id="text_18">
    <!-- 2.00 -->
    <g style="fill: #ffffff" transform="translate(170.269531 89.165156) scale(0.1 -0.1)">
     <use xlink:href="#ArialMT-32"/>
     <use xlink:href="#ArialMT-2e" x="55.615234"/>
     <use xlink:href="#ArialMT-30" x="83.398438"/>
     <use xlink:href="#ArialMT-30" x="139.013672"/>
    </g>
   </g>
   <g id="text_19">
    <!-- 2.00 -->
    <g style="fill: #ffffff" transform="translate(31.669531 116.885156) scale(0.1 -0.1)">
     <use xlink:href="#ArialMT-32"/>
     <use xlink:href="#ArialMT-2e" x="55.615234"/>
     <use xlink:href="#ArialMT-30" x="83.398438"/>
     <use xlink:href="#ArialMT-30" x="139.013672"/>
    </g>
   </g>
   <g id="text_20">
    <!-- 2.00 -->
    <g style="fill: #ffffff" transform="translate(59.389531 116.885156) scale(0.1 -0.1)">
     <use xlink:href="#ArialMT-32"/>
     <use xlink:href="#ArialMT-2e" x="55.615234"/>
     <use xlink:href="#ArialMT-30" x="83.398438"/>
     <use xlink:href="#ArialMT-30" x="139.013672"/>
    </g>
   </g>
   <g id="text_21">
    <!-- 2.00 -->
    <g style="fill: #ffffff" transform="translate(87.109531 116.885156) scale(0.1 -0.1)">
     <use xlink:href="#ArialMT-32"/>
     <use xlink:href="#ArialMT-2e" x="55.615234"/>
     <use xlink:href="#ArialMT-30" x="83.398438"/>
     <use xlink:href="#ArialMT-30" x="139.013672"/>
    </g>
   </g>
   <g id="text_22">
    <!-- 2.00 -->
    <g style="fill: #ffffff" transform="translate(114.829531 116.885156) scale(0.1 -0.1)">
     <use xlink:href="#ArialMT-32"/>
     <use xlink:href="#ArialMT-2e" x="55.615234"/>
     <use xlink:href="#ArialMT-30" x="83.398438"/>
     <use xlink:href="#ArialMT-30" x="139.013672"/>
    </g>
   </g>
   <g id="text_23">
    <!-- 2.00 -->
    <g style="fill: #ffffff" transform="translate(142.549531 116.885156) scale(0.1 -0.1)">
     <use xlink:href="#ArialMT-32"/>
     <use xlink:href="#ArialMT-2e" x="55.615234"/>
     <use xlink:href="#ArialMT-30" x="83.398438"/>
     <use xlink:href="#ArialMT-30" x="139.013672"/>
    </g>
   </g>
   <g id="text_24">
    <!-- 2.00 -->
    <g style="fill: #ffffff" transform="translate(170.269531 116.885156) scale(0.1 -0.1)">
     <use xlink:href="#ArialMT-32"/>
     <use xlink:href="#ArialMT-2e" x="55.615234"/>
     <use xlink:href="#ArialMT-30" x="83.398438"/>
     <use xlink:href="#ArialMT-30" x="139.013672"/>
    </g>
   </g>
  </g>
 </g>
 <defs>
  <clipPath id="p99f7da6bef">
   <rect x="27.54" y="17.28" width="166.32" height="110.88"/>
  </clipPath>
 </defs>
</svg>
