<?xml version="1.0" encoding="utf-8" standalone="no"?>
<!DOCTYPE svg PUBLIC "-//W3C//DTD SVG 1.1//EN"
  "http://www.w3.org/Graphics/SVG/1.1/DTD/svg11.dtd">
<svg xmlns:xlink="http://www.w3.org/1999/xlink" width="460.8pt" height="345.6pt" viewBox="0 0 460.8 345.6" xmlns="http://www.w3.org/2000/svg" version="1.1">
 <metadata>
  <rdf:RDF xmlns:dc="http://purl.org/dc/elements/1.1/" xmlns:cc="http://creativecommons.org/ns#" xmlns:rdf="http://www.w3.org/1999/02/22-rdf-syntax-ns#">
   <cc:Work>
    <dc:type rdf:resource="http://purl.org/dc/dcmitype/StillImage"/>
    <dc:date>2024-12-05T21:23:19.342210</dc:date>
    <dc:format>image/svg+xml</dc:format>
    <dc:creator>
     <cc:Agent>
      <dc:title>Matplotlib v3.9.3, https://matplotlib.org/</dc:title>
     </cc:Agent>
    </dc:creator>
   </cc:Work>
  </rdf:RDF>
 </metadata>
 <defs>
  <style type="text/css">*{stroke-linejoin: round; stroke-linecap: butt}</style>
 </defs>
 <g id="figure_1">
  <g id="patch_1">
   <path d="M 0 345.6 
L 460.8 345.6 
L 460.8 0 
L 0 0 
z
" style="fill: #ffffff"/>
  </g>
  <g id="axes_1">
   <g id="patch_2">
    <path d="M 87.36 199.328 
C 93.937037 199.328 100.245581 196.714916 104.896248 192.064248 
C 109.546916 187.413581 112.16 181.105037 112.16 174.528 
C 112.16 167.950963 109.546916 161.642419 104.896248 156.991752 
C 100.245581 152.341084 93.937037 149.728 87.36 149.728 
C 80.782963 149.728 74.474419 152.341084 69.823752 156.991752 
C 65.173084 161.642419 62.56 167.950963 62.56 174.528 
C 62.56 181.105037 65.173084 187.413581 69.823752 192.064248 
C 74.474419 196.714916 80.782963 199.328 87.36 199.328 
z
" clip-path="url(#p1fe7087226)" style="fill: #da362a; stroke: #ffffff; stroke-linejoin: miter"/>
   </g>
   <g id="patch_3">
    <path d="M 136.96 199.328 
C 143.537037 199.328 149.845581 196.714916 154.496248 192.064248 
C 159.146916 187.413581 161.76 181.105037 161.76 174.528 
C 161.76 167.950963 159.146916 161.642419 154.496248 156.991752 
C 149.845581 152.341084 143.537037 149.728 136.96 149.728 
C 130.382963 149.728 124.074419 152.341084 119.423752 156.991752 
C 114.773084 161.642419 112.16 167.950963 112.16 174.528 
C 112.16 181.105037 114.773084 187.413581 119.423752 192.064248 
C 124.074419 196.714916 130.382963 199.328 136.96 199.328 
z
" clip-path="url(#p1fe7087226)" style="fill: #a50026; stroke: #ffffff; stroke-linejoin: miter"/>
   </g>
   <g id="patch_4">
    <path d="M 186.56 199.328 
C 193.137037 199.328 199.445581 196.714916 204.096248 192.064248 
C 208.746916 187.413581 211.36 181.105037 211.36 174.528 
C 211.36 167.950963 208.746916 161.642419 204.096248 156.991752 
C 199.445581 152.341084 193.137037 149.728 186.56 149.728 
C 179.982963 149.728 173.674419 152.341084 169.023752 156.991752 
C 164.373084 161.642419 161.76 167.950963 161.76 174.528 
C 161.76 181.105037 164.373084 187.413581 169.023752 192.064248 
C 173.674419 196.714916 179.982963 199.328 186.56 199.328 
z
" clip-path="url(#p1fe7087226)" style="fill: #da362a; stroke: #ffffff; stroke-linejoin: miter"/>
   </g>
   <g id="patch_5">
    <path d="M 236.16 199.328 
C 242.737037 199.328 249.045581 196.714916 253.696248 192.064248 
C 258.346916 187.413581 260.96 181.105037 260.96 174.528 
C 260.96 167.950963 258.346916 161.642419 253.696248 156.991752 
C 249.045581 152.341084 242.737037 149.728 236.16 149.728 
C 229.582963 149.728 223.274419 152.341084 218.623752 156.991752 
C 213.973084 161.642419 211.36 167.950963 211.36 174.528 
C 211.36 181.105037 213.973084 187.413581 218.623752 192.064248 
C 223.274419 196.714916 229.582963 199.328 236.16 199.328 
z
" clip-path="url(#p1fe7087226)" style="fill: #a50026; stroke: #ffffff; stroke-linejoin: miter"/>
   </g>
   <g id="patch_6">
    <path d="M 285.76 199.328 
C 292.337037 199.328 298.645581 196.714916 303.296248 192.064248 
C 307.946916 187.413581 310.56 181.105037 310.56 174.528 
C 310.56 167.950963 307.946916 161.642419 303.296248 156.991752 
C 298.645581 152.341084 292.337037 149.728 285.76 149.728 
C 279.182963 149.728 272.874419 152.341084 268.223752 156.991752 
C 263.573084 161.642419 260.96 167.950963 260.96 174.528 
C 260.96 181.105037 263.573084 187.413581 268.223752 192.064248 
C 272.874419 196.714916 279.182963 199.328 285.76 199.328 
z
" clip-path="url(#p1fe7087226)" style="fill: #f67a49; stroke: #ffffff; stroke-linejoin: miter"/>
   </g>
   <g id="patch_7">
    <path d="M 335.36 199.328 
C 341.937037 199.328 348.245581 196.714916 352.896248 192.064248 
C 357.546916 187.413581 360.16 181.105037 360.16 174.528 
C 360.16 167.950963 357.546916 161.642419 352.896248 156.991752 
C 348.245581 152.341084 341.937037 149.728 335.36 149.728 
C 328.782963 149.728 322.474419 152.341084 317.823752 156.991752 
C 313.173084 161.642419 310.56 167.950963 310.56 174.528 
C 310.56 181.105037 313.173084 187.413581 317.823752 192.064248 
C 322.474419 196.714916 328.782963 199.328 335.36 199.328 
z
" clip-path="url(#p1fe7087226)" style="fill: #a50026; stroke: #ffffff; stroke-linejoin: miter"/>
   </g>
   <g id="text_1">
    <!-- 8.0 -->
    <g style="fill: #262626" transform="translate(80.41 177.113156) scale(0.1 -0.1)">
     <defs>
      <path id="ArialMT-38" d="M 1131 2484 
Q 781 2613 612 2850 
Q 444 3088 444 3419 
Q 444 3919 803 4259 
Q 1163 4600 1759 4600 
Q 2359 4600 2725 4251 
Q 3091 3903 3091 3403 
Q 3091 3084 2923 2848 
Q 2756 2613 2416 2484 
Q 2838 2347 3058 2040 
Q 3278 1734 3278 1309 
Q 3278 722 2862 322 
Q 2447 -78 1769 -78 
Q 1091 -78 675 323 
Q 259 725 259 1325 
Q 259 1772 486 2073 
Q 713 2375 1131 2484 
z
M 1019 3438 
Q 1019 3113 1228 2906 
Q 1438 2700 1772 2700 
Q 2097 2700 2305 2904 
Q 2513 3109 2513 3406 
Q 2513 3716 2298 3927 
Q 2084 4138 1766 4138 
Q 1444 4138 1231 3931 
Q 1019 3725 1019 3438 
z
M 838 1322 
Q 838 1081 952 856 
Q 1066 631 1291 507 
Q 1516 384 1775 384 
Q 2178 384 2440 643 
Q 2703 903 2703 1303 
Q 2703 1709 2433 1975 
Q 2163 2241 1756 2241 
Q 1359 2241 1098 1978 
Q 838 1716 838 1322 
z
" transform="scale(0.015625)"/>
      <path id="ArialMT-2e" d="M 581 0 
L 581 641 
L 1222 641 
L 1222 0 
L 581 0 
z
" transform="scale(0.015625)"/>
      <path id="ArialMT-30" d="M 266 2259 
Q 266 3072 433 3567 
Q 600 4063 929 4331 
Q 1259 4600 1759 4600 
Q 2128 4600 2406 4451 
Q 2684 4303 2865 4023 
Q 3047 3744 3150 3342 
Q 3253 2941 3253 2259 
Q 3253 1453 3087 958 
Q 2922 463 2592 192 
Q 2263 -78 1759 -78 
Q 1097 -78 719 397 
Q 266 969 266 2259 
z
M 844 2259 
Q 844 1131 1108 757 
Q 1372 384 1759 384 
Q 2147 384 2411 759 
Q 2675 1134 2675 2259 
Q 2675 3391 2411 3762 
Q 2147 4134 1753 4134 
Q 1366 4134 1134 3806 
Q 844 3388 844 2259 
z
" transform="scale(0.015625)"/>
     </defs>
     <use xlink:href="#ArialMT-38"/>
     <use xlink:href="#ArialMT-2e" x="55.615234"/>
     <use xlink:href="#ArialMT-30" x="83.398438"/>
    </g>
   </g>
   <g id="text_2">
    <!-- 9.0 -->
    <g style="fill: #262626" transform="translate(130.01 177.113156) scale(0.1 -0.1)">
     <defs>
      <path id="ArialMT-39" d="M 350 1059 
L 891 1109 
Q 959 728 1153 556 
Q 1347 384 1650 384 
Q 1909 384 2104 503 
Q 2300 622 2425 820 
Q 2550 1019 2634 1356 
Q 2719 1694 2719 2044 
Q 2719 2081 2716 2156 
Q 2547 1888 2255 1720 
Q 1963 1553 1622 1553 
Q 1053 1553 659 1965 
Q 266 2378 266 3053 
Q 266 3750 677 4175 
Q 1088 4600 1706 4600 
Q 2153 4600 2523 4359 
Q 2894 4119 3086 3673 
Q 3278 3228 3278 2384 
Q 3278 1506 3087 986 
Q 2897 466 2520 194 
Q 2144 -78 1638 -78 
Q 1100 -78 759 220 
Q 419 519 350 1059 
z
M 2653 3081 
Q 2653 3566 2395 3850 
Q 2138 4134 1775 4134 
Q 1400 4134 1122 3828 
Q 844 3522 844 3034 
Q 844 2597 1108 2323 
Q 1372 2050 1759 2050 
Q 2150 2050 2401 2323 
Q 2653 2597 2653 3081 
z
" transform="scale(0.015625)"/>
     </defs>
     <use xlink:href="#ArialMT-39"/>
     <use xlink:href="#ArialMT-2e" x="55.615234"/>
     <use xlink:href="#ArialMT-30" x="83.398438"/>
    </g>
   </g>
   <g id="text_3">
    <!-- 8.0 -->
    <g style="fill: #262626" transform="translate(179.61 177.113156) scale(0.1 -0.1)">
     <use xlink:href="#ArialMT-38"/>
     <use xlink:href="#ArialMT-2e" x="55.615234"/>
     <use xlink:href="#ArialMT-30" x="83.398438"/>
    </g>
   </g>
   <g id="text_4">
    <!-- 9.0 -->
    <g style="fill: #262626" transform="translate(229.21 177.113156) scale(0.1 -0.1)">
     <use xlink:href="#ArialMT-39"/>
     <use xlink:href="#ArialMT-2e" x="55.615234"/>
     <use xlink:href="#ArialMT-30" x="83.398438"/>
    </g>
   </g>
   <g id="text_5">
    <!-- 7.0 -->
    <g style="fill: #262626" transform="translate(278.81 177.113156) scale(0.1 -0.1)">
     <defs>
      <path id="ArialMT-37" d="M 303 3981 
L 303 4522 
L 3269 4522 
L 3269 4084 
Q 2831 3619 2401 2847 
Q 1972 2075 1738 1259 
Q 1569 684 1522 0 
L 944 0 
Q 953 541 1156 1306 
Q 1359 2072 1739 2783 
Q 2119 3494 2547 3981 
L 303 3981 
z
" transform="scale(0.015625)"/>
     </defs>
     <use xlink:href="#ArialMT-37"/>
     <use xlink:href="#ArialMT-2e" x="55.615234"/>
     <use xlink:href="#ArialMT-30" x="83.398438"/>
    </g>
   </g>
   <g id="text_6">
    <!-- 9.0 -->
    <g style="fill: #262626" transform="translate(328.41 177.113156) scale(0.1 -0.1)">
     <use xlink:href="#ArialMT-39"/>
     <use xlink:href="#ArialMT-2e" x="55.615234"/>
     <use xlink:href="#ArialMT-30" x="83.398438"/>
    </g>
   </g>
  </g>
 </g>
 <defs>
  <clipPath id="p1fe7087226">
   <rect x="57.6" y="144.768" width="357.12" height="59.52"/>
  </clipPath>
 </defs>
</svg>
